<?xml version="1.0" encoding="UTF-8"?> <svg xmlns="http://www.w3.org/2000/svg" id="Layer_1" viewBox="0 0 112.35 44.82"><style>.st0{fill-rule:evenodd;clip-rule:evenodd;fill:#fff}</style><g id="Symbols"><g id="footer6" transform="translate(-215 -85)"><g id="Group-10"><g id="Group-5" transform="translate(215 85)"><path id="Fill-1" class="st0" d="M7.29 34.44c-2.67-.69-3.66-.93-3.66-2.27 0-1.2 1.41-1.92 3.74-1.92 1.55 0 3.58.51 4.8 1.28v-3.04a11.63 11.63 0 0 0-4.94-1.12c-4.4 0-7.23 1.97-7.23 5.07 0 3.18 2.19 4.19 5.66 5.02 2.19.51 3.74.91 3.74 2.32 0 1.41-1.33 2.19-3.95 2.13A10.82 10.82 0 0 1 .17 40.5v3.1c1.76.8 3.52 1.2 5.55 1.2 4.06 0 7.37-1.6 7.37-5.15-.01-3.48-2.55-4.36-5.8-5.21zm7.84-6.7v3.07h5.5v13.58h3.66V30.81h5.55v-3.07H15.13zm91.43 6.73c-2.67-.69-3.66-.96-3.66-2.3 0-1.2 1.41-1.92 3.74-1.92 1.55 0 3.58.51 4.8 1.28v-3.04a11.63 11.63 0 0 0-4.94-1.12c-4.4 0-7.26 1.97-7.26 5.07 0 3.18 2.19 4.22 5.68 5.02 2.19.51 3.74.91 3.74 2.32 0 1.47-1.52 2.3-3.95 2.13a11.15 11.15 0 0 1-5.28-1.41v3.1a12.5 12.5 0 0 0 5.52 1.2c4.08 0 7.39-1.57 7.39-5.15.01-3.48-2.52-4.33-5.78-5.18zm-34.9 9.95h3.63V27.77h-3.63v16.65zm-27.2-16.68v10.14c0 2.48-1.41 3.9-3.87 3.9-2.48 0-3.84-1.41-3.84-3.9V27.74h-3.71v9.79c0 4.51 2.83 7.26 7.55 7.26 4.78 0 7.53-2.7 7.53-7.26v-9.79h-3.66zm14.47 13.74h-2.88V30.7h2.94c3.34 0 5.15 1.89 5.15 5.34-.01 3.47-1.88 5.44-5.21 5.44zm.21-13.74h-6.75v16.65h6.7c5.55 0 8.81-3.07 8.81-8.35-.01-5.2-3.26-8.3-8.76-8.3zm28.61 2.94c1.49 0 2.72.48 3.76 1.52A5.65 5.65 0 0 1 93 36.07c0 2.99-2.13 5.44-5.28 5.44a5.23 5.23 0 0 1-5.26-5.44c0-1.41.53-2.88 1.49-3.84a5.21 5.21 0 0 1 3.8-1.55zm0-3.34c-5.04 0-8.89 3.76-8.89 8.73 0 5.04 3.9 8.75 8.86 8.75a8.69 8.69 0 0 0 8.89-8.73c0-4.96-3.9-8.75-8.86-8.75z"></path><path id="Fill-3" class="st0" d="M85.05 12.47l-.32.19a9.21 9.21 0 0 1-4.72 1.44c-3.25-.01-5.4-1.94-5.41-4.74.01-2.74 2.25-4.77 5.32-4.78a9.4 9.4 0 0 1 4.68 1.33l.31.17v-2.5l-.13-.05a12.97 12.97 0 0 0-4.83-1.09 8.2 8.2 0 0 0-5.59 2 6.75 6.75 0 0 0-2.21 5.09c0 1.42.58 3.09 1.85 4.42 1.25 1.33 3.18 2.29 5.84 2.29h.01c2.2 0 3.72-.49 5.1-1.17l.12-.05v-2.55zm-15.91 6.21h19.85V0H69.14v18.68zM35.4 10.83a3.83 3.83 0 0 0-2.2-.53h-2.18v3.67h2.28c1.14 0 1.83-.26 2.22-.61.4-.35.53-.8.53-1.24.01-.54-.19-.96-.65-1.29zm-1.19-3.11c.43-.31.63-.74.64-1.39 0-.45-.13-.83-.45-1.12-.33-.29-.88-.49-1.76-.49h-1.62V8.2h1.11c.96 0 1.65-.17 2.08-.48zm4.32 4.67c.01-1.7-1.12-2.99-2.93-3.49.49-.25.88-.55 1.16-.92.38-.5.56-1.11.56-1.82 0-.88-.34-1.77-1.08-2.43a4.91 4.91 0 0 0-3.39-1.1h-4.23v13.45h4.97c1.77 0 3.02-.48 3.81-1.19a3.38 3.38 0 0 0 1.13-2.5zM23.4 18.68h19.85V0H23.4v18.68zM57.08 7.72c.42-.31.63-.74.63-1.39 0-.45-.13-.83-.45-1.12-.32-.29-.87-.49-1.76-.49h-1.62V8.2H55c.96 0 1.65-.17 2.08-.48zm1.2 3.11a3.85 3.85 0 0 0-2.2-.53h-2.19v3.67h2.29c1.14 0 1.82-.26 2.22-.61.4-.35.54-.8.54-1.24a1.53 1.53 0 0 0-.66-1.29zm3.13 1.56c.01-1.7-1.13-2.99-2.93-3.49.48-.25.87-.55 1.16-.92.38-.5.56-1.11.56-1.82 0-.88-.34-1.77-1.08-2.43a4.92 4.92 0 0 0-3.4-1.1h-4.23v13.45H56.47c1.77 0 3.02-.48 3.82-1.19a3.44 3.44 0 0 0 1.12-2.5zm-15.14 6.29h19.85V0H46.27v18.68z"></path></g></g></g></g></svg> 