<?xml version="1.0" encoding="UTF-8"?> <svg xmlns="http://www.w3.org/2000/svg" id="Layer_1" viewBox="0 0 65.34 54.29"><style>.st3{fill-rule:evenodd;clip-rule:evenodd}</style><g id="Symbols"><g id="footer6" transform="translate(-642 -80)"><g id="Group-10"><g id="Group-36" transform="translate(642 80)"><g id="Group-3" transform="translate(0 .06)"><defs><filter id="Adobe_OpacityMaskFilter" x="0" y="-.06" width="65.34" height="54.29"><feColorMatrix values="1 0 0 0 0 0 1 0 0 0 0 0 1 0 0 0 0 0 1 0"></feColorMatrix></filter></defs><mask maskUnits="userSpaceOnUse" x="0" y="-.06" width="65.34" height="54.29" id="mask-2_1_"><g filter="url(#Adobe_OpacityMaskFilter)"><path id="path-1_1_" fill-rule="evenodd" clip-rule="evenodd" fill="#fff" d="M0-.06h65.34v54.29H0z"></path></g></mask><path id="Fill-1" d="M27.02-.06a6.9 6.9 0 0 0-6.01 3.52l-7.18 12.69A6.94 6.94 0 0 0 0 16.67v25.75a6.96 6.96 0 0 0 5.16 6.72 6.9 6.9 0 0 0 7.79-3.29l2.88-5.1-.71 5.67a6.95 6.95 0 0 0 6.87 7.8 6.93 6.93 0 0 0 5.87-3.25l.03-.05-.01.04 7.99-11.25 2.87 7.16v-.01a6.91 6.91 0 0 0 12.13 1.28l13.26-19.59a6.97 6.97 0 0 0-1.84-9.65 6.91 6.91 0 0 0-9.62 1.85l-4.82 7.13-2.49-9.12a6.92 6.92 0 0 0-12.54-1.85l-.09.15 1.16-9.31a6.93 6.93 0 0 0-6.86-7.8h-.01z" mask="url(#mask-2_1_)" fill-rule="evenodd" clip-rule="evenodd" fill="#fff"></path></g><path id="Fill-4" class="st3" d="M10.03 32.54H8.07l.99-2.53.97 2.53zm-.48-3.93c-.12-.31-.36-.36-.49-.36-.22 0-.4.12-.49.34l-2.31 5.75a.62.62 0 0 0-.03.18c0 .29.26.48.5.48.17 0 .39-.08.49-.31l.49-1.24h2.69l.48 1.24c.08.2.26.31.48.31.29 0 .51-.21.51-.49 0-.1-.03-.18-.06-.24l-2.26-5.66z"></path><path id="Fill-6" class="st3" d="M23.47 34.05c-.15 0-.2-.06-.2-.23v-2.67h.19c.3 0 .48-.23.48-.46a.47.47 0 0 0-.48-.47h-.19v-1.47c0-.3-.27-.49-.51-.49-.25 0-.51.19-.51.49v1.47h-.17c-.3 0-.48.24-.48.47 0 .22.18.46.48.46h.17v2.7c0 .68.48 1.14 1.2 1.14.34 0 .52-.24.52-.47 0-.26-.22-.47-.5-.47"></path><path id="Fill-8" class="st3" d="M19.77 32.2l-.9-.19c-.52-.11-.62-.25-.62-.46 0-.24.25-.49.82-.49.37 0 .71.11.96.3.11.09.26.15.37.15a.5.5 0 0 0 .51-.49c0-.17-.09-.31-.27-.45a3.03 3.03 0 0 0-1.57-.43c-1.36 0-1.84.79-1.84 1.47 0 .65.49 1.14 1.28 1.3l.94.19c.58.12.66.32.66.49 0 .27-.28.53-.91.53-.48 0-.85-.2-1.23-.45a.57.57 0 0 0-.29-.09.5.5 0 0 0-.51.49c0 .18.1.33.3.46.56.35 1.1.51 1.78.51 1.15 0 1.9-.59 1.9-1.49-.01-.68-.5-1.16-1.38-1.35"></path><path id="Fill-10" class="st3" d="M15.92 30.17c-.25 0-.51.19-.51.49v2.2c0 .38-.11 1.25-1.13 1.25-1.04 0-1.09-1.04-1.09-1.25v-2.2c0-.31-.26-.49-.51-.49s-.51.19-.51.49v2.21c0 .8.44 2.16 2.1 2.16a2 2 0 0 0 1.17-.34c.08.19.28.3.47.3.25 0 .51-.19.51-.49v-3.84c.01-.3-.25-.49-.5-.49"></path><path id="Fill-12" class="st3" d="M34.34 33.81v-5.06c0-.31-.26-.49-.51-.49s-.51.19-.51.49v5.06c0 .52.27.85.5 1.04.08.07.24.15.42.15.28 0 .49-.2.49-.48 0-.17-.09-.3-.17-.36-.15-.13-.22-.24-.22-.35"></path><path id="Fill-14" class="st3" d="M40.69 32.36v.47c0 .48-.25 1.29-1.21 1.29-1.05 0-1.16-.9-1.16-1.28v-.49c0-.59.3-1.28 1.16-1.28.88-.01 1.21.79 1.21 1.29m1.18 1.78a.39.39 0 0 1-.2-.35v-3.14c0-.3-.27-.49-.51-.49a.52.52 0 0 0-.5.38 1.94 1.94 0 0 0-1.2-.39c-1.71 0-2.16 1.46-2.16 2.24v.44c0 1.03.56 2.24 2.16 2.24.56 0 1.04-.17 1.41-.52.15.31.42.51.73.51a.5.5 0 0 0 .27-.92"></path><path id="Fill-16" class="st3" d="M36.05 30.17c-.24 0-.5.2-.5.49v3.84c0 .31.26.49.51.49s.51-.19.51-.49v-3.84c0-.3-.27-.49-.52-.49"></path><path id="Fill-18" class="st3" d="M36.06 28.25c-.37 0-.66.28-.66.64s.29.64.66.64c.37 0 .66-.28.66-.64 0-.35-.3-.64-.66-.64"></path><path id="Fill-20" class="st3" d="M26.47 30.14c-.34 0-.6.07-.82.22a.52.52 0 0 0-.41-.17.5.5 0 0 0-.5.49v3.83c0 .31.26.49.51.49s.51-.19.51-.49v-2.6c0-.39.12-.85.7-.85.12 0 .21.06.31.11.09.06.19.12.32.12.24 0 .49-.18.49-.47.01-.44-.64-.68-1.11-.68"></path><path id="Fill-22" class="st3" d="M31.19 32.36v.47c0 .48-.25 1.29-1.21 1.29-1.05 0-1.16-.9-1.16-1.28v-.49c0-.59.3-1.28 1.16-1.28.88-.01 1.21.79 1.21 1.29m1.17 1.78a.39.39 0 0 1-.2-.35v-3.14c0-.3-.27-.49-.51-.49a.52.52 0 0 0-.5.38 1.94 1.94 0 0 0-1.2-.39c-1.71 0-2.16 1.46-2.16 2.24v.44c0 1.03.57 2.24 2.16 2.24.56 0 1.04-.17 1.41-.52.15.31.42.51.73.51a.5.5 0 0 0 .51-.49.46.46 0 0 0-.24-.43"></path><path id="Fill-24" class="st3" d="M20.62 23.83c.07-.55.45-1.07 1.16-1.07.65 0 1.04.52 1.11 1.07h-2.27zm1.2 2.91a2.2 2.2 0 0 0 1.58-.57.5.5 0 0 0 .15-.35.5.5 0 0 0-.5-.49.58.58 0 0 0-.36.14c-.19.17-.43.35-.89.35-.74 0-1.1-.63-1.18-1.09h2.82c.28 0 .5-.21.5-.48 0-1.2-.67-2.41-2.16-2.41-1.6 0-2.19 1.33-2.19 2.22v.4c0 .92.59 2.28 2.23 2.28z"></path><path id="Fill-26" class="st3" d="M13.84 26.75c.82 0 1.4-.33 1.67-.64.1-.11.14-.23.14-.36a.48.48 0 0 0-.49-.48.5.5 0 0 0-.36.15c-.15.15-.47.39-.91.39-.88 0-1.21-.77-1.21-1.29v-.47c0-.5.32-1.28 1.18-1.28.39 0 .61.18.83.38a.6.6 0 0 0 .38.14c.28 0 .5-.21.5-.48a.53.53 0 0 0-.15-.36c-.26-.29-.81-.6-1.56-.6-1.6 0-2.2 1.37-2.2 2.23v.44c0 .77.46 2.23 2.18 2.23"></path><path id="Fill-28" class="st3" d="M25.64 23.83c.07-.55.45-1.07 1.16-1.07.65 0 1.04.52 1.11 1.07h-2.27zm1.19 2.91a2.2 2.2 0 0 0 1.58-.57.5.5 0 0 0 .15-.35.5.5 0 0 0-.5-.49.58.58 0 0 0-.36.14c-.19.17-.43.35-.89.35-.74 0-1.1-.63-1.18-1.09h2.82c.28 0 .5-.21.5-.48 0-1.2-.67-2.41-2.16-2.41-1.61 0-2.19 1.33-2.19 2.22v.4c.01.92.6 2.28 2.23 2.28z"></path><path id="Fill-30" class="st3" d="M17.42 23.62c0-.39.12-.85.7-.85.12 0 .21.06.31.11.09.06.19.12.32.12.24 0 .49-.18.49-.47 0-.45-.65-.69-1.12-.69-.33 0-.6.07-.81.22a.52.52 0 0 0-.4-.17.5.5 0 0 0-.5.49v3.83c0 .31.26.49.51.49s.51-.18.51-.49l-.01-2.59z"></path><path id="Fill-32" class="st3" d="M33.96 26.23v-2.27c0-1.02-.68-2.11-2.16-2.11-.46 0-.88.12-1.2.35a.5.5 0 0 0-.47-.31.5.5 0 0 0-.51.5v3.85c0 .31.26.49.51.49s.51-.19.51-.49v-2.26c0-.55.31-1.2 1.17-1.2.89 0 1.13.75 1.13 1.2v2.26c0 .31.26.49.51.49.25-.01.51-.19.51-.5"></path><path id="Fill-34" class="st3" d="M8.8 25.8c-.64 0-1.02-.19-1.53-.57a.64.64 0 0 0-.34-.12.5.5 0 0 0-.51.5c0 .13.05.25.16.37a3.1 3.1 0 0 0 2.22.78c1.38 0 2.34-.76 2.34-1.86 0-1.16-.94-1.55-1.62-1.84l-1.09-.45c-.46-.2-.85-.37-.85-.91 0-.22.21-.85 1.13-.85.56 0 1.01.22 1.29.4.11.07.22.11.33.11a.5.5 0 0 0 .52-.49c0-.2-.11-.32-.2-.39a3.38 3.38 0 0 0-1.95-.58c-1.5 0-2.18 1.06-2.18 1.81 0 1.22 1.04 1.63 1.6 1.85l1 .39c.8.32.96.59.96.94 0 .55-.53.91-1.28.91"></path></g></g></g></g></svg> 