<svg xmlns="http://www.w3.org/2000/svg" viewBox="0 0 46.69 41.58"><defs><style>.cls-1{fill:#fff;}</style></defs><title>hvk-logo</title><g id="Layer_2" data-name="Layer 2"><g id="Layer_2-2" data-name="Layer 2"><path class="cls-1" d="M13.57,12.89V41.58H8.07V13.9a1.29,1.29,0,0,0-2.57,0V41.58H0V0H5.5V11h.14a4,4,0,0,1,3.9-3h.67C11.9,8,13.57,9.29,13.57,12.89Z"/><polygon class="cls-1" points="46.69 41.58 40.89 41.58 37.76 24.15 37.39 24.15 37.39 41.58 31.89 41.58 31.89 0 37.39 0 37.39 23.66 37.73 23.66 40.58 8.44 46.27 8.44 42.83 23.26 46.69 41.58"/><path class="cls-1" d="M30.72,8.47,26.37,41.58h-7.3L14.73,8.47H20s2.44,16.27,2.45,27.22H23c0-10.95,2.45-27.22,2.45-27.22Z"/></g></g></svg>