<svg xmlns="http://www.w3.org/2000/svg" viewBox="0 0 45.57 50.87"><defs><style>.cls-1{fill:#fff;}</style></defs><title>out-of-the-box-logo</title><g id="Layer_2" data-name="Layer 2"><g id="Layer_2-2" data-name="Layer 2"><path class="cls-1" d="M9.15,25.68H8.88c-2.23,0-2.66-3.37-2.8-4.48v0c-.09-1.05-.19-2.56-.28-4.5v-.92A10.49,10.49,0,0,1,7,10.64a1,1,0,0,1,0-.17v-.25L8.5,9.38h.65c.56,0,1,.54,1.62,1.81l0,.05v0a36.75,36.75,0,0,1,.69,7.07c0,5-.61,6.27-1.07,6.76l0,0A2,2,0,0,1,9.15,25.68ZM7.81,22.33c.31,1.3.74,2,1.21,2,0,0,.92-.06.92-5.89v-.09a30.17,30.17,0,0,0-.72-7,3.64,3.64,0,0,0-.4-.61c-.39.3-1,1.18-1.41,3.76l-.13,1.33A57.13,57.13,0,0,0,7.81,22.33Z"/><path class="cls-1" d="M17.37,25.6c-1.41,0-2.3-1.6-2.72-4.9-.46-2.69-.91-6.72-1.34-12l0-.28.6-.33h.31l.08,0a.81.81,0,0,1,.59.78v.22c.38,5.08.85,9.22,1.4,12.31.3,1.69.75,2.73,1.23,2.8.46-.16.46-.37.46-.46,0-1.22-.17-4.35-.51-9.32v-.05c0-.9.06-1.78.06-2.62V10.73l-.09-.42.08-.12c0-.37-.1-.75-.17-1.13l-.06-.31.63-.35h.3c.61,0,.74.85.81,1.72v0a.6.6,0,0,1-.05.24c0,.39.05.69.05.89V12.7h0l0,.48a7.34,7.34,0,0,0-.06.75v.18c.34,5.53.51,8.7.51,9.69v.06A1.88,1.88,0,0,1,17.37,25.6Z"/><path class="cls-1" d="M24.74,24.76h-.25a.82.82,0,0,1-.54-.27l-.15-.13v-.2a3.74,3.74,0,0,1,.06-.48c0-.75-.19-4.16-.57-10.14v0c0-.84,0-1.63-.09-2.34l-2.09.13L21,11.2a.87.87,0,0,1-.35-.7c0-.37.37-.51.53-.57l.12,0,.11,0,.43.07c.82-.05,1.38-.08,1.71-.08h2.6c.53,0,1.07,0,1.61-.08l.19,0,.48.42v.31c0,.58-.68.64-2.21.64H24.68l.11,1.92v.06c0,.15,0,.22-.05.25.37,4.64.56,8,.57,10.11a.61.61,0,0,1,.06.25v.17l0,0,.06.26-.09.15A.64.64,0,0,1,24.74,24.76Z"/><path class="cls-1" d="M41,25.68l-.76-.32-.13-6.59v-.05a1.2,1.2,0,0,0,.05-.29,3.21,3.21,0,0,1-.06-.55c0-.26,0-.7.06-1.33-.13-3.2-.22-5.06-.26-5.54V11l0-.06a5.76,5.76,0,0,0,0-.82,2.42,2.42,0,0,0-.23-1l-.07-.18.08-.17A1.08,1.08,0,0,1,40.45,8l.06,0h.06a3.21,3.21,0,0,1,1,.34c.9.06,1.58.11,2,.17s.93.11,1,.41a.78.78,0,0,1,.1.36c0,.35-.36.51-.52.59l-.11,0H44c-1.07-.09-1.92-.17-2.54-.25a2.38,2.38,0,0,1,0,.3,8.71,8.71,0,0,1-.07,1c.13,2.22.2,4.16.2,5.76h1.48a4,4,0,0,0,.54,0h.09l.08,0c.15,0,.59.15.59.56v.19c0,.54-.7.59-1,.62h0a.86.86,0,0,1-.24,0l-.36,0H41.67c0,2.66.06,4.44.06,5.43,0,.28,0,.83.06,1.64l0,.3Z"/><path class="cls-1" d="M36,25.34h-.23c-2,0-2.37-3.26-2.5-4.33s-.16-2.47-.24-4.33V15.8a11,11,0,0,1,1.08-4.92.76.76,0,0,1,0-.15v-.24l1.3-.83H36c.52,0,.94.51,1.46,1.76l0,0v0a39.81,39.81,0,0,1,.59,6.78c0,4.83-.53,6-.92,6.49l-.05,0A1.69,1.69,0,0,1,36,25.34Zm-1.11-3.23c.26,1.2.63,1.91,1,1.91,0,0,.75-.15.75-5.64v-.09A31.69,31.69,0,0,0,36,11.6a5.49,5.49,0,0,0-.3-.53c-.33.33-.8,1.21-1.16,3.56L34.4,15.9A61,61,0,0,0,34.86,22.11Z"/><path class="cls-1" d="M8,39.11H7.78a.74.74,0,0,1-.49-.24l-.15-.13v-.19a2.14,2.14,0,0,1,.05-.41c0-.62-.16-3.41-.46-8.29v0c0-.66,0-1.27-.07-1.83L5,28.1,4.86,28a.84.84,0,0,1-.32-.64c0-.36.36-.49.49-.54l.12,0,.11,0,.34.06c.67,0,1.13-.06,1.4-.06H9.13c.43,0,.87,0,1.31-.07l.18,0,.45.39v.29c0,.57-.68.6-1.89.6H8l.09,1.5v.06l0,.19c.3,3.78.46,6.56.46,8.25a.48.48,0,0,1,.05.23v.16l0,0,0,.21-.08.14A.6.6,0,0,1,8,39.11Z"/><path class="cls-1" d="M12.64,40h-.1a.77.77,0,0,1-.84-.8c0-.29,0-1.07-.06-2.39v0h0c.12-2.9.27-5.56.46-7.91V28.8a3.11,3.11,0,0,0,0-.56l0-.1,0-.1a.66.66,0,0,0,0-.13L12,27.47v-.06a4.43,4.43,0,0,0,0-.72h0a2.68,2.68,0,0,0,0-.35L12,26l.6-.32h.28c.25,0,.57.14.66.83v.09c0,.58,0,.8,0,.87,0,.33,0,1,0,1.89v.06c-.15,1.55-.24,2.68-.27,3.38h.42l.69,0a46.86,46.86,0,0,1-.2-4.77c0-.22,0-.68.05-1.39a1.19,1.19,0,0,1-.11-.47v-.26l.55-.3h.23c.36,0,.62.28.76.82l0,.07v.07c0,.65-.05,1.16-.05,1.5a50.8,50.8,0,0,0,.57,7.64v0a24,24,0,0,0,.56,3.49l0,.06v.1c0,.17-.08.4-.46.53l-.07,0H16c-.58,0-.9-.57-1.18-3.82-.14-.94-.23-1.61-.27-2l-1.2,0h-.16c-.07,1.43-.1,2.42-.1,2.92,0,.7,0,1.51.12,2.41l0,.28Z"/><path class="cls-1" d="M19.18,40.27l-.08,0-.06,0H19a.92.92,0,0,1-1-.87v-.71c0-1.13.23-4.38.7-9.93v-.14a4.87,4.87,0,0,0-.26-2.15l-.06-.1v-.12c0-.34.32-.49.47-.55l.14-.07.15,0a3.91,3.91,0,0,0,1.13.15c.71,0,1.21,0,1.47,0h.19l.35.38v.32c0,.17-.08.39-.45.53l-.07,0h-.07l-1.51,0H20a13.56,13.56,0,0,1,.09,1.71v0c-.18,1.83-.28,3.07-.32,3.69.28,0,.81.08,1.87.14h.16l.41.4v.33l0,.07a.78.78,0,0,1-.54.43l-.1,0h-.1a13.4,13.4,0,0,0-1.77-.12c-.19,2.34-.29,4-.29,4.86V39l2.23-.17v0a.88.88,0,0,1,.44.29l.1.12v.24c0,.34-.33.49-.47.55l-.08,0h-.62Z"/><path class="cls-1" d="M45.05,40.22H44.9a.8.8,0,0,1-.83-.69A31.22,31.22,0,0,1,42,35.59a4.32,4.32,0,0,1-.42-.66c-.2.7-.48,1.7-.86,3-.23,1.13-.36,1.55-.8,1.55h-.24a.71.71,0,0,1-.53-.33L39,39l.06-.21c1.16-3.88,1.47-5.08,1.54-5.43a66.63,66.63,0,0,1-3.33-6.28l0-.08V26.6l.5-.31H38c.33,0,.51.09,1.57,2.44L41,31.33c.09-.49.2-1.21.35-2.3a18.85,18.85,0,0,1,.6-3l.1-.28h.54a.6.6,0,0,1,.51.33l.06.1v.32c-.31,1.67-.69,3.9-1.12,6.62a42.8,42.8,0,0,1,2.5,4.59l1,1.74v.16c0,.33-.3.48-.42.55Z"/><path class="cls-1" d="M29,40.13h-.14c-.44,0-1.17-.23-1.18-1.71-.42-4.36-.63-7.77-.64-10.13a16.63,16.63,0,0,0-.3-1.87l-.08-.31.27-.16a3.82,3.82,0,0,1,2-.6c.92,0,2.1.5,2.45,2.85v.88A6.31,6.31,0,0,1,29.65,32a3.71,3.71,0,0,1,1.29,1A4.74,4.74,0,0,1,32,35.54v.06a5.45,5.45,0,0,1-1.28,3.65l-.06.06a3.83,3.83,0,0,1-1.68.81Zm-.4-6.84c.13,1.15.3,3,.5,5.5A1.85,1.85,0,0,0,30,38a5.3,5.3,0,0,0,.58-2.31,7.68,7.68,0,0,0-.43-1.45h-.1L30,34a2.42,2.42,0,0,0-1.3-1h-.11Zm-.38-6.55a37,37,0,0,1,.35,4.48A5.54,5.54,0,0,0,29.92,29v-.53c-.15-1.25-.5-1.88-1.06-1.88A1.52,1.52,0,0,0,28.17,26.74Z"/><path class="cls-1" d="M35.51,40.26h-.19c-1.73,0-2-2.87-2.15-3.82S33,34.28,33,32.66v-.77a10,10,0,0,1,.89-4.29s0-.09,0-.13v-.23L35,26.48h.52c.47,0,.85.46,1.29,1.58l0,0v0a35.75,35.75,0,0,1,.5,5.92c0,4.22-.45,5.26-.78,5.68l0,0A1.46,1.46,0,0,1,35.51,40.26Zm-.85-2.87c.25,1.22.57,1.59.73,1.61s.58-.71.58-4.85v-.08a29.56,29.56,0,0,0-.52-5.83l-.2-.35a6.62,6.62,0,0,0-.88,3l-.1,1.1C34.38,34.61,34.51,36.43,34.66,37.39Z"/><path class="cls-1" d="M22.88,46l-.14-.08,0-1.58a.46.46,0,0,0,0-.1.85.85,0,0,1,0-.13c0-.06,0-.17,0-.33,0-.77,0-1.23-.05-1.35h0a1.06,1.06,0,0,0,0-.21.85.85,0,0,0-.05-.26v0c0-.1.07-.15.12-.17h0s.06,0,.19.09c.45,0,.53.06.55.14s0,0,0,.07-.06.1-.09.12h-.05L23,42.08a.51.51,0,0,1,0,.09s0,.13,0,.24c0,.54,0,1,0,1.42h.39c.07,0,.1.07.1.12v0c0,.08-.06.12-.18.13H23c0,.65,0,1.1,0,1.34,0,.07,0,.21,0,.4v.06ZM5.55,46l-.15-.08,0-1.58a.46.46,0,0,0,0-.1.85.85,0,0,1,0-.13c0-.06,0-.17,0-.33,0-1,0-1.27,0-1.35h0s0-.12,0-.21a1.27,1.27,0,0,0,0-.26v0c0-.1.06-.15.12-.17h0s0,0,.18.09c.45,0,.54.06.55.14a.15.15,0,0,1,0,.07c0,.06-.06.1-.09.12h0l-.43-.06v.09s0,.13,0,.24c0,.54,0,1,0,1.42h.38c.07,0,.1.07.1.12v0c0,.08-.06.12-.18.13h-.3c0,.65,0,1.1,0,1.34,0,.07,0,.21,0,.4v.06ZM42,46H41.9a.21.21,0,0,1-.21-.22v-.2c0-.33.05-1.31.15-2.91v0a1.93,1.93,0,0,0-.06-.66v0a.13.13,0,0,1,.09-.12l0,0,0,0a.61.61,0,0,0,.24,0h.36l.06.09V42s0,.07-.08.11H42.1a4,4,0,0,1,0,.55c0,.59-.07,1-.07,1.13l.4,0h0l.08.1V44s-.06.08-.1.1h0l-.38,0c0,.7-.06,1.2-.06,1.47v.14l.47-.05h0a.17.17,0,0,1,.1.08l0,0v.05c0,.07-.07.1-.09.12h-.16ZM7.39,46h0a.21.21,0,0,1-.21-.22v-.2c0-.33,0-1.31.15-2.91v0A1.93,1.93,0,0,0,7.22,42v0a.13.13,0,0,1,.09-.12l0,0,0,0a.61.61,0,0,0,.24,0H8l.06.09V42s0,.07-.08.11H7.54a4.11,4.11,0,0,1,0,.55c0,.58-.07,1-.07,1.13l.4,0h0l.08.1V44s-.06.08-.1.1h0l-.38,0q-.06,1.06-.06,1.47v.14l.47-.05h0a.17.17,0,0,1,.1.08l0,0v.05c0,.06-.06.1-.09.12H7.76Zm36.47,0h0l-.11-.08,0-.16c-.05-.48-.08-1.1-.1-1.81s0-1.23,0-1.39,0-.12,0-.26v0a.28.28,0,0,1,0-.09c0-.08,0-.27.14-.27s.22.23.26.45c.13.44.25.86.35,1.25,0-.25-.06-.53-.1-.84a3.92,3.92,0,0,1,0-.46c0-.16,0-.25,0-.29v0l.11-.08h.09l.11.11v0a1.19,1.19,0,0,0,0,.28c0,.19.08.92.25,2.16l.11,1.2h0a.15.15,0,0,1-.16.12c-.08,0-.13,0-.3-.89-.07-.24-.21-.79-.41-1.62,0-.11-.07-.2-.1-.3,0,.24,0,.55,0,1,0,.7,0,1.34.09,1.9v.06A.18.18,0,0,1,43.86,46Zm-3.15,0h-.09l-.1-.08v0c0-.15,0-.27,0-.35V45.1a1.62,1.62,0,0,0-.25-.83.69.69,0,0,0-.17-.13v.71c0,.38,0,.6,0,.65v.06a.16.16,0,0,1-.15.09c-.05,0-.08,0-.12-.07l0,0,0-.12c0-.32,0-.53,0-.64v-.63l-.07-.07V44a.15.15,0,0,1,0-.06c0-1-.09-1.77-.14-2.24v0l.11-.08h.09l0,0s0,0,.15,0h0a.77.77,0,0,1,.4.36,2.23,2.23,0,0,1,.21.74v.12a1.45,1.45,0,0,1-.37,1.07c.3.15.47.56.52,1.22v.45c0,.07,0,.16,0,.28v.05ZM40,41.9c0,.51.08,1.11.11,1.82a1.06,1.06,0,0,0,.29-.81v-.16a1.59,1.59,0,0,0-.24-.72A.69.69,0,0,0,40,41.9ZM38,46h0c-.1,0-.15-.07-.15-.13v-.1a.21.21,0,0,0,0-.1.31.31,0,0,1,0-.08v0s0,0,0,0,0-.15,0-.21c0-2.35-.16-3.09-.29-3.29l0,0v-.05a.13.13,0,0,1,.09-.12h.15l0,0a.7.7,0,0,0,.24.11h0a1.1,1.1,0,0,1,.5.62,2.38,2.38,0,0,1,.12.64v.35s0,0,0,.07h0a6.19,6.19,0,0,1-.2,1.44,2.18,2.18,0,0,1-.26.63C38.15,46,38.1,46,38,46Zm0-3.77a15,15,0,0,1,.2,3,5.87,5.87,0,0,0,.18-.66c0-.25.07-.56.09-.93a2.34,2.34,0,0,0-.19-1.14v0A.7.7,0,0,0,38,42.22ZM36.53,46H36a.13.13,0,0,1-.11-.09l0,0v-.09a.34.34,0,0,1,0-.1v-1c0-1-.06-1.86-.09-2.52l0-.4h0a.15.15,0,0,1,.16-.12.15.15,0,0,1,.13.08v0a.15.15,0,0,1,0,.07h0c.06.84.08,1.56.08,2.14a5.15,5.15,0,0,1,0,.77v.92h.54s.07,0,.11.08v.08C36.81,46,36.62,46,36.53,46Zm-2,0h0c-.13,0-.14-.17-.14-.4,0-1.33,0-2.27.07-2.77V42.5a3.38,3.38,0,0,0,0-.47h0c0-.07.06-.1.08-.12h.07c.12,0,.17.1.17.69v.15c0,.16,0,.54-.07,1.18a.13.13,0,0,0,0,.06v0h0c0,.4,0,.72,0,1v.76l0,.09v0C34.68,46,34.62,46,34.57,46Zm-2,0h0a.17.17,0,0,1-.17-.19c0-.08,0-.31,0-.67,0-.81,0-1.56.09-2.22v0a1.09,1.09,0,0,0,0-.17h0v0a.13.13,0,0,0,0-.06v-.11h0a1.55,1.55,0,0,0,0-.21.66.66,0,0,0,0-.11v0l.1-.08h.07c.11,0,.12.14.13.2s0,.23,0,.27,0,.27,0,.53c0,.46,0,.8-.06,1h.23c0-.37,0-.83,0-1.36,0-.07,0-.2,0-.4a.25.25,0,0,1,0-.12v0l.1-.07H33c.12,0,.14.14.15.21h0c0,.19,0,.33,0,.43a18.92,18.92,0,0,0,.12,2.14c0,.48.08.81.11,1h0c0,.05,0,.09-.09.13h-.07c-.11,0-.18-.07-.23-1q0-.42-.06-.6h-.27c0,.42,0,.71,0,.86s0,.42,0,.67v0ZM31,46h0a.85.85,0,0,1-.41-.21c-.09-.07-.24-.3-.39-1.37a5.05,5.05,0,0,1-.05-.83v-.07c0-.82.15-1.31.41-1.51h0a.63.63,0,0,1,.25-.09h.08c.25,0,.3.15.3.23a.13.13,0,0,1-.09.12l0,0H31l0,0a.18.18,0,0,0-.08-.06c-.19.07-.22.11-.22.12v0a2.63,2.63,0,0,0-.22,1.16v.2a6.7,6.7,0,0,0,.14,1.22,1.68,1.68,0,0,0,.21.68.47.47,0,0,0,.25.13c.08,0,.19-.07.3-.22l0,0h.07a.11.11,0,0,1,.11.08v.06c0,.11-.09.21-.29.34A.6.6,0,0,1,31,46Zm-5.94,0H25c-.27,0-.42-.35-.49-1.09,0-.26,0-.63,0-1.1v-.22a3.44,3.44,0,0,1,.22-1.25.07.07,0,0,1,0,0v0L25,42h.13c.1,0,.19.12.29.44a12.68,12.68,0,0,1,.12,1.73c0,1.22-.1,1.52-.18,1.64A.34.34,0,0,1,25.09,46Zm-.29-2.72,0,.34c0,.77.06,1.3.09,1.59.08.5.19.5.19.5s.15-.16.15-1.46v0a11,11,0,0,0-.12-1.72L25,42.36A2.12,2.12,0,0,0,24.8,43.27ZM19.7,46h-.53c-.06,0-.1-.06-.12-.09v-.11a.34.34,0,0,1,0-.1v-1c0-1-.06-1.85-.09-2.52l0-.4h0a.15.15,0,0,1,.16-.12.18.18,0,0,1,.13.08v0a.15.15,0,0,1,0,.07h0c.05.84.08,1.56.08,2.14a7,7,0,0,1,0,.77v.92h.53a.14.14,0,0,1,.12.08v.08C20,46,19.8,46,19.7,46Zm-3,0h0a.19.19,0,0,1-.19-.21q.09-1.23.09-1.47c0-.1,0-.21,0-.32a12.51,12.51,0,0,1,.14-1.78h0c0-.08.07-.34.25-.34H17a.71.71,0,0,1,.32.46,12.07,12.07,0,0,1,.48,2.56,4.32,4.32,0,0,1,.1.89v0a.16.16,0,0,1-.16.09h-.05l0,0a5,5,0,0,1-.14-.94,5.42,5.42,0,0,1-.11-.7h0a4.23,4.23,0,0,0-.53.08v.41l-.08,1.06a.15.15,0,0,1,0,.09.17.17,0,0,1-.09.13Zm.17-2.12V44a2.4,2.4,0,0,1,.52-.07A8.88,8.88,0,0,0,17,42.35l0,0a7.64,7.64,0,0,0-.12,1.47v.09ZM15.1,46H15c-.09,0-.13,0-.21-.74a20.55,20.55,0,0,1-.3-3l0-.16c0-.06.07-.1.09-.12h.07c.11,0,.19.07.19,1,.06.69.12,1.27.18,1.73.05-.5.14-1.27.26-2.32,0-.38.05-.47.16-.47h0s.09,0,.12.1v0l-.35,3.12c0,.83-.05.89-.13.9Zm-1.83,0h0c-.12,0-.13-.17-.13-.4,0-1.33,0-2.26.07-2.77V42.5a3.3,3.3,0,0,0,0-.47h0c0-.07.06-.1.09-.12h.07c.11,0,.16.1.16.69v.15c0,.16,0,.55-.07,1.18,0,0,0,0,0,.06v0h0c0,.4,0,.72,0,1v.76l0,.09v0C13.38,46,13.32,46,13.27,46ZM9.48,46a.16.16,0,0,1-.16-.09v-.07c0-.11.12-.12.19-.13.29-.11.32-.2.32-.22v0a1.15,1.15,0,0,0,.09-.5,1.18,1.18,0,0,0-.37-.8,2.29,2.29,0,0,1-.47-.46,1.52,1.52,0,0,1-.22-.63h0s0-.09,0-.14A1.73,1.73,0,0,1,9,42.19H9a.79.79,0,0,1,.7-.27h0l.08.1v.05c0,.06-.05.09-.1.13H9.56a.33.33,0,0,0-.34.18,1.44,1.44,0,0,0-.09.53,2.14,2.14,0,0,0,.16.58,3.3,3.3,0,0,0,.6.6h0a1.49,1.49,0,0,1,.31.87,1.52,1.52,0,0,1-.15.66.63.63,0,0,1-.39.3A.41.41,0,0,1,9.48,46Zm2-.32h0a.15.15,0,0,1-.11-.07l0,0v0a.83.83,0,0,1,0-.12c0-.15,0-1-.1-2.48,0-.22,0-.42,0-.59l-.38,0,0,0a.2.2,0,0,1-.06-.15c0-.07.07-.1.1-.12h.06l.07,0,.31,0h.47a1.37,1.37,0,0,0,.29,0h0l.08.1v.06c0,.12-.17.13-.41.13h-.27l0,.49h0a.35.35,0,0,1,0,.07c.07,1.14.11,2,.11,2.48a.13.13,0,0,1,0,.06v.13A.11.11,0,0,1,11.52,45.67Z"/><path class="cls-1" d="M27.6,45.87c0-.12,0-.21,0-.28v-.45c-.05-.66-.22-1.07-.51-1.22a1.47,1.47,0,0,0,.36-1.07v-.12a2,2,0,0,0-.21-.74.73.73,0,0,0-.4-.36h0c-.14,0-.16,0-.16,0l0,0h-.1l-.11.08v0c.06.46.11,1.22.15,2.24a.1.1,0,0,0-.05.06v.11a.13.13,0,0,0,.06.07v.63c0,.11,0,.33,0,.64v.12l0,0a.19.19,0,0,0,.13.07.15.15,0,0,0,.14-.09V45.5s0-.26,0-.65v-.44c0-.06,0-.15,0-.27a.7.7,0,0,1,.18.13,1.72,1.72,0,0,1,.25.83v.42c0,.08,0,.2,0,.35v0l.1.08h.09l.1-.07Zm-.74-2.13c0-.72-.08-1.34-.12-1.85a.56.56,0,0,1,.19.13,1.66,1.66,0,0,1,.24.73v.16A1.05,1.05,0,0,1,26.86,43.74Z"/><path class="cls-1" d="M5.38,46.92a.75.75,0,0,0,.26,0H6l0,0v0s0,0,0,0H5.48a3.35,3.35,0,0,1,0,.62c0,.66-.07,1.05-.07,1.17a1.65,1.65,0,0,0,.48.07l0,0v0s0,0-.06,0a2.86,2.86,0,0,0-.46,0c-.05.74-.07,1.24-.07,1.52v.2s0,0,0,0h0l.44,0H5.9s0,0,0,0v0l0,0H5.79l-.35,0H5.38c-.08,0-.12,0-.12-.14v-.19c0-.32,0-1.27.14-2.85v0A2.34,2.34,0,0,0,5.34,47S5.35,46.94,5.38,46.92Z"/><path class="cls-1" d="M7.5,47h0s.08.2.08.6v.15c0,.15,0,.53-.07,1.15a.28.28,0,0,0,0,.09c0,.39,0,.71,0,.94v.73a.35.35,0,0,0,0,.12c0,.05,0,.08,0,.08h0s0-.1,0-.31c0-1.31,0-2.21.07-2.71v-.31a3.43,3.43,0,0,0,0-.48S7.47,47,7.5,47Z"/><path class="cls-1" d="M9.49,47.15h0a.41.41,0,0,1,.34.16v0s0,0,0,.05l-.15-.08a.26.26,0,0,0-.15,0h0c-.23.06-.34.7-.34,1.94a3.56,3.56,0,0,0,.2,1.34.47.47,0,0,0,.26.21h.05c.14,0,.2-.08.2-.17A2,2,0,0,0,10,49.9v-.61h0a1.33,1.33,0,0,1-.45-.06v-.06h0a.05.05,0,0,1,0,0h0a2.27,2.27,0,0,0,.49.07s0,.1,0,.22v.28a1.36,1.36,0,0,1,0,.18.08.08,0,0,1,0,0c-.05.59-.14.89-.26.89s-.06,0-.17.06H9.58a.57.57,0,0,1-.32-.22A3.19,3.19,0,0,1,9,49.19c0-1.25.12-1.92.37-2Z"/><path class="cls-1" d="M12.06,46.88h0s.06,0,.07.15,0,.35,0,.45a21.29,21.29,0,0,0,.12,2.27c.05.51.09.86.13,1v0l0,0h0c-.06,0-.11-.33-.16-1,0-.37-.06-.61-.06-.71h-.46c0,.5,0,.83,0,1s0,.45,0,.72l-.05,0c-.05,0-.08,0-.08-.11s0-.32,0-.71c0-.85,0-1.63.09-2.33v0a1.42,1.42,0,0,0,0-.19.25.25,0,0,0,0-.08V47.3a1.93,1.93,0,0,0,0-.24.94.94,0,0,0,0-.12l0,0h0s0,0,0,.13,0,.23,0,.27,0,.29,0,.56c0,.57-.06,1-.06,1.13h.43v-.05c0-.4-.05-.89-.05-1.47,0-.07,0-.21,0-.44a.43.43,0,0,1,0-.11Z"/><path class="cls-1" d="M14.63,47.18l0,0v0s-.1,0-.31,0H14s0,0,0,0l0,.52a.45.45,0,0,0,0,.08c.06,1.14.1,2,.1,2.46a0,0,0,0,1,0,0,0,0,0,0,0,0,0v.07s0,0,0,0H14l0,0a.59.59,0,0,1,0-.11c0-.16,0-1-.11-2.45,0-.24,0-.46,0-.65l0,0h0l-.37,0a.16.16,0,0,1,0-.09s0,0,0,0l.09,0a2.16,2.16,0,0,1,.31,0h.47Z"/><path class="cls-1" d="M18.71,47.15h0s0,0,0,.05h0c-.06.54-.12,1.07-.19,1.58v.11A6.36,6.36,0,0,0,18.47,50c0,.37,0,.65-.08.84h-.06a.15.15,0,0,1,0-.06q.12-1.48.18-2a7.71,7.71,0,0,0-.81-1.34q-.09-.06-.09-.12v0s0,0,.05-.05h0s.05.05.07.11a6.57,6.57,0,0,1,.75,1.19h0c.08-.72.14-1.2.18-1.46Z"/><path class="cls-1" d="M20.1,46.92a.71.71,0,0,0,.26,0h.31l0,0v0s0,0,0,0H20.2a4.88,4.88,0,0,1,0,.62q-.06,1-.06,1.17a1.62,1.62,0,0,0,.47.07l0,0v0l-.06,0a2.86,2.86,0,0,0-.46,0c-.05.74-.07,1.24-.07,1.52v.2s0,0,0,0h0l.43,0h.07s0,0,.05,0v0l-.05,0h-.11l-.35,0H20.1c-.08,0-.12,0-.13-.14v-.19q0-.48.15-2.85v0a1.94,1.94,0,0,0-.07-.68S20.07,46.94,20.1,46.92Z"/><path class="cls-1" d="M22.36,47h0a.65.65,0,0,1,.28.4,12.23,12.23,0,0,1,.46,2.49,4.21,4.21,0,0,1,.1.86s0,0-.07,0a5.3,5.3,0,0,1-.14-.9,6.46,6.46,0,0,1-.11-.75H22.8c-.41,0-.61.08-.61.12v.44l-.08,1.05a.13.13,0,0,1,0,.08s0,0-.06,0-.1,0-.1-.13q.09-1.18.09-1.44c0-.1,0-.21,0-.31a13.41,13.41,0,0,1,.14-1.73C22.23,47.09,22.29,47,22.36,47Zm0,.15a6.71,6.71,0,0,0-.16,1.64,1.16,1.16,0,0,0,0,.28v0a2.73,2.73,0,0,1,.68-.1h0a8.18,8.18,0,0,0-.37-1.64C22.44,47.23,22.4,47.16,22.36,47.15Z"/><path class="cls-1" d="M24.55,46.68h0s.09,0,.2.07a.72.72,0,0,1,.35.32,2.07,2.07,0,0,1,.2.69v.12A1.29,1.29,0,0,1,24.89,49c.33.08.52.47.57,1.18v.43c0,.07,0,.16,0,.28l0,0h0l-.05,0c0-.15,0-.26,0-.34v-.4a1.78,1.78,0,0,0-.26-.88.53.53,0,0,0-.32-.17h0c0,.17,0,.29,0,.37v.43q0,.55,0,.63v0s0,0-.07,0l-.06,0v-.08c0-.32,0-.53,0-.63V49.1a.08.08,0,0,1-.07-.05v0s0-.05.06-.05q-.06-1.55-.15-2.25Zm.09.16c0,.56.08,1.24.12,2.06a1.08,1.08,0,0,0,.44-1v-.16A1.67,1.67,0,0,0,25,47a.55.55,0,0,0-.28-.17Z"/><path class="cls-1" d="M27.26,47l0,0v0l-.05.06h-.12a.39.39,0,0,0-.4.22,1.38,1.38,0,0,0-.1.55,2.26,2.26,0,0,0,.16.61,4.77,4.77,0,0,0,.62.61,1.47,1.47,0,0,1,.28.81,1.5,1.5,0,0,1-.14.61.52.52,0,0,1-.34.24.32.32,0,0,1-.16.06.1.1,0,0,1-.08,0v0s.05,0,.13,0c.25-.09.37-.19.37-.3a1.13,1.13,0,0,0,.11-.53,1.21,1.21,0,0,0-.39-.83,2.37,2.37,0,0,1-.45-.45,1.45,1.45,0,0,1-.21-.58.86.86,0,0,0,0-.15,1.51,1.51,0,0,1,.14-.65A.69.69,0,0,1,27.26,47Z"/><path class="cls-1" d="M31.22,47.69c.2,0,.31.12.31.27v0a2,2,0,0,1-.37.65h0a5.15,5.15,0,0,0,.5.77h0c0-.37.09-.55.16-.55h0l0,0-.07.15c-.05.29-.08.46-.08.52.29.38.45.6.49.67h0s0,0,0,.05-.11-.07-.19-.2-.13-.16-.29-.38c-.11.37-.27.55-.49.55a.52.52,0,0,1-.47-.26.61.61,0,0,1-.07-.28A2.23,2.23,0,0,1,31,48.65,1.65,1.65,0,0,1,30.7,48v0c0-.14.12-.23.37-.28Zm-.41.32a1.19,1.19,0,0,0,.28.52h0a2,2,0,0,0,.3-.54h0q0-.18-.18-.18Q30.81,47.85,30.81,48Zm.27.75a2.35,2.35,0,0,0-.27,1c0,.24.14.38.43.42s.32-.2.4-.59A6.31,6.31,0,0,1,31.08,48.76Z"/><path class="cls-1" d="M35.27,46.88h0a.09.09,0,0,1,.05.09V47c.07,1.22.16,2.21.25,3,.07.51.17.76.31.76a.21.21,0,0,0,.15-.21q0-.45-.09-2.25c0-.21,0-.43,0-.63V47.3c0-.1,0-.21,0-.32L36,47h0s.06.1.07.31c0,0,0,0,0,0s0,.19,0,.25V48h0a1.58,1.58,0,0,0,0,.19v0c.06,1.31.09,2.08.09,2.32s-.12.33-.29.33-.34-.37-.41-1.09-.17-1.6-.24-2.87Z"/><path class="cls-1" d="M38.28,47h0l0,0a1.23,1.23,0,0,0,0,.28c0,.19.08.9.25,2.13l.1,1.16s0,.05-.08.05-.11-.26-.22-.8c-.06-.25-.2-.78-.39-1.6a5.59,5.59,0,0,1-.25-.86h0v.14c0,.15,0,.61,0,1.38s0,1.32.09,1.87v0s0,0-.08,0l0,0v-.1c0-.49-.08-1.09-.09-1.79s0-1.2,0-1.36,0-.12,0-.26v0s0-.06,0-.09,0-.19.06-.19.13.13.17.38c.26.85.45,1.59.59,2.23,0,.17.07.26.07.27h0c0-.36-.13-1.07-.26-2.13a3.52,3.52,0,0,1,0-.44c0-.15,0-.24,0-.28Z"/><path class="cls-1" d="M39.94,46.93H40a.65.65,0,0,0,.27.13,1.07,1.07,0,0,1,.45.57,2,2,0,0,1,.11.6v.34a.29.29,0,0,0,0,.09,5.34,5.34,0,0,1-.21,1.39,2.1,2.1,0,0,1-.24.6c-.1.15-.16.22-.18.22s-.08,0-.08,0v0a.29.29,0,0,0,.06-.16.11.11,0,0,1,0-.07s0,0,0,0a2.27,2.27,0,0,1,0-.24A9,9,0,0,0,39.89,47v0Zm.13.17v0a12.61,12.61,0,0,1,.24,3.15v0c0,.15,0,.24,0,.25a2.82,2.82,0,0,0,.33-1,9.24,9.24,0,0,0,.09-.92,2.36,2.36,0,0,0-.2-1.18A.85.85,0,0,0,40.07,47.1Z"/><path class="cls-1" d="M42.27,46.92a.75.75,0,0,0,.26,0h.31l0,0v0s0,0,0,0h-.46a3.35,3.35,0,0,1,0,.62c0,.66-.07,1.05-.07,1.17a1.65,1.65,0,0,0,.48.07l0,0v0s0,0-.06,0a2.86,2.86,0,0,0-.46,0c0,.74-.07,1.24-.07,1.52v.2s0,0,0,0h0l.43,0h.07s0,0,.05,0v0l-.05,0h-.11l-.35,0h-.06c-.08,0-.12,0-.12-.14v-.19c0-.32.05-1.27.14-2.85v0a2.34,2.34,0,0,0-.06-.68S42.24,46.94,42.27,46.92Z"/><path class="cls-1" d="M44.18,46.68h0s.08,0,.2.07a.77.77,0,0,1,.35.32,2,2,0,0,1,.19.69v.12A1.26,1.26,0,0,1,44.52,49c.34.08.53.47.58,1.18v.43c0,.07,0,.16,0,.28l0,0h0l0,0c0-.15,0-.26,0-.34v-.4a1.78,1.78,0,0,0-.26-.88.53.53,0,0,0-.32-.17h0c0,.17,0,.29,0,.37v.43c0,.37,0,.58,0,.63v0a.08.08,0,0,1-.07,0s0,0,0,0v-.08c0-.32,0-.53,0-.63V49.1a.07.07,0,0,1-.07-.05v0s0-.05.05-.05c0-1-.08-1.78-.14-2.25Zm.09.16c0,.56.09,1.24.13,2.06a1.1,1.1,0,0,0,.44-1v-.16a1.67,1.67,0,0,0-.25-.76.55.55,0,0,0-.28-.17Z"/><path class="cls-1" d="M3.27,3.17a5.24,5.24,0,0,0-.07,1v.13a1.88,1.88,0,0,1,.33,0A6.08,6.08,0,0,0,3.27,3.17Zm0,0a5.24,5.24,0,0,0-.07,1v.13a1.88,1.88,0,0,1,.33,0A6.08,6.08,0,0,0,3.27,3.17ZM1.21,3h0c-.07,0-.08,0-.08,0s-.1.22-.1.68c0,1,.11,1.33.2,1.4v0s0,.06.11.06a.11.11,0,0,0,0,0c-.21-.32-.21-.34-.21-.36a.12.12,0,0,1,.06-.1h.09a.62.62,0,0,1,.12.16s0,0,0,0V4.37A4.07,4.07,0,0,0,1.21,3ZM2.33,3,2.27,3l0,1.31v.15a.21.21,0,0,0,.08-.06s.13-.13.2-.9a1.53,1.53,0,0,0,0-.18A.38.38,0,0,0,2.33,3Zm.94.15a5.24,5.24,0,0,0-.07,1v.13a1.88,1.88,0,0,1,.33,0A6.08,6.08,0,0,0,3.27,3.17Zm0,0a5.24,5.24,0,0,0-.07,1v.13a1.88,1.88,0,0,1,.33,0A6.08,6.08,0,0,0,3.27,3.17ZM2.33,3,2.27,3l0,1.31v.15a.21.21,0,0,0,.08-.06s.13-.13.2-.9a1.53,1.53,0,0,0,0-.18A.38.38,0,0,0,2.33,3ZM1.21,3h0c-.07,0-.08,0-.08,0s-.1.22-.1.68c0,1,.11,1.33.2,1.4v0s0,.06.11.06a.11.11,0,0,0,0,0c-.21-.32-.21-.34-.21-.36a.12.12,0,0,1,.06-.1h.09a.62.62,0,0,1,.12.16s0,0,0,0V4.37A4.07,4.07,0,0,0,1.21,3Zm5.6-1.73A4.31,4.31,0,0,0,3.93,0,4.74,4.74,0,0,0,1.69.75,3.52,3.52,0,0,0,.07,3,5.37,5.37,0,0,0,.74,6.71a9.76,9.76,0,0,0,3,2.56A4.88,4.88,0,0,0,5.47,8.08a10.22,10.22,0,0,0,2-3.22A4.65,4.65,0,0,0,6.81,1.29ZM1.72,5.59H1.63a.92.92,0,0,1-.16-.24.21.21,0,0,1-.14.07c-.27,0-.42-.26-.49-.8a7.52,7.52,0,0,1,0-.89C.8,3.24.86,3,1,2.87a.48.48,0,0,1,.21-.08c.18,0,.25.27.29.47a4.36,4.36,0,0,1,.13,1.16v.39a1.6,1.6,0,0,1,0,.33c.2.31.2.34.2.36A.09.09,0,0,1,1.72,5.59Zm.84-1.17a.58.58,0,0,1-.25.24H2.25a.45.45,0,0,0,0,.13.45.45,0,0,0,0,.08c0,.25,0,.4,0,.47a.12.12,0,0,1,0,.09v0a.14.14,0,0,1-.08.1h0a.1.1,0,0,1-.1-.06V5.4s0-.09,0-.15V5.18h0V4.66a.12.12,0,0,1,0-.08l0-.06c0-.11,0-.18,0-.21l0-1.37a.08.08,0,0,1,0,0v0s.05-.08.06-.09h0a.55.55,0,0,1,.55.37.6.6,0,0,1,0,.2A3.65,3.65,0,0,1,2.56,4.42ZM3.88,5.48a.12.12,0,0,1-.11.07h0l0,0a2.3,2.3,0,0,1-.1-.63s0-.09-.07-.46h0a1.84,1.84,0,0,0-.34,0v.27l0,.7a.13.13,0,0,1,0,.06.11.11,0,0,1-.06.09h0a.13.13,0,0,1-.14-.15c0-.54.06-.87.06-1V4.27a8.12,8.12,0,0,1,.09-1.18c0-.06.05-.23.17-.23h0a.49.49,0,0,1,.22.31,8.6,8.6,0,0,1,.32,1.7,3.37,3.37,0,0,1,.06.59ZM5,5.56a.41.41,0,0,1-.17,0,.5.5,0,0,1-.28-.14c-.08,0-.17-.21-.26-.91a2.49,2.49,0,0,1,0-.56V4c0-.55.1-.88.28-1a.51.51,0,0,1,.18-.07h0C4.91,2.9,5,3,5,3s0,.07-.07.08H4.79l0,0s0,0,0,0-.14.07-.14.07v0a1.62,1.62,0,0,0-.15.77v.13a4.33,4.33,0,0,0,.09.8,1.12,1.12,0,0,0,.14.45.25.25,0,0,0,.16.08s.12,0,.2-.14v0h.06a.09.09,0,0,1,.08,0v0C5.18,5.4,5.11,5.47,5,5.56ZM5.63,3a2.19,2.19,0,0,1-.16.51v0l0,0h0a.12.12,0,0,1-.1-.07V3.4q.06-.23.12-.48v0l.06,0h0a.11.11,0,0,1,.09.06V3Zm.72,2.46a.33.33,0,0,1-.2.15l-.09,0A.1.1,0,0,1,6,5.54v0a.1.1,0,0,1,.1-.1c.12,0,.13-.08.13-.08v0a.62.62,0,0,0,0-.22.55.55,0,0,0-.17-.35.72.72,0,0,1-.21-.22s-.07-.08-.11-.29a.22.22,0,0,0,0-.08.74.74,0,0,1,.07-.34.41.41,0,0,1,.35-.14h0l0,.06v0a.09.09,0,0,1-.06.09H6.09c-.09,0-.12,0-.13.07a.85.85,0,0,0,0,.23A1.25,1.25,0,0,0,6,4.42s0,0,.28.26a.77.77,0,0,1,.15.43A.7.7,0,0,1,6.35,5.42ZM3.2,4.13v.13a1.88,1.88,0,0,1,.33,0,6.08,6.08,0,0,0-.25-1A5.24,5.24,0,0,0,3.2,4.13ZM2.33,3,2.27,3l0,1.31v.15a.21.21,0,0,0,.08-.06s.13-.13.2-.9a1.53,1.53,0,0,0,0-.18A.38.38,0,0,0,2.33,3ZM1.19,3c-.07,0-.08,0-.08,0s-.1.22-.1.68c0,1,.11,1.33.2,1.4v0s0,.06.11.06a.11.11,0,0,0,0,0c-.21-.32-.21-.34-.21-.36a.12.12,0,0,1,.06-.1h.09a.62.62,0,0,1,.12.16s0,0,0,0V4.37A4.07,4.07,0,0,0,1.21,3ZM2.33,3,2.27,3l0,1.31v.15a.21.21,0,0,0,.08-.06s.13-.13.2-.9a1.53,1.53,0,0,0,0-.18A.38.38,0,0,0,2.33,3Zm.94.15a5.24,5.24,0,0,0-.07,1v.13a1.88,1.88,0,0,1,.33,0A6.08,6.08,0,0,0,3.27,3.17Zm0,0a5.24,5.24,0,0,0-.07,1v.13a1.88,1.88,0,0,1,.33,0A6.08,6.08,0,0,0,3.27,3.17ZM2.33,3,2.27,3l0,1.31v.15a.21.21,0,0,0,.08-.06s.13-.13.2-.9a1.53,1.53,0,0,0,0-.18A.38.38,0,0,0,2.33,3Z"/><path class="cls-1" d="M3.81,9.06,4,9.7l.14.42.12.34a.49.49,0,0,1-.37,0c-.19-.08-.29-.19-.44-.19H3.19a5.65,5.65,0,0,0,.34-.54c.08-.17.28-.71.28-.71"/><path class="cls-1" d="M4.44,9.14a1.29,1.29,0,0,0-.29,0h0c-.07,0-.11,0-.14.08l0,0a2.4,2.4,0,0,1,.28,0h.15a.39.39,0,0,0,.15,0c.06,0,.07,0,.06-.08H4.44M3.09,9.06c0,.11,0,.22.07.25a1.25,1.25,0,0,0,.52.09V9.32c0-.09,0-.13-.1-.18a.65.65,0,0,0-.49-.08m2.1,17.17h0s-.06.13-.05.19a.34.34,0,0,0,.16.15l.08.06,0,0,0,0v0a.62.62,0,0,1,0-.13.17.17,0,0,0,0-.07.26.26,0,0,0,0-.1l0,0c0-.07-.07-.08-.1-.08m.47.69h0a.48.48,0,0,0,0-.12,1.15,1.15,0,0,1,0-.2,1,1,0,0,1,0-.17.86.86,0,0,0,0-.27.13.13,0,0,0-.11.11.65.65,0,0,0,0,.24v.17a.58.58,0,0,0,0,.19v0m-.53,2a.53.53,0,0,1-.25-.05l-.14-.05a2.2,2.2,0,0,1-.31-.15,1.43,1.43,0,0,1-.41-.5,2.36,2.36,0,0,1-.19-.64l0-.11a1.57,1.57,0,0,1,0-.23l-.09-.43a3.1,3.1,0,0,1-.1-.75c0-.31,0-.61,0-.91s0-.64,0-1c0-.56,0-1.14,0-1.71v-5.7c0-1.09,0-2,0-2.85q0-.37.06-.75c0-.29,0-.59,0-.88s0-.41,0-.6l0-.46V9.86a1.08,1.08,0,0,0,0-.32,1.65,1.65,0,0,1-.61-.1C3,9.37,2.93,9.16,3,9A.07.07,0,0,1,3,9,.75.75,0,0,1,3.64,9a.25.25,0,0,1,.17.24h0a.35.35,0,0,1,.05-.08A.32.32,0,0,1,4.1,9h0a1.4,1.4,0,0,1,.54,0,.06.06,0,0,1,0,.06c0,.15,0,.23-.14.28a.44.44,0,0,1-.19,0H4.24a1.42,1.42,0,0,0-.4.08,1,1,0,0,1,.05.39v.44q0,.43,0,.87c0,.16,0,.31,0,.47s0,.39,0,.59a6.55,6.55,0,0,1,0,.89c0,.25,0,.5,0,.74,0,.86,0,1.77,0,2.86v2.87c0,.94,0,1.88,0,2.82v1.72c0,.31,0,.63,0,.95s0,.61,0,.92a2.88,2.88,0,0,0,.1.72l.09.44c0,.07,0,.15,0,.23l0,.11a2.14,2.14,0,0,0,.18.59,1.3,1.3,0,0,0,.37.46,1.82,1.82,0,0,0,.28.13l.15.06a.85.85,0,0,0,.92-.34,1,1,0,0,0,.07-.49v-.08a.24.24,0,0,0,0-.12l0-.09v-.09a.15.15,0,0,0,0-.09,1.1,1.1,0,0,0-.15-.25h0a.08.08,0,0,1,0-.08L5.5,27a1.37,1.37,0,0,0-.22-.2l0,0-.08,0A.43.43,0,0,1,5,26.46a.37.37,0,0,1,.11-.34.23.23,0,0,1,.33.12l0,0a.42.42,0,0,1,.07.15.55.55,0,0,1,0-.18A.26.26,0,0,1,5.82,26a.09.09,0,0,1,.06.06.79.79,0,0,1,0,.37l0,.16a1,1,0,0,0,0,.17,1.14,1.14,0,0,1,0,.27,1.55,1.55,0,0,1,.2.32.36.36,0,0,1,0,.14.13.13,0,0,0,0,.06.19.19,0,0,0,0,.08.57.57,0,0,1,0,.15v.08a1.08,1.08,0,0,1-.08.56,1,1,0,0,1-.85.45"/></g></g></svg>