<svg xmlns="http://www.w3.org/2000/svg" viewBox="0 0 97.35 36.64"><defs><style>.cls-1{fill:#fff;}</style></defs><title>qpac-logo</title><g id="Layer_2" data-name="Layer 2"><g id="Layer_2-2" data-name="Layer 2"><path class="cls-1" d="M30.4,21.19a1.17,1.17,0,0,1-.71.2c-1.14,0-1.33-1.1-1.33-2.14s.19-2.15,1.33-2.15S31,18.21,31,19.25a3.14,3.14,0,0,1-.33,1.63l.41.38-.28.3Zm-.73-.67.28-.31.38.35a3.78,3.78,0,0,0,.16-1.31c0-1-.09-1.73-.8-1.73s-.8.77-.8,1.73S29,21,29.69,21a.74.74,0,0,0,.38-.1Z"/><path class="cls-1" d="M31.73,17.18h.51v2.91c0,.6.2.89.7.89s.71-.31.71-.89V17.18h.51v2.91a1.15,1.15,0,0,1-1.22,1.3c-.82,0-1.21-.45-1.21-1.3Z"/><path class="cls-1" d="M34.93,17.18h2.13v.45H35.44v1.3H37v.45H35.44v1.48h1.69v.45h-2.2Z"/><path class="cls-1" d="M37.75,17.18h2.14v.45H38.26v1.3h1.53v.45H38.26v1.48H40v.45H37.75Z"/><path class="cls-1" d="M40.57,17.18h.66l1.37,3.45h0V17.18h.51v4.13h-.7L41.1,18h0v3.34h-.51Z"/><path class="cls-1" d="M45.69,18.25c0-.43-.16-.73-.64-.73a.62.62,0,0,0-.69.67c0,1.16,2,.47,2,2A1.16,1.16,0,0,1,45,21.39c-1,0-1.25-.49-1.25-1.37h.51c0,.46,0,1,.77,1a.7.7,0,0,0,.72-.73c0-1.17-2-.49-2-2A1.08,1.08,0,0,1,45,17.1a1,1,0,0,1,1.16,1.15Z"/><path class="cls-1" d="M50.85,17.18h-.69L49.1,20.86H47.48V17.18H47v4.13H49.5l.31-1.13h1.32l.3,1.13H52Zm-.93,2.58.57-2h0l.53,2Z"/><path class="cls-1" d="M52.39,17.18h.66l1.37,3.45h0V17.18h.51v4.13h-.7L52.91,18h0v3.34h-.51Z"/><path class="cls-1" d="M55.8,17.18h1.11c1.29,0,1.45.93,1.45,2.07s-.26,2.06-1.4,2.06H55.8Zm.51,3.72h.54c.88,0,1-.91,1-1.65s0-1.65-1-1.65h-.54Z"/><path class="cls-1" d="M28.87,23.05h1.37a1,1,0,0,1,1.12,1.15c0,.68-.33,1.15-1.21,1.15h-.39v1.47h-.89Zm.89,1.65H30c.35,0,.44-.23.44-.48s-.1-.51-.46-.51h-.22Z"/><path class="cls-1" d="M31.83,23.05H34v.72H32.72v.76h1.21v.72H32.72v.86h1.35v.71H31.83Z"/><path class="cls-1" d="M34.6,23.05h1.49a.91.91,0,0,1,1,1,.81.81,0,0,1-.64.92h0c.57.08.6.43.61.94,0,.74,0,.81.17.87v0h-1a1.71,1.71,0,0,1-.09-.76c0-.66-.09-.79-.37-.79h-.34v1.55H34.6Zm.89,1.59h.28a.44.44,0,0,0,.45-.49c0-.28-.11-.47-.46-.47h-.27Z"/><path class="cls-1" d="M37.77,23.05H40v.72h-1.3v.76h1.22v.72H38.65v1.57h-.88Z"/><path class="cls-1" d="M41.68,26.9c-1.17,0-1.33-.76-1.33-2s.16-2,1.33-2,1.32.91,1.32,2S42.94,26.9,41.68,26.9Zm0-.59c.36,0,.42-.34.42-1.37s-.06-1.37-.42-1.37-.4.34-.4,1.37S41.32,26.31,41.67,26.31Z"/><path class="cls-1" d="M43.6,23.05h1.49a.91.91,0,0,1,1,1c0,.55-.22.82-.63.92h0c.56.08.6.43.61.94,0,.74,0,.81.17.87v0h-1a1.71,1.71,0,0,1-.09-.76c0-.66-.09-.79-.37-.79h-.34v1.55H43.6Zm.89,1.59h.27a.44.44,0,0,0,.46-.49c0-.28-.11-.47-.46-.47h-.27Z"/><path class="cls-1" d="M46.79,23.05h1.3l.46,2.48h0L49,23.05H50.3v3.77h-.83V23.89h0l-.57,2.93H48.2l-.61-2.93h0v2.93h-.79Z"/><path class="cls-1" d="M51,23.05h.89v3.77H51Z"/><path class="cls-1" d="M52.6,23.05h1l.73,2.45h0V23.05h.83v3.77h-1l-.77-2.59h0v2.59h-.8Z"/><path class="cls-1" d="M57.46,24.2c0-.24,0-.63-.35-.63s-.41.37-.41,1.37,0,1.37.41,1.37.4-.28.4-.8v-.12H57.1V24.8h1.24v2h-.61l0-.35h0a.81.81,0,0,1-.82.43c-.94,0-1.1-.71-1.1-1.88s.09-2,1.34-2a1.06,1.06,0,0,1,1.2,1.22Z"/><path class="cls-1" d="M29.36,28.46H30.5l1,3.87h-.95l-.14-.74h-.92l-.14.74h-.95Zm.56.7h0l-.32,1.73h.66Z"/><path class="cls-1" d="M31.9,28.46h1.53a.93.93,0,0,1,1,1c0,.56-.23.84-.65.94h0c.58.08.61.45.62,1,0,.76.05.84.18.89v0h-1a1.88,1.88,0,0,1-.09-.79c0-.67-.1-.81-.38-.81h-.35v1.6H31.9Zm.91,1.63h.28a.45.45,0,0,0,.47-.51c0-.29-.11-.48-.47-.48h-.28Z"/><path class="cls-1" d="M35.62,29.19H34.8v-.73h2.54v.73h-.81v3.14h-.91Z"/><path class="cls-1" d="M38.55,31.15v.13c0,.3.08.52.39.52a.41.41,0,0,0,.42-.46c0-.84-1.67-.37-1.67-1.82,0-.62.33-1.14,1.27-1.14s1.24.46,1.24,1.06v.09h-.88a.76.76,0,0,0-.08-.41A.28.28,0,0,0,39,29c-.23,0-.37.13-.37.41,0,.81,1.67.41,1.67,1.78,0,.87-.49,1.23-1.33,1.23-.66,0-1.27-.2-1.27-1v-.25Z"/><path class="cls-1" d="M44.25,31c0,.73-.33,1.41-1.17,1.41-1.11,0-1.25-1-1.25-2s.18-2,1.25-2c.79,0,1.12.44,1.14,1.2h-.5c0-.43-.15-.81-.64-.81-.67,0-.75.73-.75,1.62s.08,1.63.75,1.63.66-.55.67-1Z"/><path class="cls-1" d="M44.83,28.46h2v.42H45.31v1.21h1.44v.43H45.31v1.39H46.9v.42H44.83Z"/><path class="cls-1" d="M47.48,28.46h.62l1.28,3.23h0V28.46h.48v3.87h-.66L48,29.19h0v3.14h-.48Z"/><path class="cls-1" d="M51.82,32.33h-.48V28.88h-1v-.42h2.42v.42h-1Z"/><path class="cls-1" d="M53.29,28.46h1.25a1,1,0,0,1,.4,1.95h0a.64.64,0,0,1,.54.65l0,.66c0,.43.09.54.2.61h-.57a1.18,1.18,0,0,1-.13-.56l0-.6c0-.53-.34-.57-.58-.57h-.65v1.73h-.47Zm.47,1.75h.48c.28,0,.79,0,.79-.74,0-.38-.25-.62-.7-.62h-.57Z"/><path class="cls-1" d="M56.24,28.46h2v.42H56.72v1.21h1.44v.43H56.72v1.39h1.59v.42H56.24Z"/><path class="cls-1" d="M49.43,9.22a3.65,3.65,0,0,1-2.83,1.66c-2.08.29-2.73-1.37-1.78-2.89A3.66,3.66,0,0,1,48.7,6.32c.66.12,1.81-.93.55-1.33A4.8,4.8,0,0,0,45,5.76a5.13,5.13,0,0,0-1.77,2.15c-.84,1.79-1.7,3.33-2.6,3.38-.58,0-.44-1.25-.22-2.26A22.4,22.4,0,0,1,41,6.74a2.12,2.12,0,0,1,.09-.27c.21-.59-1.47-.67-1.71,0-.06.19-.12.39-.19.6C39,5.73,38,4.34,35.6,4.63a4.59,4.59,0,0,0-4,5A8.74,8.74,0,0,1,28.72,12c.12-.17.25-.34.37-.53A6.11,6.11,0,0,0,30,8.42c0-.12,0-.24,0-.37A4.55,4.55,0,0,0,28.9,5.22,4.11,4.11,0,0,0,25.43,4l-.29,0c-.22,0-.43,0-.64.09,0-.7,0-1.14,0-1.21s-.08-.32-.22-.32S24,2.75,24,3s0,.6-.09,1.21a7.85,7.85,0,0,0-4.46,3.7,9.58,9.58,0,0,0-2.08-5.24A6.79,6.79,0,0,0,11.6.17,9.15,9.15,0,0,0,9.88.42,9.35,9.35,0,0,0,5.13,3L5,3.14s0,0,0,.11a.09.09,0,0,0,0,.07.07.07,0,0,0,.06,0,.22.22,0,0,0,.11,0l.14-.1a12.3,12.3,0,0,1,4.94-2,9.89,9.89,0,0,1,1.16-.14A6.17,6.17,0,0,1,16.7,3.48a10.15,10.15,0,0,1,2,5.71c0,.15,0,.29,0,.43a6.22,6.22,0,0,0-.27,2.06c0,.26,0,.51.05.76A17.54,17.54,0,0,1,18,14.7a.42.42,0,0,0,0,.18.17.17,0,0,0,.15.18c.11,0,.16-.09.22-.2a8.73,8.73,0,0,0,.34-1c.65,3.11,2.25,4.14,2.82,6.55a6.88,6.88,0,0,1,.21,1.33,5.79,5.79,0,0,1-.05,1,.55.55,0,0,0,0,.18.57.57,0,0,0,.28.49,1.08,1.08,0,0,0,.53.12,1.49,1.49,0,0,0,.45-.11c0,.51-.06,1.92,0,2.4a.66.66,0,0,0,.26.51.87.87,0,0,0,.53.13A1.14,1.14,0,0,0,24.8,25.3c0-.36-.08-5.32-.15-10.47a.5.5,0,0,0,.32,0,3.73,3.73,0,0,0,.59-.2c1.32-.44,4.63-1.64,6.16-3.78a2.69,2.69,0,0,0,3.18,2.79,4.64,4.64,0,0,0,3.87-2.71,1.55,1.55,0,0,0,1.74,1.82c1-.07,1.89-1.21,2.51-2.06.46,1.06,2,1.53,3.79,1.25a3.4,3.4,0,0,1-3.16-.08c-.26-.17-.27,0-.07.22a2.54,2.54,0,0,0,1.89.62c2,0,3.73-1,5.15-3.27C51.19,8.54,49.89,8.62,49.43,9.22ZM23.61,7.49h0c-.3,0-.56.28-.61.88s-.58,8.16-.73,10.34c-.67-2.28-2.62-3.18-2.77-6.51,0-.16,0-.34,0-.51a6.79,6.79,0,0,1,4.31-6.17C23.69,6.39,23.63,7.22,23.61,7.49Zm4.58.67a6.08,6.08,0,0,1-3.56,5.16c0-3.06-.08-6-.11-8a3.21,3.21,0,0,1,.61-.09h.12a2.67,2.67,0,0,1,2.93,2.69A2.53,2.53,0,0,1,28.19,8.16Zm6.7,4.5a1.91,1.91,0,0,1-2.12-1.1c.66.71,1.76.81,3.1.45a5,5,0,0,0,1.85-1A3.87,3.87,0,0,1,34.89,12.66Zm3.53-3.55a4.64,4.64,0,0,1-2.6,1.94,2.38,2.38,0,0,1-3-.91,3.16,3.16,0,0,1,.6-1.5,4.1,4.1,0,0,1,3-1.89c.51-.07.26-.27-.45-.28a3.16,3.16,0,0,0-2,.65,5.65,5.65,0,0,0-1.07,1.13,3.34,3.34,0,0,1,3.19-2.44C37.82,5.69,38.58,7.45,38.42,9.11Zm-19.48,13h-.1a4,4,0,0,1-.77.1c-.79,0-1.11-.42-1.31-1.19s-.21-2.05-.37-3.22a13.17,13.17,0,0,0,1-1.37.45.45,0,0,0,.09-.25.16.16,0,0,0,0-.08.1.1,0,0,0-.1,0c-.1,0-.16.08-.25.21a9.36,9.36,0,0,1-.8.94,6,6,0,0,0-.15-.61,3.71,3.71,0,0,0-.82-1.48,12.43,12.43,0,0,0,.47-1.52h0l.13,0a1.1,1.1,0,0,0,.33.07.23.23,0,0,0,.22-.15,12.87,12.87,0,0,0,.68-3.54c0-.1,0-.2,0-.31C17,7.2,15,3.51,11.11,3.68A7.37,7.37,0,0,0,9.47,4,12.66,12.66,0,0,0,1.1,13.41a2.11,2.11,0,0,1,0-.25A13.66,13.66,0,0,1,3,5.62a.84.84,0,0,0,.17-.33.1.1,0,0,0-.1-.1c-.08,0-.09,0-.14.08l-.14.15A12.1,12.1,0,0,0,0,13.25a9.83,9.83,0,0,0,2.3,5.85A7.69,7.69,0,0,0,8.7,21.79a10.24,10.24,0,0,0,5.23-1.72,12.13,12.13,0,0,0,.21,1.23,2.52,2.52,0,0,0,2.77,2.24h0a2,2,0,0,0,.34,0,4.51,4.51,0,0,0,1.85-.6.52.52,0,0,0,.22-.41A.37.37,0,0,0,18.94,22.15ZM7.54,19.74a4,4,0,0,1-.49,0,6.71,6.71,0,0,0,2.36-1.56c.92-.84,1.7-1.65,2.69-1.7a1.23,1.23,0,0,1,1.18.58A8.41,8.41,0,0,1,7.54,19.74Zm2.43.84a8,8,0,0,0,3.67-2.53,11.6,11.6,0,0,1,.18,1.15A10.91,10.91,0,0,1,10,20.58Zm4.82-5.85A4.45,4.45,0,0,0,12,14.11c-1.37.07-2.57,1.15-3.69,2.2s-2.1,2.05-3.12,2.2a2.42,2.42,0,0,1-.66,0A1.14,1.14,0,0,1,3.7,18a2.85,2.85,0,0,1-.25-.33h0A5.34,5.34,0,0,1,2.57,15a6.28,6.28,0,0,1,.06-1.07A10.46,10.46,0,0,1,4.19,9.3l.09-.12A6,6,0,0,1,5.2,8.11l.27-.24a9.58,9.58,0,0,1,4.58-2.35c.27,0,.53-.06.78-.08,3.43-.15,4.6,2.33,4.72,4.74A10.17,10.17,0,0,1,14.79,14.73Z"/><rect class="cls-1" x="65.07" y="0.27" width="0.47" height="36.37"/><path class="cls-1" d="M76.26,28.61a.48.48,0,0,1-.24.05.93.93,0,0,1-.51-.2,2.75,2.75,0,0,0-.57-.28,1,1,0,0,1-.89-.38,1.68,1.68,0,0,1-.32-1,1.41,1.41,0,0,1,.63-1.3,1.17,1.17,0,0,1,.57-.13c.74,0,1.19.53,1.19,1.4A1.46,1.46,0,0,1,75.57,28a1.48,1.48,0,0,1,.25.14.7.7,0,0,0,.34.12l.25,0Zm-.85-2.49a.51.51,0,0,0-.49-.35.47.47,0,0,0-.43.24,1.56,1.56,0,0,0-.14.76c0,.47.08.77.25.89a.52.52,0,0,0,.33.1c.39,0,.55-.3.55-1A2.52,2.52,0,0,0,75.41,26.12Z"/><path class="cls-1" d="M77.88,28.2a.53.53,0,0,1-.16-.2.74.74,0,0,1-.54.19.61.61,0,0,1-.6-.33,1.28,1.28,0,0,1,0-.4V26.15l.52-.1v1.31a.71.71,0,0,0,0,.33.19.19,0,0,0,.18.1.37.37,0,0,0,.33-.2V26.16l.51-.11v1.56a.57.57,0,0,0,.13.37Z"/><path class="cls-1" d="M79.15,27.29h0c0,.32.16.5.43.5a.81.81,0,0,0,.52-.21l.21.32a1.16,1.16,0,0,1-.77.29,1,1,0,0,1-1-1.06,1.11,1.11,0,0,1,.26-.81.78.78,0,0,1,.64-.27.86.86,0,0,1,.59.21,1.19,1.19,0,0,1,.27.89v.13Zm.63-.42a.47.47,0,0,0-.07-.3.26.26,0,0,0-.23-.12c-.21,0-.32.16-.32.44h.62Z"/><path class="cls-1" d="M81.17,27.29h0c0,.32.15.5.43.5a.76.76,0,0,0,.51-.21l.21.32a1.12,1.12,0,0,1-.77.29,1,1,0,0,1-1-1.06,1.11,1.11,0,0,1,.25-.81.79.79,0,0,1,.64-.27.85.85,0,0,1,.59.21,1.19,1.19,0,0,1,.27.89v.13Zm.62-.42a.48.48,0,0,0-.06-.3.26.26,0,0,0-.24-.12c-.2,0-.32.16-.32.44h.62Z"/><path class="cls-1" d="M83.81,28.14V26.81c0-.23,0-.29-.18-.29a.61.61,0,0,0-.37.18v1.44h-.54V26.66a1.47,1.47,0,0,0-.07-.48l.47-.13a.49.49,0,0,1,.08.25l.24-.15a.87.87,0,0,1,.36-.09.5.5,0,0,1,.49.3.78.78,0,0,1,0,.29v1.49Z"/><path class="cls-1" d="M85.49,28.2a1.74,1.74,0,0,1-.82-.23l.19-.39a1.49,1.49,0,0,0,.68.23.25.25,0,0,0,.27-.23c0-.14-.1-.21-.32-.25l-.23,0a.82.82,0,0,1-.38-.21.65.65,0,0,1-.11-.37c0-.4.31-.66.78-.66a1.42,1.42,0,0,1,.73.19l-.17.35a1.09,1.09,0,0,0-.5-.14c-.16,0-.26.08-.26.2s.07.16.25.2l.25.07a.67.67,0,0,1,.41.23.56.56,0,0,1,.11.35C86.37,27.92,86,28.2,85.49,28.2Z"/><path class="cls-1" d="M87.27,28.19a.49.49,0,0,1-.48-.28,1.09,1.09,0,0,1-.05-.46V25.93a5.35,5.35,0,0,0,0-.61l.54-.13a3,3,0,0,1,0,.53v1.59c0,.35,0,.4,0,.46a.12.12,0,0,0,.1.05h.06l.1.31A.87.87,0,0,1,87.27,28.19Z"/><path class="cls-1" d="M89.23,28.25a.61.61,0,0,1-.29-.25l-.12.11a.73.73,0,0,1-.41.11c-.46,0-.71-.23-.71-.64s.33-.7,1-.7h.12V26.8c0-.23,0-.3-.24-.3a1.11,1.11,0,0,0-.59.23l-.22-.39a2,2,0,0,1,.33-.16,1.29,1.29,0,0,1,.56-.12c.34,0,.57.12.65.35a1,1,0,0,1,0,.37v.68a.43.43,0,0,0,.19.46Zm-.46-1c-.37,0-.5.07-.5.31a.25.25,0,0,0,.24.27.38.38,0,0,0,.28-.14v-.44Z"/><path class="cls-1" d="M91,28.14V26.81c0-.23,0-.29-.18-.29a.61.61,0,0,0-.37.18v1.44h-.54V26.66a1.47,1.47,0,0,0-.07-.48l.47-.13a.49.49,0,0,1,.08.25l.24-.15a.87.87,0,0,1,.36-.09.5.5,0,0,1,.49.3.78.78,0,0,1,0,.29v1.49Z"/><path class="cls-1" d="M93.28,28.14a.28.28,0,0,1,0-.12.65.65,0,0,1-.47.17c-.51,0-.84-.4-.84-1s.35-1.08.87-1.08a.52.52,0,0,1,.36.12c0-.05,0-.19,0-.31v-.7l.53.09V27.4a2.21,2.21,0,0,0,.07.74Zm-.12-1.5a.44.44,0,0,0-.29-.13c-.24,0-.35.2-.35.65s.09.58.37.58a.41.41,0,0,0,.27-.13Z"/><path class="cls-1" d="M74.93,32.17a1.13,1.13,0,0,1-.84-.34,1.5,1.5,0,0,1-.33-1.06,1.41,1.41,0,0,1,.42-1.15,1,1,0,0,1,.71-.26,1.11,1.11,0,0,1,.75.27l-.15.2a1,1,0,0,0-.59-.21.67.67,0,0,0-.68.46,2.19,2.19,0,0,0-.11.7,1.54,1.54,0,0,0,.19.83.82.82,0,0,0,.66.29.87.87,0,0,0,.44-.11V31h-.55l-.07-.27h.92V32A1.45,1.45,0,0,1,74.93,32.17Z"/><path class="cls-1" d="M77.1,32.18c-.55,0-.86-.41-.86-1.06s.32-1,.85-1a.78.78,0,0,1,.68.35,1.27,1.27,0,0,1,.18.73C78,31.83,77.6,32.18,77.1,32.18Zm.4-1.59a.44.44,0,0,0-.42-.25.47.47,0,0,0-.41.21,1.15,1.15,0,0,0-.09.52,1.5,1.5,0,0,0,.12.65.47.47,0,0,0,.4.2.44.44,0,0,0,.44-.3,1.72,1.72,0,0,0,0-1Z"/><path class="cls-1" d="M79.19,32.14h-.31l-.71-2,.32-.07L79,31.45c0,.17.09.34.09.34h0a2.21,2.21,0,0,1,.1-.33l.45-1.32h.33Z"/><path class="cls-1" d="M80.55,31.18v.05a.8.8,0,0,0,.09.44.56.56,0,0,0,.49.24.67.67,0,0,0,.49-.19l.12.2a1,1,0,0,1-.67.25c-.55,0-.88-.4-.88-1.06a1.06,1.06,0,0,1,.24-.75.75.75,0,0,1,.59-.27.72.72,0,0,1,.54.21c.17.18.23.37.23.84v0Zm.82-.67a.43.43,0,0,0-.36-.18c-.28,0-.44.21-.46.62h.91A.88.88,0,0,0,81.37,30.51Z"/><path class="cls-1" d="M83.19,30.44l-.09,0a.44.44,0,0,0-.33.15.35.35,0,0,0-.11.31v1.24h-.31V30.59a1,1,0,0,0-.07-.42l.31-.08a.74.74,0,0,1,.06.32.75.75,0,0,1,.56-.33l.11,0Z"/><path class="cls-1" d="M84.74,32.12V30.78c0-.21,0-.26-.07-.33a.31.31,0,0,0-.22-.08.86.86,0,0,0-.55.28v1.47h-.3V30.59a.84.84,0,0,0-.08-.41l.3-.09a.75.75,0,0,1,.08.31.89.89,0,0,1,.62-.3.52.52,0,0,1,.49.29.59.59,0,0,1,0,.23v1.5Z"/><path class="cls-1" d="M87.93,32.12V30.66c0-.19-.09-.29-.25-.29s-.32.11-.53.3v1.45h-.32V30.71a.41.41,0,0,0,0-.25.23.23,0,0,0-.2-.08.75.75,0,0,0-.51.26v1.48h-.3V30.59a1,1,0,0,0-.07-.43l.3-.07a.89.89,0,0,1,.07.3.89.89,0,0,1,.58-.3.48.48,0,0,1,.46.33,1,1,0,0,1,.64-.33.49.49,0,0,1,.5.54v1.49Z"/><path class="cls-1" d="M89.2,31.18v.05a.8.8,0,0,0,.1.44.55.55,0,0,0,.49.24.69.69,0,0,0,.49-.19l.11.2a1,1,0,0,1-.66.25c-.55,0-.88-.4-.88-1.06a1.1,1.1,0,0,1,.23-.75.77.77,0,0,1,.6-.27.75.75,0,0,1,.54.21c.17.18.22.37.22.84v0Zm.82-.67a.43.43,0,0,0-.36-.18c-.28,0-.44.21-.46.62h.91A.78.78,0,0,0,90,30.51Z"/><path class="cls-1" d="M92.14,32.12V30.78c0-.21,0-.26-.07-.33a.29.29,0,0,0-.22-.08.89.89,0,0,0-.55.28v1.47H91V30.59a.84.84,0,0,0-.08-.41l.31-.09a.83.83,0,0,1,.07.31.9.9,0,0,1,.62-.3.52.52,0,0,1,.49.29.59.59,0,0,1,0,.23v1.5Z"/><path class="cls-1" d="M93.9,30.38h-.42v1.27c0,.22.06.3.26.3a.36.36,0,0,0,.19,0l0,.2a.78.78,0,0,1-.35.08.5.5,0,0,1-.26-.06.38.38,0,0,1-.2-.39V30.38h-.25v-.24h.25c0-.19,0-.5,0-.5l.32-.07a5.29,5.29,0,0,0,0,.57H94Z"/><path class="cls-1" d="M82.43,7.87a1.25,1.25,0,0,0-.91,1.64.36.36,0,0,1-.42-.15,1.11,1.11,0,0,1-1,.56c.23-.25.38-.8.83-1.1a1.59,1.59,0,0,0,.81-1c-.21.1-1.29.38-1.6,0a5.87,5.87,0,0,0,2-.77l-.17-.17a7.32,7.32,0,0,1-1.34.55c-.11-.89.74-.85.8-.61a.72.72,0,0,0-.15-1.08A1.29,1.29,0,0,0,81,4.39c-.06.75-.9.87-1,1.45,0-.46-.06-1.7-.1-2.3C79.83,2.41,78.41,2,78.19,2c-.92,0-1-.08-1-.51-.47.54-.31,1,.09,1.24-.06.32-.57.57-.89.64a1.46,1.46,0,0,0,2-.11l.09-.08a2.57,2.57,0,0,1,.26,1,.71.71,0,0,0-.83.7c.89-.37,1,1.34,1.23,1.62C79,6.54,78.56,6,78,6s-1,.34-1.26.32c.05.51.67.79,1.07.85-.2.52,0,.87.4,1,0-.47.6-.62,1.24-.25a1.85,1.85,0,0,0,1.79.3c-.1.23-.38.25-.73.59s-.49,1.09-1,1.31a1.72,1.72,0,0,0,1.72-.36.51.51,0,0,0,.69-.1,1,1,0,0,1,.58-1.49s.12-.28,0-.27Zm-3.28-.39a.88.88,0,0,0-1.08.17.73.73,0,0,1,.21-.76c-.69,0-1.09-.2-1.19-.41a1.41,1.41,0,0,1,1.44,0,2.85,2.85,0,0,0,1,.54c.15-.15.1-.08.14-.13-.35-.24-.51-2.13-1.2-2.2.1-.24.46-.22.75-.14A3.1,3.1,0,0,0,78.78,3c.4-.21.68,0,.82.52a23.7,23.7,0,0,0,.32,3.07l.22-.2c-.11-.7.66-1,.83-1.31a1,1,0,0,1-.16.85.44.44,0,0,1,.36.5.86.86,0,0,0-.91,1.11,1.75,1.75,0,0,1-1.11-.09Zm-1.9-5.25c.53.25.7-.22,1.68.42-.65.2-1.15,1-1.89.8.53-.26.48-.65.78-.84-.19,0-.58-.11-.57-.38Z"/><path class="cls-1" d="M89.3,5.28c0-1.06,0-1.92,0-2.19l.12,0c.76.26.93,1.17,2.49.14-.83.1-.88-.61-1.26-.63a1.42,1.42,0,0,0,.62-1.08c-.49.39-1.61.42-1.83.55l-.91.52c-.65.35-.19,2.28-.26,3-.35-1.05-1.06-.89-1.43-1.49a2.1,2.1,0,0,0,.13,1.58,1,1,0,0,0-.19,1.1.68.68,0,0,1,1,.23A1.47,1.47,0,0,1,86,6.85l-.19.21a1.61,1.61,0,0,0,2,.28,1.09,1.09,0,0,1-.07.37,1.61,1.61,0,0,1-1.33.11c.07.53.68.92,1.26,1.08a.92.92,0,0,1-.62.19,1.13,1.13,0,0,1-.06,1c-.29-.19-.44-.39-.55-1.13a2.33,2.33,0,0,0-1-1.65c0,.27,0,.15,0,.32,1.1.81.48,2.27,1.62,2.79a1.05,1.05,0,0,0,.36-1.1,1.33,1.33,0,0,0,.84-.73A1.14,1.14,0,0,1,87,8.23,3.14,3.14,0,0,0,89,7c.57-.6,1.34-.51,1.28,0,.4-.06.56-.6.43-1a1.51,1.51,0,0,0,1.11-1.29c-.79.39-1.78-.26-2.52.54Zm.94.56a.54.54,0,0,1,.14.7c-.28-.47-1.15-.3-2,.66a2.49,2.49,0,0,1-.23.24c.07-1.15-.88-1.17-1.16-1.06a.71.71,0,0,1,.35-.59,1.78,1.78,0,0,1-.37-1,2.15,2.15,0,0,1,1.26,1.68l.3-.2c-.09-1.63-.07-1.63-.08-2.74a.42.42,0,0,1,.5-.48c0,.42.08,1.51.06,3h.18a1.47,1.47,0,0,1,1.37-.88,1.56,1.56,0,0,0,.86-.09,1.68,1.68,0,0,1-1.17.76ZM89,2.74a7,7,0,0,1,.68-.43,2.52,2.52,0,0,0,1-.16c-.3.36-.33.49-.81.55.62,0,.88.61,1.19.69-1,.32-1.14-.71-2.09-.65Z"/><path class="cls-1" d="M85.05,8.86a.17.17,0,0,0-.13.07l-.19,0V8.56a.15.15,0,0,0,.1-.15.17.17,0,1,0-.34,0,.19.19,0,0,0,.09.15v.32l-.18,0a.18.18,0,0,0-.15-.1.17.17,0,0,0-.17.17.16.16,0,0,0,.17.17A.17.17,0,0,0,84.4,9l.18,0v.49a.19.19,0,0,0-.09.15.16.16,0,0,0,.17.17.17.17,0,0,0,.17-.17.18.18,0,0,0-.1-.15V9.06l.16,0a.18.18,0,0,0,.16.12.17.17,0,0,0,0-.34Z"/><path class="cls-1" d="M83.59,8.76a.15.15,0,0,0-.15.1l-.18,0V8.56a.18.18,0,0,0,.08-.15.16.16,0,0,0-.17-.17.17.17,0,0,0-.17.17.16.16,0,0,0,.11.15V8.9l-.18,0a.19.19,0,0,0-.14-.07.17.17,0,1,0,0,.34A.16.16,0,0,0,83,9.08l.16,0v.47a.18.18,0,0,0-.1.15.16.16,0,0,0,.17.17.16.16,0,0,0,.16-.17.16.16,0,0,0-.09-.15V9l.19,0a.16.16,0,0,0,.14.08.17.17,0,0,0,.17-.17.18.18,0,0,0-.17-.17Z"/><path class="cls-1" d="M85.83,10.21c-.1-.68-.35-2.58-.38-3.22h-.29q0,.17,0,.42a4.7,4.7,0,0,0-1.27-.17,4.82,4.82,0,0,0-1.27.17,3.73,3.73,0,0,0,0-.42h-.29c0,.64-.27,2.54-.38,3.22-.17.07-.28.24-.28.55l2.19,0,2.19,0c0-.31-.11-.48-.28-.55Zm-1.91,0a.71.71,0,0,1-1.12.2,1.18,1.18,0,0,0-.49-.2c.07-.48.19-1.37.27-2.12.53-.24,1.18-.3,1.34.31.16-.61.81-.55,1.34-.31.08.75.2,1.64.27,2.12a1.15,1.15,0,0,0-.48.2.72.72,0,0,1-1.13-.2Z"/><path class="cls-1" d="M80.57,11a3.69,3.69,0,0,0,3,0,1.79,1.79,0,0,1-.62,1,8.63,8.63,0,0,1,.49,1.24.63.63,0,0,1,.19.73c-.05.21-.71.45-.93.38s-.2-.16-.31-.15c-.29,0-1.19.91-2.06.07V12.39a2.22,2.22,0,0,0,.79-.6,1.71,1.71,0,0,1-.57-.82Zm1,.8a2.2,2.2,0,0,1-.88.79V14c.57.51,1.31.07,1.6-.11a1.13,1.13,0,0,1-.16-.41A.94.94,0,0,1,81,12.69a1.77,1.77,0,0,1,.27-.15c.25.82.7.7,1.07.69a1.12,1.12,0,0,1,.85-.27,4.51,4.51,0,0,0-.52-1.1,1.68,1.68,0,0,0,.59-.52,2.93,2.93,0,0,1-2.2,0,1.39,1.39,0,0,0,.52.44Zm1.66,1.47c-.16-.06-.67.08-.73.23a.5.5,0,0,0,.25.48.91.91,0,0,0,.65-.18c.06-.1,0-.48-.17-.53Z"/><path class="cls-1" d="M87.55,12.18a1,1,0,0,0-1-1.07c-.57,0-1.29.28-1.33.78-.84.5-1.24.94-1.12,1.36-.28.3-.06.87.78.51a1,1,0,0,0-.31.72h2.83c-.29-1.55.18-1.28.18-2.3ZM86.69,12c-.14,0-.77-.06-1,.4a.44.44,0,0,1-.32-.12.72.72,0,0,1-.39.23.41.41,0,0,0,.65.11.53.53,0,0,0,0,.13.84.84,0,0,0,1.31.66,1.55,1.55,0,0,0,0,.77H85c0-.21.3-.45.51-.6l-.17-.28a3.51,3.51,0,0,1-.64.24c-.54.14-.51-.24,0-.4V13h-.36c.09-.38.83-.87,1.16-1,0-.41.53-.55,1-.56s.67.57.67.75-.06.77-.36.93a.52.52,0,0,1-.81-.39c0-.33.23-.52.62-.47s.36-.18.06-.26Z"/><path class="cls-1" d="M86.64,17.53v-.68h-.31a2.22,2.22,0,0,0-.51-1.57l-.1-.1-.09.1a2.27,2.27,0,0,0-.52,1.57h-.3v.64a3.1,3.1,0,0,0-1,.56h0l.16.22h0a2.34,2.34,0,0,1,1.71-.63,1.59,1.59,0,0,1,1.55.8l.22-.15a1.78,1.78,0,0,0-.85-.76Zm-.92-2a2.21,2.21,0,0,1,.35,1.27h-.69a2.21,2.21,0,0,1,.34-1.27Zm-.64,1.84v-.31h1.29v.33a3,3,0,0,0-.65-.07,3.87,3.87,0,0,0-.64.05Z"/><path class="cls-1" d="M86.43,18.77a.64.64,0,0,0-.11-.57.63.63,0,0,0-.55-.19l.26.3-.46.38-.2-.23.18-.16a.65.65,0,0,0-.69-.26.68.68,0,0,0,.17.72l.18-.16.2.23-.56.46.18.2.54-.48.18.21a.29.29,0,0,0,0,.36l.46-.4a.3.3,0,0,0-.35-.1l-.18-.21.44-.4.26.3Z"/><path class="cls-1" d="M82.9,15.57a.44.44,0,0,0-.72-.27.44.44,0,0,0-.71.27c-.72-.11-.64.57-.55.75s.28.63.41.9l-.06,0a1.63,1.63,0,0,0,0,.54l.1,0c-.08.21-.21.56-.29.72a1.11,1.11,0,0,0,.35.14,1.75,1.75,0,0,1-.06.25,3,3,0,0,0,.83.11,3.09,3.09,0,0,0,.83-.11c0-.12-.07-.25-.07-.25a1,1,0,0,0,.35-.14c-.07-.16-.21-.51-.28-.72l.09,0a1.4,1.4,0,0,0,0-.54l-.06,0c.13-.27.33-.73.41-.9s.17-.86-.55-.75Zm-.71,0c0-.2.56-.23.46.19s-.23.91-.33,1.33h-.27c-.1-.42-.23-.91-.33-1.33s.44-.39.47-.19Zm.7,1.79a.76.76,0,0,1,0,.21,3.08,3.08,0,0,1-.71.08,3,3,0,0,1-.71-.08.74.74,0,0,1,0-.21,4.08,4.08,0,0,1,.71-.06,4,4,0,0,1,.7.06Zm-1.72-1.19c-.16-.39.23-.48.31-.26s.26.83.37,1.19l-.29,0c0-.13-.21-.55-.39-1ZM83,18.41a1.78,1.78,0,0,1-.33.09c0,.09,0,.18.06.25a3.43,3.43,0,0,1-.56.05,3.55,3.55,0,0,1-.57-.05c0-.07,0-.16.07-.25a1.44,1.44,0,0,1-.33-.09c0-.17.12-.33.18-.56a2.7,2.7,0,0,0,.65.07,2.67,2.67,0,0,0,.64-.07c.06.23.14.39.19.56Zm.18-2.19-.39,1-.29,0c.12-.36.26-.87.38-1.19s.46-.13.3.26Z"/><path class="cls-1" d="M81.59,12.22a1.14,1.14,0,0,0,.52,0,.2.2,0,0,1,.21.26.31.31,0,0,0,.05.24c-.18,0-.35.06-.48,0s-.16-.35-.3-.49Z"/><path class="cls-1" d="M97.35,9.12c-.09,0-.29.08-.42.1a1.2,1.2,0,0,0,.4-.8c-.12,0-.33.12-.53.17a1.27,1.27,0,0,0,.51-1.24c-.12.06-.29.16-.46.23a1.27,1.27,0,0,0,.2-1.26,3.4,3.4,0,0,1-.54.43c.13-.61.12-1-.13-1.28a7.26,7.26,0,0,1-.85,1.3,1.62,1.62,0,0,0-.28-1.17,1.71,1.71,0,0,1-.27.74,1.88,1.88,0,0,0-.47-1.15,3,3,0,0,1-.18.93,2.83,2.83,0,0,0-.69-1.2,9,9,0,0,1-1.12,4.39A3.05,3.05,0,0,1,91,12a1.48,1.48,0,0,0-1-.27c-.13-.6.66-1.14,1.34-1.58s1-.82,1-1.41a.88.88,0,0,0-.9-.93,1.59,1.59,0,0,0-1.28.8c-.19.08-.73.25-1,.31a2,2,0,0,0-.7.32,1.15,1.15,0,0,0,.52.07c.22,0,.9-.16,1.57-.24.24.13.62.35.21.63s-.8.45-1.59.87A1.65,1.65,0,0,0,88.69,13a3.81,3.81,0,0,0,.83,1.91,3.94,3.94,0,0,1-.26,2.17c-.17-.42-.47-1.4-.67-2,.2-1.08-.12-1.56-.35-1.74s-.59-.14-.83.24c.36,0,.48.42.48.9s-.16,1-.56,1a.52.52,0,0,0,.83.4c0,.11.25.75.45,1.32.12.34.23.66.31.82s.69.21.76,0,.18-.49.33-.82h0c.11-.24.27-.56.52-1,.16.28.38.73.51,1a2,2,0,0,1,.1.31,20.89,20.89,0,0,1-.1,3.12c-1.37-.37-1.75.29-1.63.79a.45.45,0,0,1,.61-.08c0,.37.06.63.43.74.39-1,1.8-.81,1.93-.72,0-.2.2-.7-.53-.81,0-.89.12-2,.15-2.22a1.27,1.27,0,0,0,0-.73c0-.11-.07-.24-.11-.4h0a6,6,0,0,1-.2-1.35.79.79,0,0,0,.64.18c.15.68.38.48.5.77a1.27,1.27,0,0,1,.09.4.71.71,0,0,0,.1.31,1.89,1.89,0,0,0,1.19-.31A.83.83,0,0,0,94.4,17a2.64,2.64,0,0,0-.7-1.51A3.46,3.46,0,0,0,93,13.92a3.13,3.13,0,0,0,1.21-.81.59.59,0,0,0,.52-.58l.35,0c0-.1,0-.26-.06-.35l.51,0a3.64,3.64,0,0,0-.16-.38,5.59,5.59,0,0,0,.57,0,2.25,2.25,0,0,1-.22-.48,6.88,6.88,0,0,0,.77-.13l-.32-.31a1.33,1.33,0,0,0,1-.86c-.1,0-.3,0-.42,0A1.24,1.24,0,0,0,97.35,9.12Zm-3.45-3a2.6,2.6,0,0,1,.28,1.18,2,2,0,0,0,.42-.79,2.38,2.38,0,0,1,.06.89,2.24,2.24,0,0,0,.52-.75,1.61,1.61,0,0,1,0,.58,29,29,0,0,1-2.19,2A8.7,8.7,0,0,0,93.9,6.09ZM89.7,17.25h0a4.58,4.58,0,0,0-.16.56c0,.18-.44.14-.49,0s-.13-.31-.22-.56h0a17.87,17.87,0,0,1-.62-1.8c-.16.26-.33.39-.51.23.65-.29.42-2,.17-2.13.31-.28.66.78.46,1.57.19.55.58,1.68.73,2.13h0c0,.1,0,.17.06.19a.14.14,0,0,0,.27,0,1.83,1.83,0,0,1,.06-.19h0a7.22,7.22,0,0,0,.41-2.18c.3,0,.39.34.5.7C90.11,16.38,89.87,16.79,89.7,17.25Zm6.82-7a2.07,2.07,0,0,1-1.26.4,1.72,1.72,0,0,0,.45.29,3.93,3.93,0,0,1-.63.05c.1.17.25.39.31.48l-.53,0c.1.19.12.27.21.42a4.56,4.56,0,0,1-.52,0c0,.12.12.29.16.39h-.28a3.18,3.18,0,0,1-2.92,1.57,1.88,1.88,0,0,0,.09.27,5.79,5.79,0,0,0,1-.09,4.32,4.32,0,0,1,.87,1.82A2.17,2.17,0,0,1,94.06,17a2,2,0,0,1-.87.27c-.13-.75-.52-.78-.71-1.4a.74.74,0,0,1-.74-.54H91.4a5.92,5.92,0,0,0,.22,1.95,6.56,6.56,0,0,1,.14.73c0,.44-.14,2.14-.14,2.84.32,0,.56.07.55.33a1.62,1.62,0,0,0-1.8.63c-.1-.05-.16-.34,0-.42a.63.63,0,0,0-.73-.26c.15-.26.51-.42,1.59-.15a25.61,25.61,0,0,0,.19-3.25,1.7,1.7,0,0,0-.13-.45h0a16.43,16.43,0,0,1-1-2.55c-.18,0-.46,0-.55-.06a3.57,3.57,0,0,1-.84-1.71,1.66,1.66,0,0,1,.41-2c.6-.43,2-1,2-1.47,0-.31-.52-.54-.7-.66s-.11-.19,0-.34c.82-.8,1.79,0,1.22,1-.41.71-2.53,1.34-2.05,2.68a1.05,1.05,0,0,1,.86.43,3.32,3.32,0,0,0,2.21-2.94,10.54,10.54,0,0,0,1.23-.86c.08.52,0,3.87-3,4.64.08.29.73.37,1.11-.14.37.08.82-.22.83-.51a.68.68,0,0,0,.63-.71.84.84,0,0,0,.43-1.09.74.74,0,0,0,.32-1,.74.74,0,0,0,.13-1,.61.61,0,0,0,0-.65A8.51,8.51,0,0,0,96.25,6.3a2.45,2.45,0,0,1-.58,1.48A10.85,10.85,0,0,0,96.74,7c-.11.62-.81,1.18-1.06,1.46.34-.14.85-.38,1.24-.59a3.14,3.14,0,0,1-1.26,1.28,7.56,7.56,0,0,0,1.13-.27,3.26,3.26,0,0,1-1.39.84,5,5,0,0,0,1.26-.19,2.14,2.14,0,0,1-1.27.68A8.47,8.47,0,0,0,96.52,10.24Z"/><path class="cls-1" d="M93.18,10A3.77,3.77,0,0,1,92,12.13h.39a3.56,3.56,0,0,0,1.18-2.4l-.41.25Z"/><path class="cls-1" d="M91,8.59c.06-.08,0-.21.22-.26s.18.08.26.1.07,0,0,.09,0,.21-.2.23-.17-.08-.27-.08-.09,0,0-.08Z"/><path class="cls-1" d="M93,16.14a1.67,1.67,0,0,0,.46,0,1.89,1.89,0,0,1,.23.36,1.48,1.48,0,0,1-.58,0,1.06,1.06,0,0,0-.11-.37Z"/><path class="cls-1" d="M92.79,22.23a2.28,2.28,0,0,1-.73.09h-.42A5.5,5.5,0,0,1,87.87,21c1.24-1.25-.22-2.28-1-1.22a7,7,0,0,0-.61.88c-.14.26,0,.52.27.92a4.49,4.49,0,0,0,.93.78h-7.1a4.24,4.24,0,0,0,.93-.78c.31-.4.41-.66.28-.92a7.17,7.17,0,0,0-.62-.88c-.78-1.06-2.23,0-1,1.22a5.5,5.5,0,0,1-3.77,1.36h-.39a2.31,2.31,0,0,1-.74-.09c-.29-.07-.36.06-.2.57a7.2,7.2,0,0,1,.23,1.26H92.76A7.2,7.2,0,0,1,93,22.8c.15-.51.09-.64-.21-.57Zm-5.53-2.45a.4.4,0,0,1,.71,0c.15.27-.07.61-.36.88-.4-.44-.45-.79-.35-.92Zm-.59,1.46c-.14-.21-.19-.32-.12-.52a6.18,6.18,0,0,1,.38-.59c.25,1,1.7,1.89,2.78,2.19H88a4.25,4.25,0,0,1-1.33-1.08Zm-6.82-1.42a.4.4,0,0,1,.71,0c.1.13.06.48-.35.92-.29-.27-.51-.61-.36-.88Zm1,.31a3.77,3.77,0,0,1,.38.59c.07.2,0,.31-.12.52a4,4,0,0,1-1.33,1.08H78.11c1.08-.3,2.53-1.23,2.78-2.19Zm11.57,3.66H75.39a7.21,7.21,0,0,0-.27-1.19H92.73a6.31,6.31,0,0,0-.27,1.19Z"/><path class="cls-1" d="M77.7,23.4s0,0,0,0l.05.12a0,0,0,0,1,0,0h0s0,0,0,0H78s0,0,0,0h0s0,0-.09-.11-.23-.56-.25-.62,0,0,0,0,0,0,0,0l-.25.63c0,.05,0,.09-.09.09h0a0,0,0,0,0,0,0h.23s0,0,0,0h0a0,0,0,0,1,0,0l0-.06,0-.05s0,0,0,0Zm-.27,0s0,0,0,0l.13-.34h0l.13.34s0,0,0,0Z"/><path class="cls-1" d="M78.21,23.25c0,.15,0,.22.09.27a.3.3,0,0,0,.22.07.3.3,0,0,0,.21-.07.39.39,0,0,0,.1-.31v-.32s0-.05,0-.06h0s0,0,0,0h-.23s0,0,0,0h0s0,0,0,.06v.34c0,.1,0,.2-.06.25a.2.2,0,0,1-.14.06.21.21,0,0,1-.13-.05s-.08-.1-.08-.24V23.1a.77.77,0,0,1,0-.21s0-.05,0-.06h0s0,0,0,0h-.27s0,0,0,0h.06a.05.05,0,0,1,0,.06.77.77,0,0,1,0,.21v.15Z"/><path class="cls-1" d="M79.26,23.28a1.35,1.35,0,0,1,0,.22s0,.05,0,.05h0a0,0,0,0,0,0,0h.34a.46.46,0,0,0,.34-.12.36.36,0,0,0,.11-.28.34.34,0,0,0-.1-.25.51.51,0,0,0-.4-.12h-.3s0,0,0,0h.06a.05.05,0,0,1,0,.06.77.77,0,0,1,0,.21v.18Zm.12-.19v-.2s0,0,0,0h.07a.41.41,0,0,1,.29.1.34.34,0,0,1,.1.25.29.29,0,0,1-.09.25.3.3,0,0,1-.23.08c-.08,0-.12,0-.14-.05s0,0,0-.07v-.33Z"/><path class="cls-1" d="M80.65,23.4h0l0,.12s0,0,0,0h0s0,0,0,0h.19s0,0,0,0h-.06s0,0-.09-.11-.22-.56-.25-.62,0,0,0,0,0,0,0,0l-.25.63c0,.05,0,.09-.09.09h0s0,0,0,0h.23a0,0,0,0,0,0,0h0a0,0,0,0,1,0,0,.18.18,0,0,1,0-.06l0-.05a0,0,0,0,1,0,0Zm-.28,0h0l.12-.34h0l.12.34h-.26Z"/><path class="cls-1" d="M81.63,22.91s.05-.07.08-.08h.05s0,0,0,0h-.2s0,0,0,0h0s0,0,0,0a.08.08,0,0,1,0,0,1.91,1.91,0,0,1-.14.21l-.12-.22a0,0,0,0,1,0,0s0,0,0,0h0s0,0,0,0h-.26s0,0,0,0h0a.13.13,0,0,1,.08.07l.18.29-.19.28a.24.24,0,0,1-.09.07h0a0,0,0,0,0,0,0h.25s0,0,0,0h0s0,0,0,0a.11.11,0,0,1,0-.05l.15-.24.16.28a0,0,0,0,1,0,0h0s0,0,0,0h.21a0,0,0,0,0,0,0h0l-.06,0s-.19-.31-.22-.36l.16-.24Z"/><path class="cls-1" d="M83.29,23.4a0,0,0,0,1,0,0l0,.12s0,0,0,0h0s0,0,0,0h.19s0,0,0,0h-.06s0,0-.09-.11-.22-.56-.25-.62,0,0,0,0,0,0,0,0l-.26.63c0,.05,0,.09-.08.09h0a0,0,0,0,0,0,0H83a0,0,0,0,0,0,0h0a0,0,0,0,1,0,0,.18.18,0,0,1,0-.06l0-.05h.31Zm-.28,0h0l.13-.34h0l.13.34s0,0,0,0Z"/><path class="cls-1" d="M83.91,23.28a1.35,1.35,0,0,1,0,.22s0,.05,0,.05h-.05a0,0,0,0,0,0,0h.29a0,0,0,0,0,0,0h-.07s0,0,0-.05a1.35,1.35,0,0,1,0-.22v-.41h.13c.09,0,.12,0,.12.06h0v0s0,0,0,0,0-.09,0-.12a0,0,0,0,0,0,0h-.66s0,.11,0,.12,0,0,0,0h0s0,0,0,0,0,0,.1,0h.15v.41Z"/><path class="cls-1" d="M85.67,23.2h.15s.05,0,.05,0a0,0,0,0,1,0,0s0,0,0,0,0,0,0,0v-.08a.18.18,0,0,0,0-.06h0a.05.05,0,0,1,0,0h-.18v-.25h.16a.09.09,0,0,1,.07,0v0h0v-.08a.2.2,0,0,1,0-.05h-.48s0,0,0,0h0s.05,0,.05.06v.39a1.28,1.28,0,0,1,0,.22s0,.05,0,.05h-.06a0,0,0,0,0,0,0h.29a0,0,0,0,0,0,0h-.07s0,0,0-.05v-.3Z"/><path class="cls-1" d="M86.31,23.28v.22s0,.05,0,.05h0a0,0,0,0,0,0,0h.28a0,0,0,0,0,0,0h-.07s0,0,0-.05v-.61s0-.05,0-.06h0s0,0,0,0h-.25s0,0,0,0h0a.06.06,0,0,1,0,.06v.39Z"/><path class="cls-1" d="M86.92,23.28a1.35,1.35,0,0,1,0,.22s0,.05,0,.05h0a0,0,0,0,0,0,0h.34a.44.44,0,0,0,.34-.12.36.36,0,0,0,.11-.28.34.34,0,0,0-.09-.25.53.53,0,0,0-.41-.12h-.3s0,0,0,0h.05s0,0,0,.06v.39Zm.12-.19v-.2s0,0,0,0h.06a.4.4,0,0,1,.29.1.34.34,0,0,1,.1.25.29.29,0,0,1-.09.25.3.3,0,0,1-.23.08c-.08,0-.12,0-.13-.05s0,0,0-.07a.93.93,0,0,1,0-.21v-.12Z"/><path class="cls-1" d="M88,23.28a1.35,1.35,0,0,1,0,.22s0,.05,0,.05h0a0,0,0,0,0,0,0h.41s0,0,0,0a.43.43,0,0,0,0-.11s0,0,0,0,0,0,0,0,0,.06,0,.07h-.09c-.11,0-.12,0-.12-.08a.85.85,0,0,1,0-.16V23.2h.15s0,0,0,0a.08.08,0,0,1,0,0s0,0,0,0v0s0-.05,0-.07a.17.17,0,0,1,0-.07,0,0,0,0,0,0,0h0s0,0,0,0h-.16v-.26h.15s.06,0,.06,0a.08.08,0,0,1,0,0s0,0,0,0,0,0,0,0v-.06a.32.32,0,0,0,0-.07h-.46s0,0,0,0h0s0,0,0,.06v.39Z"/><path class="cls-1" d="M88.91,23.1v-.21s0-.05,0-.06H89s0,0,0,0h-.27s0,0,0,0h0a.05.05,0,0,1,0,.06v.61s0,.05,0,.05h0s0,0,0,0h.42s.06,0,.06,0a.6.6,0,0,0,0-.12h0a.11.11,0,0,1,0,.06s-.06,0-.12,0a.22.22,0,0,1-.12,0s0-.09,0-.22V23.1Z"/><path class="cls-1" d="M89.54,23.28v.22s0,.05,0,.05h-.06a0,0,0,0,0,0,0h.29a0,0,0,0,0,0,0h-.07s0,0,0-.05v-.61s0-.05,0-.06h0s0,0,0,0h-.25s0,0,0,0h0a.05.05,0,0,1,0,.06v.39Z"/><path class="cls-1" d="M90.24,23.59a.32.32,0,0,0,.16,0,.21.21,0,0,0,.09-.18c0-.09,0-.16-.16-.26l0,0c-.08-.06-.11-.1-.11-.14a.13.13,0,0,1,.23-.06.17.17,0,0,1,0,.07s0,0,0,0,0,0,0,0v-.13a0,0,0,0,0,0,0h-.13c-.15,0-.24.08-.24.19s0,.15.15.24l.05,0c.08.07.1.11.1.17a.13.13,0,0,1-.14.11.14.14,0,0,1-.14-.1.11.11,0,0,1,0-.05s0,0,0,0,0,0,0,0,0,.07,0,.13,0,0,0,0a.33.33,0,0,0,.15,0Z"/><path class="cls-1" d="M87.2,2.8c0-.15-.27-.27-.34-.27s-.27.24-.42.39a2.67,2.67,0,0,1,0-1.36,1,1,0,0,0,.94.65c-.74-.59-.61-1.12-.84-1.15a1.45,1.45,0,0,0-.28,0c-.26,0-.3.51-.33.73a5.76,5.76,0,0,0-.62-.93c-.27-.7-.6-.52-.94-.84.26.4.05.64.66.93a3.73,3.73,0,0,1,.47.58,1.71,1.71,0,0,1-.27.31,3.72,3.72,0,0,1-.35.87,1.18,1.18,0,0,0,.61-.57c1.1.83.21,3,0,3.42a2.37,2.37,0,0,0-.84-.31l0-.09-.26-.84h.12c.14,0,.17-.09.15-.17l.76.24.34.1-.21-.28-.35-.49.35-.49.21-.28-.34.1-.68.21A.38.38,0,0,0,84.36,3l.23-.77.1-.33-.28.2-.49.35-.49-.35-.28-.2.1.33.23.77a.36.36,0,0,0-.31.25L82.48,3l-.33-.1.2.28.36.49-.36.49-.2.28.33-.1.77-.24c0,.08,0,.17.14.17h.12l-.26.84,0,.09a2.3,2.3,0,0,0-.85.32c-.74-1.44-.53-2.89.09-3.38a1.29,1.29,0,0,0,.38.81c-.08-.32.06-.88-.1-1a.69.69,0,0,0-.48-.14,9.76,9.76,0,0,1,.6-.86,1.63,1.63,0,0,0,.67-1c-.48.17-.82.42-.9.82a9.65,9.65,0,0,0-.56.8.46.46,0,0,0-.47-.53c-.8.16-.74.74-1.43,1.14.47.17,1.2-.87,1.45-.75A11.9,11.9,0,0,1,81.52,3c-.12-.13-.18-.22-.28-.24a.7.7,0,0,0-.55.21,5.52,5.52,0,0,1-.34,1.64,3.34,3.34,0,0,0,.73-1.44,1.92,1.92,0,0,1,.27.8,5.33,5.33,0,0,0,.71,2,.82.82,0,0,0-.08.54A.46.46,0,0,0,81.8,7a.45.45,0,0,0,.58.19l.09,0a3.68,3.68,0,0,1,1.45-.33,3.79,3.79,0,0,1,1.46.33l.08,0A.47.47,0,0,0,86.05,7a.47.47,0,0,0-.18-.58.88.88,0,0,0-.1-.58h0c.55-.78.58-2.27,1-2.69,0,.52.32.95.59,1a2.9,2.9,0,0,1-.2-1.4Zm-2.51.69.4-.12-.19.27-.05.07.05.07.19.27-.51-.16a1.14,1.14,0,0,0,.11-.4Zm-1.94.56.2-.27,0-.07,0-.07-.2-.27.4.12a1.83,1.83,0,0,0,.11.4l-.51.16Zm1.61-.13H84l0-.57c.48-.21.44.23.29.57Zm-.1,1L84,4.68l-.07,0-.07,0-.27.2.18-.57h.33l.17.57Zm-.41-2.19.07.05L84,2.69l.28-.2L84.11,3h0a.18.18,0,0,0-.17-.11.18.18,0,0,0-.17.11h0l-.16-.54.27.2Zm-.36,1.23c-.16-.34-.2-.78.28-.57l0,.57Zm.43,1,.38.28-.38,0-.38,0,.38-.28Zm-1.56,2-.09,0c-.11,0-.19,0-.21,0s0-.15.13-.24l0,0,.27.22-.15.06Zm.91-.29L83,6.34a5.52,5.52,0,0,1,.71-.11l.17.33a2.91,2.91,0,0,0-.6.06Zm1.55.06-.16-.38a3.58,3.58,0,0,1,.7.21l.09.39a4,4,0,0,0-.63-.22Zm-.9-.75a4.17,4.17,0,0,0-1.58.33A.46.46,0,0,1,82.45,6a2.14,2.14,0,0,1,1.47-.44A2.16,2.16,0,0,1,85.4,6a.54.54,0,0,1,.11.27,4.18,4.18,0,0,0-1.59-.33Z"/><path class="cls-1" d="M80.15,14.33c.07-.61,0-.65-.21-.8s-.4-.16-.65-.34-.23-.3-.46-.54c.06-.63.73-1.4,1-1.29v-.31c-.3-.09-.82.19-1.27,1.25a.45.45,0,0,0-.14-.11.79.79,0,0,0-.2-.63c.15-.11.61-.32.88-.51s.34-.3.71-.21a.51.51,0,0,0,.08-.17c-.26-.34-.64-.24-.9.07a4.55,4.55,0,0,1-1,.59,19.68,19.68,0,0,1-1.62-1.2,3.34,3.34,0,0,0,1-.13.75.75,0,0,0,.21-.71l-.4-.19-.43-.28a2,2,0,0,0-.9-.53c0-.23.08-.18.3-.32a1.58,1.58,0,0,0,.54-.64c.09-.18,0-.54-.23-.08a.94.94,0,0,1-.54.44,1.85,1.85,0,0,0,0-.3A1.2,1.2,0,0,0,76.47,6c0-.24-.27-.35-.26-.09a.81.81,0,0,1-.34.93,1,1,0,0,0-.12-.42A1.16,1.16,0,0,0,75.83,5c-.12-.16-.42-.22-.28,0s.28.79,0,1c-.11-.14-.24-.19-.29-.38a3.38,3.38,0,0,0-.08-1.25c-.08-.21-.28-.34-.26,0a5.67,5.67,0,0,1,0,.82s-.5-.41-.69-.54-.42-.08-.2.18.8.67.72.82-.47-.27-.7-.34-.29,0-.1.19a2.57,2.57,0,0,0,1,.59c.5.17.75.86.59,1.85,0,0-.09,0-.14,0a3.68,3.68,0,0,0-.18-1c-.12-.26-.35-.26-.27.09A2.47,2.47,0,0,1,75,8a1.79,1.79,0,0,1-.74-.28,7.39,7.39,0,0,1,.1-.79c0-.28-.15-.46-.24-.11s-.15.5-.21.74a.71.71,0,0,1-.3-.16s0-.41,0-.68-.15-.3-.24,0a2,2,0,0,0-.09.49A.57.57,0,0,1,73,6.82a7.84,7.84,0,0,1,.12-.88c0-.15-.08-.46-.2-.09s-.11.5-.16.69c-.11,0-.25-.62-.32-1,0-.18-.18-.39-.21,0a2.25,2.25,0,0,0,.17,1.08c-.21,0-.41-.41-.56-.63s-.19,0-.18.09a1.33,1.33,0,0,0,1,1.11,4.31,4.31,0,0,0,2,1.2c-.92,0-1.16.36-1.58.12a.64.64,0,0,0,.36.59,1.25,1.25,0,0,0,.28.08c.08.42.48.4.82.42a3.45,3.45,0,0,0,.73,2.7c0,.42,0,1,0,1.32A6.44,6.44,0,0,0,73.88,16a1.57,1.57,0,0,1-.74,1,.76.76,0,0,0,1,0,2.71,2.71,0,0,0,.12.63,1.15,1.15,0,0,0-.27.74.78.78,0,0,0-.42.3c-.07.08,0,.46.08.61a5.1,5.1,0,0,1,0,2.06c.1,0,.28,0,.32-.13a.77.77,0,0,1,.27.39c0,.09-.07.46.11.5a1.78,1.78,0,0,0,.9-.09,2.23,2.23,0,0,1-.25-.43,1.3,1.3,0,0,0-.07-.49,3.26,3.26,0,0,0-.38-.56,6.4,6.4,0,0,1,0-1.55,4.64,4.64,0,0,0,1.57-1.81c.22.07.15.65.15,1.39,0,.2.25.31.39.32.31,0,.76.34,1.26,1.08a2.77,2.77,0,0,1,.23-.2,2,2,0,0,1,.18.44.94.94,0,0,0,.77.07c.1,0,.17,0,.23-.16a4.45,4.45,0,0,0-1.13-1.53c-.24-.17-.55-.26-.81-.43a4.15,4.15,0,0,0,.36-2.42.84.84,0,0,0-.9-.29,12,12,0,0,0,1.22-1.61c.09.11.54,0,.87.16a1.45,1.45,0,0,1,.47.64,3.33,3.33,0,0,1-.14,1.34.75.75,0,0,0,.24-.08,1,1,0,0,1-.21.65c0,.27.16.69.29.76.17-.5.79-1.21.77-1.63s-.28-1-.25-1.29ZM74.1,9.1a3,3,0,0,0-.17-.26c.35-.22.78,0,1-.29a.82.82,0,0,0,.52,0c.37,0,.82.33,1.15.57a.94.94,0,0,0,.34.18c-.09.28-.06.34.18.39,0,.09-.08.14-.36.12a3.93,3.93,0,0,0-.76,0c-.82.43-1.09-.26-1.09-.68h0c-.48.26-.71.15-.84,0Zm3.33,6.76c.29.37-.12,1.88-.27,2.16s.11.4.24.43a2.38,2.38,0,0,1,1.4,1.17l-.21.09c-.45-.62-.57-.42-.69-.3-.11-.2-.66-.81-1-.85s-.31-.22-.29-.39a5.31,5.31,0,0,0,0-1.06c0-.21-.23-.46-.36-.47.06-.17,0-.69.42-.9a.75.75,0,0,1,.78.12Zm2.47.32a.12.12,0,0,1-.12-.07,1.36,1.36,0,0,0,.1-.61.23.23,0,0,1-.18,0,2.51,2.51,0,0,0,0-1.14,1.47,1.47,0,0,0-.48-.62,1.51,1.51,0,0,0-.65-.23c-.68-.58-.87-.23-1.36-.29A2.25,2.25,0,0,0,77,13l-.22.16a1.75,1.75,0,0,1,.26.43,2.13,2.13,0,0,1,.78,0,6.74,6.74,0,0,1-1.31,1.66c-.63.7-.63.85-.61,1.39s-.88,1.61-1.56,2.07a6.8,6.8,0,0,0,0,1.81c0,.08.24.3.36.48a1.67,1.67,0,0,1,.06.47.35.35,0,0,1-.23,0A1.1,1.1,0,0,0,74,20.8a3.83,3.83,0,0,0-.12-2c0-.07.35-.28.35-.28a1.74,1.74,0,0,1,.46-.86,5.34,5.34,0,0,1-.27-1.46,1.44,1.44,0,0,1-.38.35c.63-2,.76-1.44,1.5-2.9.52-2.35-.84-2.82-.64-3.63.47.44.72.3,1.11.19.35.3.85,1,1.33,1.12A1,1,0,0,1,78,12.63a.82.82,0,0,1,.69.3c.54.83.88.58,1.17.93.13.17,0,.63.16,1.05a2.31,2.31,0,0,1,.15.69c0,.14-.19.39-.22.58Z"/><path class="cls-1" d="M75.84,9.27c.16,0,.24-.1.38,0,0-.05-.1-.05-.12-.09v0a.31.31,0,0,0-.31-.31c-.06.13-.27.22-.39.29l.09,0c.15.05.13.19.35.17Z"/><path class="cls-1" d="M88.05,10.62H79.64v3.1a.44.44,0,0,1,.17.14c.13.17,0,.63.16,1.05,0,0,0,0,0,.05H83.8V21a6.92,6.92,0,0,1-2.2-1.42A5.26,5.26,0,0,1,80,16a.82.82,0,0,0-.06.19.12.12,0,0,1-.12-.07,1.36,1.36,0,0,0,.1-.61.23.23,0,0,1-.18,0,2.51,2.51,0,0,0,0-1.14l0-.08v1.44a5.51,5.51,0,0,0,1.75,4.1,7,7,0,0,0,2.48,1.56l0,0,0,0a7.12,7.12,0,0,0,2.49-1.56,5.54,5.54,0,0,0,1.74-4.1v-.27c-.1.16-.2.26-.31.28a5.22,5.22,0,0,1-1.65,3.87A6.79,6.79,0,0,1,84.05,21V15h3.84v.57a2.15,2.15,0,0,0,0-2v1.15H80v-3.8h7.94v2.62c.11-.07.22,0,.31.17V10.62Z"/></g></g></svg>