<svg version="1.1" id="Layer_1" 
    xmlns="http://www.w3.org/2000/svg" 
    xmlns:xlink="http://www.w3.org/1999/xlink" x="0px" y="0px" viewBox="0 0 31.6 22.5" style="enable-background:new 0 0 31.6 22.5;" xml:space="preserve">
    <style type="text/css">
	.st0{fill:#3695D9;}
    </style>
    <g>
        <path class="st0" d="M12,10.7c-0.1-0.4-0.2-0.8-0.2-1.3C11.9,7.6,12,6.4,13.2,4c0.3-0.6,0.1-1.5-0.4-2.3C12.1,0.4,10.5,0,9.2,0   C4.2,0,0,11,0,15.4c0,1.2,0.1,2.9,0.8,4c1.6,2.6,3.6,3.1,6.4,3.1c2.6,0,5-0.7,6.2-2.9c0.4-0.6,0.8-1.9,0.8-2.6v-1.3   c0-0.8-0.3-2.5-0.6-3C13.2,12.1,12.4,11.4,12,10.7z"/>
        <path class="st0" d="M31,12.8c-0.5-0.7-1.2-1.4-1.7-2.1c-0.1-0.4-0.2-0.8-0.2-1.3c0.1-1.7,0.2-2.9,1.5-5.4c0.3-0.6,0.1-1.5-0.4-2.3   C29.5,0.4,27.9,0,26.6,0c-5,0-9.2,11-9.2,15.4c0,1.2,0.1,2.9,0.8,4c1.6,2.6,3.6,3.1,6.4,3.1c2.6,0,5-0.7,6.2-2.9   c0.4-0.6,0.8-1.9,0.8-2.6v-1.3C31.6,15,31.4,13.3,31,12.8z"/>
    </g>
</svg>