<svg width="40" height="40" viewBox="0 0 40 40" fill="none" xmlns="http://www.w3.org/2000/svg">
<rect width="40" height="40" fill="white"/>
<path fill-rule="evenodd" clip-rule="evenodd" d="M19.998 26.0157C18.482 27.7903 16.4031 29.8353 13.8466 31.4204C13.4128 31.6916 12.9283 31.8715 12.4227 31.9493C11.9171 32.027 11.401 32.0009 10.9058 31.8727C10.4107 31.7444 9.94676 31.5165 9.5424 31.203C9.13805 30.8896 8.80171 30.497 8.55388 30.0492C8.02531 29.141 7.86743 28.0637 8.11314 27.0419C8.35885 26.02 8.9892 25.1325 9.87278 24.5644C11.7749 23.3299 13.4496 21.7759 14.8229 19.9708C13.4073 18.2193 11.739 16.6885 9.87278 15.4287C8.04002 14.2974 7.45765 11.8292 8.55388 9.94382C8.80171 9.49605 9.13805 9.10346 9.54241 8.78997C9.94676 8.47648 10.4107 8.24865 10.9058 8.12036C11.401 7.99207 11.9171 7.96601 12.4227 8.04376C12.9283 8.12151 13.4128 8.30145 13.8466 8.57261C16.1425 10.0888 18.2101 11.9121 19.995 13.9859C21.5118 12.2117 23.5917 10.1674 26.1491 8.58268C26.5832 8.31155 27.0679 8.13164 27.5738 8.0539C28.0796 7.97616 28.596 8.00222 29.0915 8.13049C29.5869 8.25876 30.0511 8.48656 30.4557 8.80002C30.8602 9.11347 31.1968 9.506 31.4447 9.95371C31.9736 10.8618 32.1316 11.939 31.8857 12.9606C31.6399 13.9823 31.0092 14.8697 30.1251 15.4378C28.2219 16.6721 26.5464 18.226 25.1723 20.0308C26.5887 21.7821 28.2579 23.3127 30.1251 24.5723C31.9589 25.7034 32.5416 28.1713 31.4447 30.0564C31.1968 30.5041 30.8602 30.8967 30.4557 31.2101C30.0511 31.5236 29.5869 31.7514 29.0915 31.8797C28.596 32.0079 28.0796 32.034 27.5738 31.9562C27.0679 31.8785 26.5832 31.6986 26.1491 31.4275C23.8523 29.9117 21.7838 28.0889 19.998 26.0157Z" fill="#5A5A87"/>
</svg>
