<svg width="23" height="16" viewBox="0 0 23 16" fill="none" xmlns="http://www.w3.org/2000/svg">
<path d="M22.0404 2.82116C21.792 1.8857 21.0601 1.14898 20.1305 0.898963C18.446 0.44458 11.6907 0.44458 11.6907 0.44458C11.6907 0.44458 4.93555 0.44458 3.25095 0.898963C2.32138 1.14898 1.58927 1.8857 1.34099 2.82116C0.889648 4.51672 0.889648 8.05448 0.889648 8.05448C0.889648 8.05448 0.889648 11.5921 1.34099 13.2878C1.58927 14.2233 2.32138 14.9599 3.25086 15.2102C4.93546 15.6644 11.6906 15.6644 11.6906 15.6644C11.6906 15.6644 18.4459 15.6644 20.1304 15.2102C21.06 14.96 21.7919 14.2233 22.0404 13.2879C22.4918 11.5921 22.4918 8.05457 22.4918 8.05457C22.4918 8.05457 22.4918 4.51681 22.0404 2.82125" fill="#5A5A87"/>
<path d="M9.48096 11.2661L15.127 8.05432L9.48096 4.84216V11.2661Z" fill="white"/>
</svg>
