<svg xmlns="http://www.w3.org/2000/svg" viewBox="0 0 24 24"><path d="M18.41 4.16a1.44 1.44 0 1 0 0 2.88 1.44 1.44 0 0 0 0-2.88M12 16a4 4 0 1 1 0-8 4 4 0 0 1 0 8m0-10.16a6.16 6.16 0 1 0 0 12.33 6.16 6.16 0 0 0 0-12.33M12 0C8.74 0 8.33.01 7.05.07 2.69.27.27 2.69.07 7.05.01 8.33 0 8.74 0 12s.01 3.67.07 4.95c.2 4.36 2.62 6.78 6.98 6.98 1.28.06 1.69.07 4.95.07s3.67-.01 4.95-.07c4.35-.2 6.78-2.62 6.98-6.98.06-1.28.07-1.69.07-4.95s-.01-3.67-.07-4.95C23.74 2.7 21.31.27 16.95.07A84.51 84.51 0 0 0 12 0m0 2.16c3.2 0 3.58.01 4.85.07 3.25.15 4.77 1.69 4.92 4.92.06 1.26.07 1.65.07 4.85 0 3.2-.01 3.58-.07 4.85-.15 3.22-1.66 4.77-4.92 4.92-1.27.06-1.64.07-4.85.07-3.2 0-3.58-.01-4.85-.07-3.26-.15-4.77-1.7-4.92-4.92A81.35 81.35 0 0 1 2.16 12c0-3.2.01-3.58.07-4.85.15-3.23 1.67-4.77 4.92-4.92 1.27-.05 1.65-.07 4.85-.07" fill-rule="evenodd" clip-rule="evenodd" fill="#413f65"/></svg>