<svg xmlns="http://www.w3.org/2000/svg" viewBox="0 0 742.01 223.44"><defs><style>.cls-1{fill:#fff;}.cls-2{fill:#8dc4eb;}</style></defs><title>Bluey-big-play-dont use</title><g id="Layer_2" data-name="Layer 2"><g id="Layer_1-2" data-name="Layer 1"><path class="cls-1" d="M466.42,157l-.07-.22a16.54,16.54,0,0,0-1.81-3.59,11.37,11.37,0,0,0,2.24-7c0-7.93-4.78-14.76-12.15-18.69,13.38-6.63,20.9-19,20.9-35.62,0-15.3-12.22-25-23-32.25h.87c10.71-.52,17.91-7.71,17.91-17.88,0-16.39-15.35-28.29-36.5-28.29A41.65,41.65,0,0,0,407.22,23.7a13.49,13.49,0,0,0-1.13-2.33c-4.32-7.12-10.73-7.94-15.19-7.94-7.52,0-11.66,3.29-13.81,6.06a23.41,23.41,0,0,0-2-5.39,16.66,16.66,0,0,0-5.66-6.39,15,15,0,0,0-7.93-2.59l-1,0c-.55,0-1.1,0-1.64,0a12.64,12.64,0,0,0-2.37.26,23,23,0,0,0-9.16,4.2A18,18,0,0,0,344.67,12a20.63,20.63,0,0,0-3.23,4.49,2.26,2.26,0,0,1-.11.22A55.42,55.42,0,0,0,338.09,23a55.82,55.82,0,0,0-3.26,9.78,67,67,0,0,1-2.32,7.94c-.46,1.21-1,2.52-1.84,4.25-.08.18-.16.36-.25.54-.19-1-.35-1.85-.49-2.64l-.07-.38c0-.2-.08-.39-.1-.58s-.09-.67-.14-1-.11-.89-.17-1.33c-.18-1.2-.3-2.19-.39-3.1L329,35.7c-.06-.56-.12-1.09-.13-1.46l0-1.09-.17-.61s0-.72,0-.72a10.16,10.16,0,0,0-.2-1.8c0-.28,0-.56-.05-.84,0-.51-.1-1-.17-1.52l0-.44a11.67,11.67,0,0,0-.19-1.64c-.1-.48-.18-1.09-.26-1.72s-.19-1.43-.32-2.14a33.91,33.91,0,0,0-.89-3.84,25.15,25.15,0,0,0-2.05-4.83,27.11,27.11,0,0,0-4.16-5.78,26.58,26.58,0,0,0-2.66-2.44,22.35,22.35,0,0,0-5.92-3.47A19.19,19.19,0,0,0,307.05.18l-.29,0A10.32,10.32,0,0,0,305.1,0a9.63,9.63,0,0,0-1.43.1l-.36,0a19.26,19.26,0,0,0-2.55.45,17.56,17.56,0,0,0-7,3.65A25.73,25.73,0,0,0,288,11.44a22.74,22.74,0,0,0-2,5.33,44.65,44.65,0,0,0-1.22,5.78c0,.26-.08.51-.12.77-.12.63-.22,1.27-.29,1.91,0,.2-.06.4-.08.6a21.64,21.64,0,0,0-.25,2.42,14.41,14.41,0,0,0-.2,2.28v.18c0,.35,0,.69,0,1,0,.19,0,.38,0,.57a10,10,0,0,0-.19,2.32v3.18a18,18,0,0,0-2.11-1.29,22.73,22.73,0,0,0-9-2.59,13.74,13.74,0,0,0-2.64-.21h-2.21a10.67,10.67,0,0,0-2.14.19l-.66,0a14.66,14.66,0,0,0-2.73.27l-.48.06-.55.09c-.73.11-1.45.23-2.17.38a39.79,39.79,0,0,0-5.52,1.6,35.68,35.68,0,0,0-6.12,2.93A38.17,38.17,0,0,0,239.88,45l-.76.76-.91.91a9.34,9.34,0,0,0-.15-1c-.06-.32-.11-.64-.16-1a28.35,28.35,0,0,0-.64-3.07,24.85,24.85,0,0,0-3.6-8,21.08,21.08,0,0,0-5.9-5.62,28.14,28.14,0,0,0-4.58-2.36,26.75,26.75,0,0,0-7-1.7,11.87,11.87,0,0,0-1.29-.07h-.33a17.15,17.15,0,0,0-2.75.25l-.27.05-.79.06-.78.2a20.67,20.67,0,0,0-8.8,4.67,22.86,22.86,0,0,0-3,3.27v-.5a21.91,21.91,0,0,0-.42-4.68,33.91,33.91,0,0,0-1.61-5.81,23.62,23.62,0,0,0-3.46-6.19,18.55,18.55,0,0,0-3.48-3.4A18.82,18.82,0,0,0,178.89,8.2l-.74,0a18.22,18.22,0,0,0-2.87.26l-.27,0a23.14,23.14,0,0,0-3.89.86,31,31,0,0,0-7,3.15,32,32,0,0,0-6.44,5.09,18.22,18.22,0,0,0-3.08,4.34,39,39,0,0,0-1.94,4.6,51.35,51.35,0,0,0-1.76,6.38c-.22,1.1-.41,2.22-.56,3.32l-.06.38c-.08.61-.18,1.33-.24,2.16,0,.11-.06.53-.06.53-.06.48-.11,1-.14,1.46s0,.92,0,1.38v.41c0,.19,0,.41,0,.66s0,.41-.06.61a25.85,25.85,0,0,0-2.69-6A23.19,23.19,0,0,0,135.14,28a26.76,26.76,0,0,0-9.55-1.81h-2.12a23.11,23.11,0,0,0-6.4,1A28.81,28.81,0,0,0,107.43,32a29.39,29.39,0,0,0-2.29,2l-.44.39a13.62,13.62,0,0,0-1.31,1.41l-.51.61A22.51,22.51,0,0,0,98.6,43.8a29,29,0,0,0-1.09,4.3l0,.2a15.69,15.69,0,0,0-.27,1.84c0,.24-.06.49-.09.73a23.22,23.22,0,0,0-.23,2.48A14.54,14.54,0,0,0,96.69,56c0,2.5,0,5,0,7.51a10.74,10.74,0,0,0,.19,2.44c0,.18,0,.36,0,.55s0,.63,0,.93v.12a12.62,12.62,0,0,0,.21,2.25c0,.06,0,.31,0,.47l-.56-.55A40.17,40.17,0,0,0,92,65.86a43.43,43.43,0,0,0-7.7-4.62l-.17-.08c-.72-.35-1.45-.67-2.18-1,.13-.85.25-1.74.32-2.68,0-.15,0-.31.07-.46l0-.21c.06-.49.12-1,.14-1.49,0-.2,0-.74,0-.8a11.58,11.58,0,0,0,.2-2.32V45.75a13.91,13.91,0,0,0-.11-1.65s-.12-1-.13-1.18V43a14.3,14.3,0,0,0-.17-1.72l-.08-.47c-.24-1.37-.51-2.93-1-4.57a30.47,30.47,0,0,0-5.6-11.07,28.36,28.36,0,0,0-5.86-5.42,36.79,36.79,0,0,0-8.8-4.47,65.54,65.54,0,0,0-8.67-2.42c-1-.21-2.28-.45-3.61-.62l-.56-.08a21.68,21.68,0,0,0-2.63-.28A14.31,14.31,0,0,0,43,11.7H39.78a22.39,22.39,0,0,0-3.56.25h-.28a12.94,12.94,0,0,0-1.5.17l-.62.11a44.59,44.59,0,0,0-4.4.94,33.19,33.19,0,0,0-4.72,1.62,38.6,38.6,0,0,0-7.87,4.53,42.66,42.66,0,0,0-4.64,4A33,33,0,0,0,9.83,26a38.79,38.79,0,0,0-4,5.77A39.62,39.62,0,0,0,2,41.83l-.05.23a20.41,20.41,0,0,0-.56,3.42c0,.12,0,.25-.06.41-.06.45-.12.91-.14,1.39l0,.93A14.59,14.59,0,0,1,1,49.78a17.52,17.52,0,0,0-.15,2.86v.63a19.11,19.11,0,0,0-.2,2.83v.26s0,1.92,0,2.34l-.07.74c0,.39-.1.93-.12,1.58l0,2.73,0,1.77a17.54,17.54,0,0,0-.18,2.74L.16,76.84A17.38,17.38,0,0,0,0,79.31V90.66A12.94,12.94,0,0,0,.17,93c0,.11.06,11.16.06,11.16a12.14,12.14,0,0,0,.17,2.44c0,.13,0,1.2,0,1.2,0,.42,0,.83,0,1.24s0,.88,0,1.32a30.45,30.45,0,0,0,.21,4.38A24.69,24.69,0,0,0,1,118.08c0,.18.05.35.07.52a19.78,19.78,0,0,0,.32,2,30.79,30.79,0,0,0,3.17,8.71A21.45,21.45,0,0,0,8,133.91a20.41,20.41,0,0,0,3.79,3,45.36,45.36,0,0,0,7.74,3.76c1.39.54,2.75,1,3.95,1.33l.37.11c1,.3,1.95.56,2.93.82,2.42.64,4.81,1.1,7,1.51.35.07.7.12,1.06.17l.32,0a18,18,0,0,0,2.08.33l.39.05.65.11c.77.12,1.71.28,2.75.36a13.73,13.73,0,0,0,2.2.25,15.68,15.68,0,0,0,2.54.24h.09a19.21,19.21,0,0,0,2.77.23h.63a11.29,11.29,0,0,0,2.21.21h7.42a12.29,12.29,0,0,0,2.45-.21l.45,0a12.54,12.54,0,0,0,1.92-.18c.51-.09,1-.17,1.54-.24.83-.12,1.65-.25,2.48-.41a60,60,0,0,0,7-1.79,65.37,65.37,0,0,0,9-3.65c1.8-.89,3.44-1.71,5.13-2.68a59.46,59.46,0,0,0,6.33-4,42.21,42.21,0,0,0,4.86-4.19c.61-.63,1.13-1.23,1.59-1.76l.29-.34a31.14,31.14,0,0,0,2.46-3.28c.14.3.3.62.49.95a35,35,0,0,0,2.43,3.84,25.63,25.63,0,0,0,1.65,2c.19.22.39.43.57.66a10,10,0,0,0,1.69,1.67l.28.22a19.59,19.59,0,0,0,2.77,2.19,32.48,32.48,0,0,0,5.79,3.2,45,45,0,0,0,5,1.7c1.15.31,2.3.57,3.44.77v.72H139a21.76,21.76,0,0,0,4.57-.54,36.94,36.94,0,0,0,8.56-3,47.35,47.35,0,0,0,6.37-3.83c.78-.56,1.53-1.14,2.26-1.74a23.58,23.58,0,0,0-.66,5.53c0,.62,0,1.25,0,1.89a12.11,12.11,0,0,0,.13,1.83c.14.92.28,1.83.44,2.74A31.81,31.81,0,0,0,164.67,155a37.25,37.25,0,0,0,5.66,7.31c.79.8,1.58,1.5,2.28,2.12l.17.15a43.4,43.4,0,0,0,3.71,2.94,64.26,64.26,0,0,0,8.09,4.88c1.8.93,3.56,1.68,5.12,2.35,2,.83,4.09,1.64,6.51,2.46.77.26,1.54.51,2.32.74l1.36.43c1.46.48,2.85.83,4.19,1.18l.46.12c1.69.44,3.51.86,5.75,1.33,2.81.6,5.4,1.07,7.93,1.46l1.09.15.78.12.68.1c.76.13,1.68.28,2.7.36a13.16,13.16,0,0,0,2.19.25,193.42,193.42,0,0,0,5,.49h0a17.76,17.76,0,0,0,2.78.22l.81,0a18,18,0,0,0,2.75.21l2.71,0a16.89,16.89,0,0,0,2.78.18h11.92v-.22h.72a10.67,10.67,0,0,0,2.2-.2l.64,0a16.51,16.51,0,0,0,2.76-.23h0a15.64,15.64,0,0,0,2.27-.22,20.91,20.91,0,0,0,2.46-.27l.62-.09c1.09-.11,2.07-.28,2.94-.44l1.23-.21c2.27-.33,4.42-.82,6.25-1.26,1-.25,2-.52,2.8-.77l1-.29c2.4-.68,4.68-1.47,6.79-2.23,1.46-.52,2.86-1.08,4.21-1.62l1.16-.46c2.67-1.05,5.18-2.22,7.07-3.12,3-1.43,5.78-3,7.87-4.27a78.92,78.92,0,0,0,7.61-5.15c.81-.63,1.6-1.28,2.4-1.93l.63-.52c.54-.44,1-.9,1.57-1.37.37-.34.73-.66,1-.86l.44-.33.38-.39,1.44-1.42a70,70,0,0,0,4.85-5.08c.43-.51.87-1,1.32-1.5l.78-.86c.2-.24.41-.48.61-.73l.75-1c.46-.59.93-1.19,1.4-1.77l0,0c0,.1,0,.2,0,.3,0,.92,0,1.9,0,2.95s0,2.29,0,3.55v21.59c0,2.74,0,9.15,5.83,13.48l.12.09c7.21,5.14,16,5.84,23.69,5.84A36,36,0,0,0,384,186.94c3.88,5.67,11.82,5.68,15.39,5.68,6.1,0,9.15-.19,11.26-.69a12.36,12.36,0,0,0,7.87-5.93,27.67,27.67,0,0,0,18.79,7.21H438a31.8,31.8,0,0,0,20-6.72,26.15,26.15,0,0,0,9.71-20.76v-.38a29.47,29.47,0,0,0-1.19-8.15ZM57.35,98a3.94,3.94,0,0,1-.75,1c-.17.1-.34.2-.5.31a6.16,6.16,0,0,1-1,.43,19.19,19.19,0,0,1-2.68.65,16.71,16.71,0,0,0-2,.21H47.79c0-.43.06-.87.06-1.3s0-.81,0-1.21a18.46,18.46,0,0,1,2.33-.53l.44-.05c.54,0,1.07-.11,1.61-.2.26,0,.94,0,1.3,0H54a11,11,0,0,0,1.4.17,7,7,0,0,1,2,.47Zm95.59-12.57a22.63,22.63,0,0,0-3.23.23c0-.28,0-.54,0-.78s0-.21,0-.31a17.61,17.61,0,0,0,.22-2.46s0-.43,0-.57a17.61,17.61,0,0,0,.22-2.46s0-.47,0-.59a18.1,18.1,0,0,0,.22-2.5s0-.43,0-.54a18.35,18.35,0,0,0,.22-2.51l0-.56a18.21,18.21,0,0,0,.21-2.4v-.14c0-.23,0-.47,0-.7a23.56,23.56,0,0,0,.23-3s0-.54,0-.6a10.41,10.41,0,0,0,.19-2c0-.21,0-.43,0-.65.18,1,.36,2,.52,2.75.21,1.12.45,2.22.69,3.33l.4,1.88c.07.35.15.7.21,1.06a30,30,0,0,0,.82,3.89c.61,2.15,1.33,4.36,2.15,6.56.45,1.22.94,2.42,1.43,3.56a21.23,21.23,0,0,0-3.79-.5Zm18,33.14-.19.13a35.55,35.55,0,0,0,1.86-5.9c.16-.74.32-1.6.44-2.56.59.58,1.16,1.13,1.71,1.64a8.51,8.51,0,0,0,.94.77c1.36,1,2.57,1.88,3.77,2.64l-.78.16A26.33,26.33,0,0,0,170.9,118.58Zm53.87,13.9q-1.5-1-3-2.1L220,129.13c-1.16-.84-2.32-1.67-3.5-2.48-2.41-1.64-5.29-3.56-8.49-5.34l-1-.54a27.87,27.87,0,0,0,14.13-7.29c.41-.37.77-.74,1.11-1.11a14.39,14.39,0,0,0,.19,2.18v.29a17.63,17.63,0,0,0,.25,2.91v.12a12.7,12.7,0,0,0,.16,1.53l.16,1c.16,1,.35,2.14.61,3.32a35.07,35.07,0,0,0,2.08,6.6l.15.36a22.22,22.22,0,0,0,1,2.14c.35.62.7,1.21,1.07,1.79C226.8,133.88,225.71,133.13,224.77,132.48Zm91.65-38c-.52,1.7-1,3.24-1.58,4.7a65.13,65.13,0,0,1-2.92,6.55c-1.06,2.12-1.9,3.7-2.72,5.11-.93,1.6-1.93,3.31-3,5-1.55,2.5-3.18,5-5,7.65a22.58,22.58,0,0,1-1.73,2.18l-.47.54c-.12.14-.24.29-.37.42-.5.52-1,1-1.52,1.53l-.11.08c-.28.23-.69.58-1.16,1.05a18.34,18.34,0,0,1-1.62,1.36c-1.46,1.15-2.68,2.07-3.89,2.84l-.34.21c-.6.37-1.2.75-1.78,1.13-.86.57-1.91,1.12-3,1.71l-.29.15a47.14,47.14,0,0,1-4.81,2.18l1.09-.82.88-.65,2.24-1.7,2.49-2,1.48-1.18c1.36-1.07,2.89-2.28,4.4-3.69a19.32,19.32,0,0,0,1.93-1.72l.25-.25a27,27,0,0,0,5.28-7.21,30.29,30.29,0,0,0,2.73-7.93l.06-.24a14.69,14.69,0,0,0,.4-3.38V104.3a12.29,12.29,0,0,0-.25-2.46A22,22,0,0,0,302,98a16.34,16.34,0,0,0-2.59-4.53,18.23,18.23,0,0,0-5.37-4.4,25.72,25.72,0,0,0-7.76-2.7,23.92,23.92,0,0,0-4.17-.43h-.57a28.76,28.76,0,0,0-3.08.27,20.1,20.1,0,0,0-4.06,1,13.55,13.55,0,0,0-.48-2,14.33,14.33,0,0,0-2.51-4.76,39.17,39.17,0,0,0,4.69-1.66,32.89,32.89,0,0,0,4.53-2.39,25.82,25.82,0,0,0,5.15-4.27,20.87,20.87,0,0,0,2.4-3,21.17,21.17,0,0,0,1.32-2.26c.29.66.58,1.31.89,1.94a55.26,55.26,0,0,0,4.75,8c1.22,1.69,2.52,3.24,3.51,4.4a50.84,50.84,0,0,0,6.13,5.84c1.55,1.21,2.87,2.17,4.15,3a51.39,51.39,0,0,0,6.42,3.71l1.1.55ZM355.5,123.4a28.34,28.34,0,0,0-9.4,1.51l.2-.36c2-3.75,3.92-7.69,5.74-11.71.08-.17.15-.34.26-.6l.34-.8c.19-.46.38-.91.59-1.36.79-1.74,1.49-3.45,2.16-5.1l.25-.63c.61-1.48,1.19-3,1.77-4.45l1.24-3.15c.35-.88.7-1.76,1-2.64.76-2,1.52-3.9,2.26-5.85q.89-2.36,1.74-4.71c.31-.83.6-1.66.9-2.49l.42-1.2.64-1.78c.49-1.35,1-2.69,1.44-4q1.19-3.47,2.34-6.94l.65-2c.5-1.48,1-2.95,1.45-4.44.7-2.24,1.36-4.49,2-6.75s1.15-3.94,1.64-5.81a13.92,13.92,0,0,0,1.43,3.69c2.26,4,6.71,6.33,11.91,6.33a13.18,13.18,0,0,0,5.93-1.4c1.12,9.68,5.63,18.58,12.54,24.44l.11.09c1,.86,2.06,1.65,3.05,2.4a20.46,20.46,0,0,0-2.65-.18A18.2,18.2,0,0,0,397,87.09c-5.53,4-8.69,10.9-8.69,18.84a24.18,24.18,0,0,0,5.06,14.81,20.8,20.8,0,0,0,3.22,3.28c-4.29.32-10.08,1.59-13,6.76a16.47,16.47,0,0,0-1.9,8c0,4.69,1.75,8.53,4.78,10.81v0c0,.27,0,.54,0,.81a23.71,23.71,0,0,0-6.16-4c0-.39,0-.78,0-1.17C380.29,132.57,369.86,123.4,355.5,123.4Z"/><path class="cls-1" d="M741,108.11a48.22,48.22,0,0,0-7.08-16.36,43,43,0,0,0-7.28-8.39,33,33,0,0,0-8.49-5.57,24.81,24.81,0,0,0-4.85-1.72,24.09,24.09,0,0,0-5.87-.74,23.71,23.71,0,0,0-7.24,1.15A31.18,31.18,0,0,0,694.44,79c.36-.9.7-1.8,1-2.71a47.59,47.59,0,0,0,2.09-8.52,33.53,33.53,0,0,0-.32-12.07,25.47,25.47,0,0,0-6.32-12.13,30.41,30.41,0,0,0-6.25-5A57.59,57.59,0,0,0,678,35.05l-2.37-1a78.22,78.22,0,0,0-7.68-3.09A36.65,36.65,0,0,0,662,29.45a27.28,27.28,0,0,0-4.11-.31,25.22,25.22,0,0,0-11.25,2.63,31.36,31.36,0,0,0-7.32,5.08,41.37,41.37,0,0,0-7.54,9.53c-.74,1.25-1.44,2.58-2.12,3.93a33.53,33.53,0,0,0-1.4-4.67,23.57,23.57,0,0,0-6.53-9.39,25.76,25.76,0,0,0-5.81-3.8,31.66,31.66,0,0,0-6.09-2.21,39,39,0,0,0-9.35-1.14h-.1a47.9,47.9,0,0,0-15.09,2.48,46.26,46.26,0,0,0-12,6,37.05,37.05,0,0,0-12.83,15.8,40.89,40.89,0,0,0-2.58,8.94,42.23,42.23,0,0,0,1.18,19.57A33.38,33.38,0,0,0,564.87,93a26.24,26.24,0,0,0,12.36,8.6,30.29,30.29,0,0,0,4.71,1.15c-1.62.87-3.2,1.81-4.74,2.8A68.78,68.78,0,0,0,563.69,117a66.36,66.36,0,0,0-10.3,15.08A56.47,56.47,0,0,0,549.33,143a49.66,49.66,0,0,0-1.45,16.9l-.46,0c.09-4.81.36-10.8.53-14.69.09-2,.15-3.47.17-4.23v-.23c0-.48,0-.95-.06-1.43,0-.12,0-.25,0-.37v-.32l0-.31c-.53-7-3.94-10.44-6.7-12.11-3.2-1.92-6.63-2.18-9.85-2.18-5.32,0-11.16,2.52-13.73,8-5.53-5.18-13.69-8.12-23.69-8.12-4.33,0-15,.7-20.22,7.2l-1.67,2.08-.19,2.67c-.46,6.66-1,15.44-1,24.27a191.63,191.63,0,0,0,1,21.63c.8,6.65,6.76,11.29,14.49,11.29,5.7,0,12.5-2.68,14.86-8.67l.28-.72.15-.76c.26-1.33.46-2.58.61-3.78a30.09,30.09,0,0,0,13.52-6.2c.07.5.12,1,.18,1.49,1.69,11.71,9.8,17.83,24.11,18.19h.64c.59,0,1.36.06,2.49.06,4.3,0,9.17,0,13.41-2.3a14.64,14.64,0,0,0,3.09-2.24c.8,1,1.63,1.93,2.52,2.89a77.45,77.45,0,0,0,9,8.22c2.17,1.71,4.06,3.07,5.94,4.28l1.32.84,1.65,1.07c1.14.75,2.25,1.35,3.23,1.88l.29.15,1.44.77.85.44,1.31.71c1,.54,2,1.08,3,1.6,1.27.63,2.55,1.24,3.83,1.85l1.79.85,1.68.69,4,1.63c.89.35,1.78.68,2.68,1l1.56.54c.71.24,1.41.47,2.1.74a62.08,62.08,0,0,0,6,1.95c2.48.68,5,1.25,7.35,1.71a78.44,78.44,0,0,0,14.79,1.48h.39a55.43,55.43,0,0,0,16.17-2.35,48.92,48.92,0,0,0,20.77-12.64,52.42,52.42,0,0,0,9.69-13.88,59.34,59.34,0,0,0,2.43-5.76,67.29,67.29,0,0,0,2-6.69,68.25,68.25,0,0,0,1-27.66c-.28-1.64-.63-3.26-1-4.87a30.54,30.54,0,0,0,5.55,3.52,25.91,25.91,0,0,0,11.49,2.66h0c.76,0,1.54,0,2.31-.1a33.53,33.53,0,0,0,11.87-3.3,41.72,41.72,0,0,0,14-11A39.57,39.57,0,0,0,740,128.85a36.82,36.82,0,0,0,1.86-8.85A39.68,39.68,0,0,0,741,108.11ZM577.17,162.23l.15-1q.18.23.39.45A6.69,6.69,0,0,0,577.17,162.23Zm19-.49.16-.17c0,.11,0,.21,0,.33C596.27,161.84,596.2,161.8,596.14,161.74ZM624.72,95c-2.49-.31-5-.49-7.47-.55a29.33,29.33,0,0,0,7.17-8.74,24.67,24.67,0,0,0,4,6.55,29.61,29.61,0,0,0,4.29,4.14l-.12,0A78.72,78.72,0,0,0,624.72,95Zm36.86,15.19c-1.14-.88-2.24-1.69-3.33-2.45a32.48,32.48,0,0,0,4.52.42h.42a24.75,24.75,0,0,0,8.55-1.48c-.22.58-.45,1.26-.66,2a29.51,29.51,0,0,0-1,9.18A77.81,77.81,0,0,0,661.58,110.15Z"/><path class="cls-2" d="M245.92,176.13h-3.4a8.5,8.5,0,0,1-1.74-.13,4.17,4.17,0,0,0-.94-.05l-2.69,0a10.21,10.21,0,0,1-1.74-.14,7.91,7.91,0,0,0-1.29-.08,11.39,11.39,0,0,1-2.33-.18,3.21,3.21,0,0,0-.7,0,8.23,8.23,0,0,1-1.85-.18,2.88,2.88,0,0,0-.59-.05,7.91,7.91,0,0,1-1.74-.18,3.2,3.2,0,0,0-.7-.06,5.46,5.46,0,0,1-1.27-.16,1.82,1.82,0,0,0-.46-.06c-1.06-.06-2.09-.27-3.13-.42-.61-.1-1.23-.17-1.85-.27-2.5-.38-5-.85-7.46-1.37-1.8-.37-3.58-.78-5.36-1.24-1.39-.36-2.79-.71-4.16-1.16-1.19-.38-2.39-.73-3.57-1.13q-3-1-5.91-2.23c-1.54-.66-3.08-1.33-4.57-2.09a55.92,55.92,0,0,1-7-4.22,37.12,37.12,0,0,1-3-2.4c-.7-.62-1.4-1.23-2.06-1.9a27.92,27.92,0,0,1-4.36-5.63,23,23,0,0,1-2.9-7.74c-.15-.84-.28-1.69-.41-2.53a4.11,4.11,0,0,1,0-.7c0-.59,0-1.17,0-1.76a14.65,14.65,0,0,1,2-7.58,8.28,8.28,0,0,1,.94-1.34,16,16,0,0,1,3.68-3.22,18.31,18.31,0,0,1,5.31-2.11,16.65,16.65,0,0,1,4.16-.53c.59,0,1.17,0,1.76,0a16.29,16.29,0,0,1,3.48.4,41.71,41.71,0,0,1,6.31,1.71,50.31,50.31,0,0,1,7.55,3.44c2.7,1.5,5.27,3.18,7.82,4.92,1.74,1.19,3.43,2.44,5.15,3.66l3.07,2.14c1.38,1,2.76,1.9,4.18,2.79s2.65,1.66,4,2.41c.85.46,1.7,1,2.57,1.38a50.56,50.56,0,0,0,8,3.21,41.56,41.56,0,0,0,4.66,1.12c.88.16,1.77.3,2.65.43.27,0,.55,0,.82.06l1.28.13a8.93,8.93,0,0,0,1,.08c3.56.08,7.11.06,10.66,0a4.11,4.11,0,0,0,.7,0,11.4,11.4,0,0,1,2.33-.19h.35c.5-.07,1-.15,1.5-.2a7.59,7.59,0,0,0,1.51-.16.83.83,0,0,1,.35,0,18.49,18.49,0,0,0,2.67-.3c1.23-.15,2.46-.39,3.69-.58,1-.15,2-.35,3-.55a42.39,42.39,0,0,0,6.72-2,60.28,60.28,0,0,0,6.3-2.83c1.34-.72,2.69-1.42,4-2.26.65-.43,1.32-.84,2-1.25a54.74,54.74,0,0,0,4.64-3.36,26,26,0,0,0,2.39-2.06c.33-.33.72-.6,1.06-.92.61-.6,1.22-1.2,1.82-1.82.38-.39.72-.82,1.08-1.23a29.2,29.2,0,0,0,2.39-3q2.67-3.91,5.17-7.94c1.07-1.72,2.1-3.47,3.12-5.22s2-3.69,3-5.58a76.9,76.9,0,0,0,3.28-7.37q1-2.58,1.75-5.22c.69-2.27,1.26-4.58,2-6.85a1,1,0,0,0,.06-.34.27.27,0,0,0-.09-.2c-.31-.17-.62-.33-.94-.47-.82-.35-1.65-.7-2.48-1-1.39-.54-2.69-1.24-4-1.89a42.63,42.63,0,0,1-5.36-3.1c-1.26-.85-2.48-1.76-3.68-2.7a43.46,43.46,0,0,1-4.91-4.67c-1.07-1.24-2.11-2.51-3.06-3.84a44.43,44.43,0,0,1-4-6.73,50.18,50.18,0,0,1-2.6-6.51,58.46,58.46,0,0,1-2-7.81c-.22-1.19-.49-2.37-.62-3.57a23.41,23.41,0,0,1-.31-3,1.79,1.79,0,0,0,0-.46,12.64,12.64,0,0,1-.2-2.68,8.09,8.09,0,0,0-.13-1.63,4.79,4.79,0,0,1-.05-.93c0-1.29,0-2.58,0-3.87a3.29,3.29,0,0,1,0-.7,15.75,15.75,0,0,0,.18-2.91,6.83,6.83,0,0,1,.15-1.63.83.83,0,0,0,.05-.35,20.21,20.21,0,0,1,.29-2.9c.09-.85.29-1.69.4-2.54a35.41,35.41,0,0,1,1-4.68,14.72,14.72,0,0,1,1.26-3.39,17,17,0,0,1,3.85-4.82,8.92,8.92,0,0,1,3.6-1.89,16,16,0,0,1,2-.32,1.88,1.88,0,0,1,.58,0,13.41,13.41,0,0,1,3.07.7,14.38,14.38,0,0,1,3.73,2.17A17.62,17.62,0,0,1,314,13a18.38,18.38,0,0,1,2.88,4,17,17,0,0,1,1.41,3.21,28.91,28.91,0,0,1,.68,3c.24,1.34.35,2.7.61,4,.05.26,0,.54.07.81.07.62.16,1.24.22,1.86a9.25,9.25,0,0,0,.17,1.74,2.86,2.86,0,0,1,.06.58,9.63,9.63,0,0,0,.21,2.21c0,1,.15,1.94.25,2.91.11,1.16.26,2.32.43,3.48.11.77.2,1.54.31,2.31.06.42.14.85.22,1.27.4,2.22.82,4.44,1.32,6.64a49.45,49.45,0,0,0,1.41,5.07,17.67,17.67,0,0,0,1.5,3.17,6.15,6.15,0,0,0,2.87,2.65,2,2,0,0,0,.79.2.69.69,0,0,0,.62-.27c.28-.37.57-.74.83-1.13,1.35-2,2.71-4,4-6,.7-1.08,1.31-2.22,2-3.32a30.91,30.91,0,0,0,1.48-2.79c.74-1.59,1.46-3.19,2.08-4.83a74.27,74.27,0,0,0,2.64-9,47.75,47.75,0,0,1,2.76-8.32A48.43,48.43,0,0,1,348.62,21c.14-.23.27-.48.39-.72a12.21,12.21,0,0,1,1.93-2.63,10.3,10.3,0,0,1,1.51-1.29,14.39,14.39,0,0,1,5.8-2.68,3.66,3.66,0,0,1,.81-.09c.74,0,1.48,0,2.22,0a6.54,6.54,0,0,1,3.49,1.2,8.34,8.34,0,0,1,2.79,3.25,16.52,16.52,0,0,1,1.56,4.76c.19,1,.18,1.94.39,2.89a4.46,4.46,0,0,1,.05.82c0,1.4,0,2.81,0,4.21,0,.67-.19,1.31-.21,2a7.66,7.66,0,0,1-.18,2,1.41,1.41,0,0,0-.05.35,52.27,52.27,0,0,1-1.07,6.45c-.35,1.48-.68,3-1.07,4.43-.5,1.88-1,3.76-1.59,5.63q-1,3.31-2,6.61c-.53,1.71-1.11,3.41-1.68,5.11-.89,2.67-1.77,5.33-2.68,8-.66,1.92-1.36,3.82-2.05,5.73-.43,1.21-.85,2.43-1.29,3.63-.57,1.54-1.13,3.08-1.71,4.61q-1.11,2.9-2.23,5.79c-.5,1.27-1,2.54-1.51,3.81-.83,2.1-1.64,4.21-2.49,6.3-.74,1.81-1.46,3.62-2.27,5.4-.36.77-.68,1.57-1,2.36l-.18.43c-1.73,3.8-3.56,7.55-5.52,11.24-1.31,2.48-2.71,4.92-4.15,7.33-1.55,2.57-3.22,5.07-4.91,7.56-1.16,1.7-2.37,3.38-3.68,5-.76.94-1.5,1.9-2.24,2.85-.1.12-.2.24-.31.35-.75.85-1.52,1.68-2.25,2.54-1.78,2.13-3.83,4-5.78,6-1,.74-1.8,1.61-2.74,2.38s-1.86,1.54-2.82,2.27a67.76,67.76,0,0,1-6.78,4.59c-2.35,1.39-4.72,2.74-7.19,3.92-2.15,1-4.31,2-6.52,2.88-1.71.67-3.41,1.37-5.13,2-2.06.74-4.12,1.45-6.22,2-1.17.33-2.32.69-3.5,1-1.81.43-3.64.85-5.49,1.12-1.27.19-2.53.47-3.8.6a28.47,28.47,0,0,1-2.91.33,1.91,1.91,0,0,0-.58.06,6.35,6.35,0,0,1-1.51.16,3.16,3.16,0,0,0-.69,0,9.94,9.94,0,0,1-2.1.18,8.47,8.47,0,0,0-1.74.16,4.46,4.46,0,0,1-.82.05l-2.46,0a9.7,9.7,0,0,0-1.86.13,4.12,4.12,0,0,1-.93.05h-3.75Z"/><path class="cls-2" d="M230,54.42v3.4a11,11,0,0,1-.15,2,10.76,10.76,0,0,0-.07,1.4,18.55,18.55,0,0,1-.17,2.68,12.68,12.68,0,0,0-.07,1.75,11.66,11.66,0,0,1-.15,1.86,9.32,9.32,0,0,0-.08,1.4,7.29,7.29,0,0,1-.17,1.86,2.4,2.4,0,0,0,0,.46c-.05,1-.27,2-.41,3-.26,1.85-.67,3.68-1,5.51-.28,1.37-.63,2.73-1,4.09-.66,2.4-1.38,4.79-2.22,7.14-.73,2-1.5,4-2.42,6-.22.46-.4.94-.62,1.39a41.68,41.68,0,0,1-4.43,7.14,14.46,14.46,0,0,1-1.55,1.76,21,21,0,0,1-3.5,2.72A20.79,20.79,0,0,1,205,112.5a8.47,8.47,0,0,1-1.5.21.86.86,0,0,0-.23,0,24.36,24.36,0,0,1-4.9.17c-1.16-.18-2.32-.26-3.47-.48a32.62,32.62,0,0,1-5.72-1.68,30.39,30.39,0,0,1-4.92-2.43c-1.23-.76-2.4-1.6-3.55-2.47a1.3,1.3,0,0,1-.18-.15,40.09,40.09,0,0,1-3.76-3.84c-.7-.84-1.38-1.69-2-2.57-1.16-1.57-2.24-3.19-3.26-4.85-1.42-2.33-2.77-4.71-4-7.17s-2.41-5.15-3.4-7.83c-.72-1.94-1.37-3.9-1.93-5.89a22.9,22.9,0,0,1-.6-2.85c-.09-.58-.21-1.15-.33-1.72-.35-1.64-.72-3.28-1-4.92s-.64-3.37-.9-5.06c-.13-.8-.28-1.61-.34-2.43s-.24-1.77-.36-2.66a3.68,3.68,0,0,1,0-.58,9.78,9.78,0,0,0-.19-1.86,4.36,4.36,0,0,1,0-.81c0-.71,0-1.41-.05-2.11,0-.43-.06-.85-.1-1.28a14,14,0,0,1,0-3c.06-.51.1-1,.11-1.52s0-1,0-1.52.08-.77.12-1.16c0-.12.06-.23.06-.35a22.83,22.83,0,0,1,.25-2.32c.13-.92.29-1.84.47-2.76a41.85,41.85,0,0,1,1.47-5.29,28.46,28.46,0,0,1,1.49-3.56,9.84,9.84,0,0,1,1.62-2.28,24.3,24.3,0,0,1,4.77-3.74,23,23,0,0,1,5.11-2.29,16.52,16.52,0,0,1,2.51-.55,11.64,11.64,0,0,1,2.21-.19,10.39,10.39,0,0,1,5.79,1.94,11,11,0,0,1,1.91,1.89,15.18,15.18,0,0,1,2.18,4,26.35,26.35,0,0,1,1.19,4.39,14.19,14.19,0,0,1,.25,2.91c0,1.44,0,2.88,0,4.33a4.35,4.35,0,0,1-.05.81,10.58,10.58,0,0,0-.18,2.1,6.48,6.48,0,0,1-.13,1.39,3.27,3.27,0,0,0-.08.7,10.49,10.49,0,0,1-.19,2.09,4.4,4.4,0,0,0-.06.82c0,.42-.09.85-.13,1.27s-.08.86-.1,1.28a12.66,12.66,0,0,1-.15,1.63,7.87,7.87,0,0,0-.09,1.28,11.36,11.36,0,0,1-.16,2.1,3.18,3.18,0,0,0,0,.82c0,.78,0,1.56,0,2.34a9.43,9.43,0,0,1-.14,2,3.64,3.64,0,0,0,0,.81c0,3.28,0,6.56,0,9.83a6,6,0,0,0,.13,1.4,3.13,3.13,0,0,1,.07.81,9.69,9.69,0,0,0,.54,3,5.92,5.92,0,0,0,1.34,2.31,6.74,6.74,0,0,0,3.21,2,7.71,7.71,0,0,0,2.53.36A7.53,7.53,0,0,0,201,75.05,5.13,5.13,0,0,0,202.27,73,39.11,39.11,0,0,0,203.38,69a18.38,18.38,0,0,0,.41-2.66,1.3,1.3,0,0,1,0-.34,11,11,0,0,0,.19-2.8c0-1.29,0-2.57,0-3.86a4.79,4.79,0,0,0-.05-.93,12,12,0,0,1-.18-2c0-.39-.08-.78-.12-1.16s-.06-.54-.1-.81-.09-.78-.15-1.16c0-.16,0-.31-.06-.46-.13-1.52-.41-3-.65-4.51a19.73,19.73,0,0,1-.34-2.78A13.28,13.28,0,0,1,203.59,40a13.47,13.47,0,0,1,3.35-4.6,12.21,12.21,0,0,1,5.23-2.74c.85-.06,1.68-.31,2.55-.29.15,0,.31,0,.47,0A18.34,18.34,0,0,1,220,33.53a20.36,20.36,0,0,1,3.22,1.65,12.59,12.59,0,0,1,3.54,3.36,16.8,16.8,0,0,1,2.35,5.32c.32,1.13.44,2.3.67,3.44a5.48,5.48,0,0,1,0,.7,4.05,4.05,0,0,0,0,.7,21.93,21.93,0,0,1,.2,4c0,.58,0,1.17,0,1.75Z"/><path class="cls-2" d="M230.72,107.59v-3.74a9.38,9.38,0,0,1,.14-2,4.41,4.41,0,0,0,0-.82c0-.78,0-1.56,0-2.34a8.81,8.81,0,0,1,.15-2,4.35,4.35,0,0,0,.05-.81c0-.67,0-1.33,0-2a3.23,3.23,0,0,1,0-.7,15.87,15.87,0,0,0,.19-2.92,9.21,9.21,0,0,1,.13-1.39,9.08,9.08,0,0,0,.09-1.17,13.07,13.07,0,0,1,.18-2.33,6.35,6.35,0,0,0,.06-1.16,6,6,0,0,1,.14-1.4,1.35,1.35,0,0,0,.06-.34,25.67,25.67,0,0,1,.29-3c0-.73.17-1.47.28-2.2s.28-1.53.38-2.3.32-1.76.5-2.64a42.05,42.05,0,0,1,1.59-5.74A38.12,38.12,0,0,1,237.67,61a38.77,38.77,0,0,1,3.54-5.08c.54-.67,1.11-1.3,1.71-1.92l3-3a29.58,29.58,0,0,1,5.72-4.43,26.31,26.31,0,0,1,4.63-2.23,30.45,30.45,0,0,1,4.38-1.27c.76-.16,1.53-.27,2.3-.39a3.83,3.83,0,0,0,.58-.07,7.29,7.29,0,0,1,1.74-.17,8.62,8.62,0,0,0,1.75-.15,3.64,3.64,0,0,1,.81-.05h2a5.49,5.49,0,0,1,1.28.11,2.3,2.3,0,0,0,.58.07,14.31,14.31,0,0,1,5.92,1.68,8.54,8.54,0,0,1,2.16,1.57,11.64,11.64,0,0,1,1.83,2.13A13.76,13.76,0,0,1,283.43,53a21.92,21.92,0,0,1,.19,3,8.57,8.57,0,0,1-.14,1.51c-.13.65-.16,1.31-.31,2a15.89,15.89,0,0,1-1,3.1,12.82,12.82,0,0,1-1,1.73,13.38,13.38,0,0,1-1.46,1.82,18.09,18.09,0,0,1-3.48,2.94,25.19,25.19,0,0,1-3.4,1.82,30.24,30.24,0,0,1-4.65,1.56c-.72.17-1.45.29-2.18.41-.93.15-1.87.12-2.79.25s-2.1.1-3.14.21a21.87,21.87,0,0,0-5.72,1.11,16,16,0,0,0-3.22,1.65,4.42,4.42,0,0,0-1.85,2.75,3.89,3.89,0,0,0,0,1.63,4.72,4.72,0,0,0,1.68,2.87,2.94,2.94,0,0,0,1.81.73,18.46,18.46,0,0,0,4.2-.17,2.78,2.78,0,0,1,.58,0l3,0a6.16,6.16,0,0,1,2.59.65,5,5,0,0,1,2.66,3.24,6.79,6.79,0,0,1,.22,2.9,4.2,4.2,0,0,1-1.15,2.51,21.86,21.86,0,0,1-2.23,2.07c-1.7,1.31-3.5,2.47-5.28,3.66l-1.86,1.23a6.53,6.53,0,0,0-2.65,3.47,5.88,5.88,0,0,0-.21,3.45,7.65,7.65,0,0,0,.7,2,2.07,2.07,0,0,0,.44.53,5.68,5.68,0,0,0,3.22,1.26c.54,0,1.09,0,1.64,0a6.37,6.37,0,0,0,3.3-1,3.32,3.32,0,0,0,.55-.44,33.84,33.84,0,0,0,3.29-3.48l.16-.18c.83-.93,1.69-1.83,2.48-2.79s1.56-1.75,2.37-2.6c.24-.25.42-.56.67-.8A27.83,27.83,0,0,1,275,96.42a10.54,10.54,0,0,1,4.64-1.8c.74-.1,1.47-.17,2.21-.2a15.32,15.32,0,0,1,3,.31A17.26,17.26,0,0,1,290,96.55a9.82,9.82,0,0,1,2.88,2.36,8.37,8.37,0,0,1,1.22,2.26,13,13,0,0,1,.67,2.36,4.45,4.45,0,0,1,.08.81c0,1.29,0,2.58,0,3.87a8.21,8.21,0,0,1-.29,1.84,22,22,0,0,1-2,5.74,19,19,0,0,1-3.63,5,12.83,12.83,0,0,1-1.65,1.48,2.66,2.66,0,0,0-.35.32c-1.25,1.17-2.6,2.23-3.94,3.3s-2.62,2.09-3.94,3.12c-.92.72-1.86,1.42-2.8,2.12-1.77,1.34-3.55,2.68-5.42,3.87a45.6,45.6,0,0,1-5.1,2.87,30,30,0,0,1-6.05,2.15,16.06,16.06,0,0,1-3.45.58,13.32,13.32,0,0,1-3.15.2,17.86,17.86,0,0,1-7.79-1.8,24.11,24.11,0,0,1-5.53-3.68c-.56-.49-1.12-1-1.66-1.48a20.76,20.76,0,0,1-3.86-5.12c-.31-.58-.55-1.2-.82-1.81a27.47,27.47,0,0,1-1.57-5c-.28-1.29-.47-2.61-.69-3.91a5.49,5.49,0,0,1-.05-.7,5.36,5.36,0,0,0,0-.7,10.15,10.15,0,0,1-.2-2.33,4.35,4.35,0,0,0,0-.81,8.27,8.27,0,0,1-.15-2c0-1.29,0-2.58,0-3.87Z"/><path class="cls-2" d="M137,133.06h-2.23a5.91,5.91,0,0,1-1.62-.16,1.34,1.34,0,0,0-.35,0,28.76,28.76,0,0,1-5.52-1,35.06,35.06,0,0,1-4-1.36,24.53,24.53,0,0,1-4.28-2.39,10.56,10.56,0,0,1-1.74-1.38c-.2-.19-.42-.35-.63-.52a3.31,3.31,0,0,1-.44-.39c-.65-.83-1.41-1.56-2-2.41a29.51,29.51,0,0,1-1.86-3,18.46,18.46,0,0,1-.84-1.8,28.51,28.51,0,0,1-1.63-5.12,19.5,19.5,0,0,1-.42-2.65c0-.34-.14-.69-.15-1,0-1-.31-2-.31-3a2.65,2.65,0,0,0-.06-.69,7.93,7.93,0,0,1-.17-1.75,4.11,4.11,0,0,0,0-.7,16.41,16.41,0,0,1-.22-2.32c-.11-1.09-.23-2.17-.24-3.26a10.11,10.11,0,0,1-.21-2.33,3.77,3.77,0,0,0,0-.58,11.4,11.4,0,0,1-.19-2.33,7.27,7.27,0,0,0-.13-1.39,9.06,9.06,0,0,1-.09-1.16,15.13,15.13,0,0,0-.17-2.33,6.93,6.93,0,0,1-.06-1.29,10.93,10.93,0,0,0-.18-2.21,3.21,3.21,0,0,1-.05-.7,7,7,0,0,0-.16-1.51,3.17,3.17,0,0,1-.07-.69,6.45,6.45,0,0,0-.17-1.39,4.15,4.15,0,0,1-.07-.7,7.22,7.22,0,0,0-.16-1.39,4.38,4.38,0,0,1-.08-.82,6.12,6.12,0,0,0-.15-1.27,4.36,4.36,0,0,1-.08-.81,7.46,7.46,0,0,0-.17-1.63,2.2,2.2,0,0,1-.06-.58,11.71,11.71,0,0,0-.18-1.86,7.58,7.58,0,0,1-.07-1.17,10.22,10.22,0,0,0-.15-1.74,7.58,7.58,0,0,1-.08-1.17,15.33,15.33,0,0,0-.18-2.79,3.73,3.73,0,0,1,0-.82V56a5.9,5.9,0,0,1,.13-1.51,1.34,1.34,0,0,0,0-.35,27.06,27.06,0,0,1,.29-3.25c0-.43.14-.85.22-1.27a20.12,20.12,0,0,1,.76-3.06,13.82,13.82,0,0,1,2.68-4.62l.53-.63a7.84,7.84,0,0,1,.54-.61c.69-.63,1.37-1.29,2.11-1.84a20.65,20.65,0,0,1,6.85-3.48,15.7,15.7,0,0,1,4.14-.66h2.11a18.11,18.11,0,0,1,6.51,1.25,14.61,14.61,0,0,1,7.67,6.36,20.79,20.79,0,0,1,2.37,6.08c.24,1,.4,2,.55,3a24.51,24.51,0,0,1,.2,2.56,3.69,3.69,0,0,0,0,.58,29.16,29.16,0,0,1,.14,4.67,28,28,0,0,0-.22,4.09,4.12,4.12,0,0,1-.05.7,8.69,8.69,0,0,0-.16,2,13.52,13.52,0,0,1-.17,2.1,9.56,9.56,0,0,0-.07,1.52,9.85,9.85,0,0,1-.14,1.62,7.59,7.59,0,0,0-.09,1.17,11,11,0,0,1-.16,2,6.35,6.35,0,0,0-.07,1.16,11.48,11.48,0,0,1-.16,1.86,7.58,7.58,0,0,0-.08,1.17,10.62,10.62,0,0,1-.16,1.86,7.79,7.79,0,0,0-.07,1.28,11.39,11.39,0,0,1-.16,1.75,7.37,7.37,0,0,0-.08,1.16,9.88,9.88,0,0,1-.15,1.63,10.85,10.85,0,0,0-.09,1.4,7.5,7.5,0,0,1-.15,1.63,3.17,3.17,0,0,0-.07.69,12.15,12.15,0,0,1-.19,2.33,3.69,3.69,0,0,0,0,.82,9,9,0,0,1-.17,1.86,7.14,7.14,0,0,0-.07.93l-.12,1.75a.22.22,0,0,0,.31.22l.53-.25,2.3-1.15a25.27,25.27,0,0,1,5.39-1.92,17.57,17.57,0,0,1,4.74-.55,10.57,10.57,0,0,1,5.81,1.88,7,7,0,0,1,.73.59l1.09,1.06a12.08,12.08,0,0,1,2.84,4.65,13.12,13.12,0,0,1,.75,4.47c0,.31,0,.63,0,.94a15.05,15.05,0,0,1-.43,3.47,27.67,27.67,0,0,1-2.31,6.48,30.39,30.39,0,0,1-3.21,5.15c-.19.25-.4.48-.61.71a29,29,0,0,1-4.5,3.91,38,38,0,0,1-5.2,3.14,28.91,28.91,0,0,1-6.59,2.35,12.69,12.69,0,0,1-3,.34H137Z"/><path class="cls-2" d="M101.85,98.28c-.21-.92-.21-1.86-.38-2.78a38.94,38.94,0,0,0-.89-4A34.36,34.36,0,0,0,97,83.4a29.45,29.45,0,0,0-4.26-5.55c-.72-.73-1.45-1.43-2.16-2.15a31.2,31.2,0,0,0-3.6-3A35.47,35.47,0,0,0,80.78,69l-.32-.15a26.76,26.76,0,0,0-7-2.29c-.35-.06-.69-.16-1-.24a.4.4,0,0,1-.26-.46c0-.16.06-.31.09-.46.25-1.1.56-2.19.75-3.31.3-1.84.68-3.67.8-5.54,0-.16,0-.31.07-.46,0-.39.1-.78.12-1.16a10.88,10.88,0,0,1,.18-2,3.29,3.29,0,0,0,0-.7c0-2.15,0-4.29,0-6.44,0-.31,0-.62-.08-.93s-.09-.77-.12-1.16,0-.63-.07-.93c-.25-1.42-.48-2.85-.86-4.24a21.74,21.74,0,0,0-4-8A19.71,19.71,0,0,0,65,26.74a28.12,28.12,0,0,0-6.76-3.43A59.81,59.81,0,0,0,50.7,21.2c-1-.2-2-.39-3-.52a18.75,18.75,0,0,0-2.9-.29,1.34,1.34,0,0,1-.35-.05,5.86,5.86,0,0,0-1.51-.14c-.54,0-1.09,0-1.64,0a21.43,21.43,0,0,0-4.08.2,5.48,5.48,0,0,1-.7,0,5.67,5.67,0,0,0-.58.05c-1.42.25-2.84.48-4.23.87a25.55,25.55,0,0,0-3.55,1.2A30.76,30.76,0,0,0,22,26.08a35.46,35.46,0,0,0-3.73,3.19,26.07,26.07,0,0,0-1.79,2,29.85,29.85,0,0,0-6.19,12.46,12.85,12.85,0,0,0-.42,2.53,5.36,5.36,0,0,1-.1.7c0,.23-.07.46-.08.69A32.15,32.15,0,0,1,9.45,51a20.43,20.43,0,0,0-.06,2.22,6.11,6.11,0,0,1-.05,1.05,11.69,11.69,0,0,0-.16,2.21c0,.82,0,1.64,0,2.46,0,.31-.05.62-.07.93S9,60.76,9,61.19c0,1.44,0,2.89-.06,4.33a5.25,5.25,0,0,1-.05,1,8.55,8.55,0,0,0-.13,1.75l-.06,8.31a7.79,7.79,0,0,1-.07,1.28,9.4,9.4,0,0,0-.09,1.4v5.62c0,1.87,0,3.74,0,5.62a5.25,5.25,0,0,0,0,1,9,9,0,0,1,.12,1.86L8.73,104a7.58,7.58,0,0,0,0,1.17,10,10,0,0,1,.13,2c0,.54,0,1.09,0,1.64A36.83,36.83,0,0,0,9.15,114a13.77,13.77,0,0,0,.23,2.56c.13.72.18,1.47.33,2.19A22.64,22.64,0,0,0,12,125.15,13.08,13.08,0,0,0,14.09,128a12,12,0,0,0,2.2,1.73,37.4,37.4,0,0,0,6.3,3.06c1.24.47,2.51.85,3.78,1.24.85.27,1.72.5,2.59.73,2.11.55,4.25,1,6.39,1.37.58.11,1.16.16,1.73.29s1.24.17,1.85.27c1,.15,2.07.36,3.13.41a2.44,2.44,0,0,1,.46.07,5.44,5.44,0,0,0,1.27.15,3.2,3.2,0,0,1,.7.06,8.32,8.32,0,0,0,1.86.18,3.26,3.26,0,0,1,.7.06,9.78,9.78,0,0,0,2.09.17,8.57,8.57,0,0,1,1.75.16,3.64,3.64,0,0,0,.81.05h7.14a4.17,4.17,0,0,0,.94-.07,8.8,8.8,0,0,1,1.62-.15,5.55,5.55,0,0,0,.82-.06c1.3-.23,2.62-.37,3.92-.63a51.71,51.71,0,0,0,6-1.53,57.32,57.32,0,0,0,7.79-3.18c1.57-.78,3.14-1.56,4.67-2.44A51.21,51.21,0,0,0,90,126.47a33.62,33.62,0,0,0,3.9-3.35c.55-.56,1-1.15,1.56-1.74a24.22,24.22,0,0,0,2.72-3.94,25.8,25.8,0,0,0,2.53-6.4,28,28,0,0,0,1-6.11,2.4,2.4,0,0,1,0-.46,6.39,6.39,0,0,0,.15-1.63V99.21A5.74,5.74,0,0,0,101.85,98.28ZM38.34,65.42a10.81,10.81,0,0,1-1.3-3.6,10,10,0,0,1-.26-2,17.18,17.18,0,0,1-.2-3.72,6.79,6.79,0,0,1,.15-1.74,4,4,0,0,0,.07-.7,8.32,8.32,0,0,1,1-3.44,6.87,6.87,0,0,1,1.78-2.13,9.36,9.36,0,0,1,2.73-1.55,8.72,8.72,0,0,1,5.06-.09A8.9,8.9,0,0,1,50,47.81a5.77,5.77,0,0,1,2.06,4c0,.35,0,.7,0,1.08a10.49,10.49,0,0,1-.6,3.75A12.45,12.45,0,0,1,50.56,59a20.48,20.48,0,0,1-1.88,3.36,20,20,0,0,1-1.45,1.82A10.4,10.4,0,0,1,43.7,66.6a5.3,5.3,0,0,1-2.52.41A4.61,4.61,0,0,1,39,66.22,2.26,2.26,0,0,1,38.34,65.42ZM65.86,99.08a13.35,13.35,0,0,1-.87,2.66,12.12,12.12,0,0,1-3.14,4,10.93,10.93,0,0,1-1.07.7A13.51,13.51,0,0,1,58,107.78a28.28,28.28,0,0,1-4.42,1.1,4.14,4.14,0,0,1-.7.06,7,7,0,0,0-1.28.15,4.8,4.8,0,0,1-.93.07c-1.09,0-2.18,0-3.28,0H47.2c-.58-.07-1.16-.15-1.74-.2a9.8,9.8,0,0,1-1.62-.18c-.61-.14-1.23-.2-1.85-.31a6,6,0,0,1-1.86-.68,1.6,1.6,0,0,1-.8-1,3.64,3.64,0,0,1-.17-1c0-.78,0-1.56,0-2.34h0c0-.59,0-1.18,0-1.76s.07-.85.1-1.28.07-.78.07-1.17c0-1.21,0-2.42,0-3.63a3.7,3.7,0,0,1,.5-1.9A6.81,6.81,0,0,1,41.28,92a8.58,8.58,0,0,1,2.29-1.38,26.6,26.6,0,0,1,5.18-1.39c.7-.12,1.4-.14,2.09-.25a18.75,18.75,0,0,1,3.26-.16,4.59,4.59,0,0,1,1.28.11A2.89,2.89,0,0,0,56,89a15.74,15.74,0,0,1,6,1.73,8.62,8.62,0,0,1,1.65,1.1,7.19,7.19,0,0,1,2,2.85,11.27,11.27,0,0,1,.44,2.17A7.83,7.83,0,0,1,65.86,99.08Z"/><path class="cls-2" d="M428.91,96.25h.59c2.93,0,6.3-.73,6.3-4,0-5.72-9.52-6.31-23.3-17.59C405.75,69,402.67,60.05,402.67,52c0-16.56,14.22-30,32.11-30,15.24,0,28,7.62,28,19.79,0,5.72-3.81,9.09-9.82,9.38h-.74c-4.25,0-10.26-1-14.07-1h-.73c-3.08.14-5.57,1.32-5.57,3.52,0,1.17,1.32,2.93,2.34,3.66C442.4,64.88,467,74.41,467,91.86c0,22.13-15.54,31.81-36.21,32.54h-2.2c-10.55,0-23.89-2.78-28.58-8.94a15.53,15.53,0,0,1-3.23-9.53c0-4.84,1.61-9.38,5.28-12A9.67,9.67,0,0,1,407.51,92C412.5,92,422.9,96.25,428.91,96.25Z"/><path class="cls-2" d="M371.78,145.2a10.48,10.48,0,0,1-2.69,7.24c10.31.23,16.43,6.95,16.43,15.54-.14,9.86-9.93,17.1-23.15,17.1-6.5,0-13.52-.52-18.75-4.25-2.31-1.72-2.39-4.34-2.39-6.65V152.59c0-2.46-.07-4.63-.07-6.5a22.24,22.24,0,0,1,.74-6.42,10.49,10.49,0,0,1,4-5.3,17.59,17.59,0,0,1,9.56-2.47C364.24,131.9,371.78,136.76,371.78,145.2Zm-17.48-1.87v6.8a3,3,0,0,0,1.57.3c2.62,0,4.56-2.69,4.56-5.08,0-2-1.12-3.44-3-3.44A3.72,3.72,0,0,0,354.3,143.33Zm14.94,23.6c0-3.58-2.61-5.38-7-5.38-2.31,0-5.45.45-7.09,1.72v8.37c1,1,4.33,1.42,6,1.42C365.88,173.06,369.24,170.29,369.24,166.93Z"/><path class="cls-2" d="M407.71,152.07v7.32c0,3.81-.3,8.14-.3,11.73,0,1.27.45,1.79,1,2.09,2.61,1.34,3.36,1.86,3.36,5.15,0,2.39-.75,4.71-3.21,5.3a57,57,0,0,1-9.26.45c-6.65,0-9.12-.52-9.12-5.45,0-1.72.15-3.59,1.65-4.41,1.79-1,2.76-1.79,2.83-2.69,0-5.08.08-10.38.08-16.35,0-1.72.15-3.74.15-5.61a16.1,16.1,0,0,0-.45-4.48,3.16,3.16,0,0,0-2.32-2c-1.41-.53-2-2.24-2-4.34a8.2,8.2,0,0,1,.75-3.73c1.34-2.39,5.75-2.62,9.26-2.62h1.72c6.94,0,10.15,1.05,10.38,5.16v.82c0,3.29-1.42,4.48-3.59,5.38a1.5,1.5,0,0,0-.89,1.34C407.71,147.21,407.71,149.9,407.71,152.07Z"/><path class="cls-2" d="M440.35,145.42c-6.34,0-9.86,6.35-9.86,13.89,0,7.1,3.44,11.58,9.34,11.51,4.86-.08,7-3.14,7-5.23v-.45l-3.43-.07c-4-.08-4-2.54-4-4.41,0-5,4.78-5.6,9.41-5.6a26.26,26.26,0,0,1,3.51.15c3.59.29,5.16,2,6.06,4.48a21.41,21.41,0,0,1,.82,5.67v.38c0,12.62-10.76,19.19-21.74,19-16.21-.3-21.06-15.24-21.06-25.4,0-14.19,9.41-26.89,23.45-26.89,10.23,0,18.45,5.91,18.45,13.75,0,3.06-3.29,3.81-5.9,3.81a7.26,7.26,0,0,1-3.81-.82C446.18,147.81,445.13,145.42,440.35,145.42Z"/><path class="cls-2" d="M494.58,171.27c-.37,3.65-.52,6.57-1.19,10-.82,2.1-4.19,3.29-6.95,3.29-2.91,0-5.75-1.34-6.05-3.81a183.85,183.85,0,0,1-.9-20.61c0-8.07.45-16.14,1-23.68,2.16-2.69,8-4,13.59-4,11.28,0,23.16,4.56,23.16,19.13,0,12.62-9.94,19.72-21.74,19.72Zm-.45-13.37a3.14,3.14,0,0,0,2.1.74,7.44,7.44,0,0,0,7.69-7.47c0-3.73-2.47-6.72-6.35-6.72a5.85,5.85,0,0,0-3.44,1Z"/><path class="cls-2" d="M531.48,132.5c4.26,0,7.62.45,8.07,6.42,0,.6.07,1.2.07,1.8-.07,2.69-.74,15.23-.74,22.4a19.15,19.15,0,0,0,.37,4.71c4.78,1,9-.08,13.52,1.42,2.39.82,3.43,2.31,3.43,5.23,0,9.56-5.22,9.71-12.92,9.71-1.57,0-2.31-.08-2.91-.08-8.81-.22-14.71-2.61-15.91-10.9a105.12,105.12,0,0,1-1-14.42,178,178,0,0,1,1.57-22C525.8,133.1,529.84,132.5,531.48,132.5Z"/><path class="cls-2" d="M673.2,136.2a64.76,64.76,0,0,0-16.84-19.33c-1.62-1.26-3.28-2.46-5-3.57-1.08-.68-2.15-1.39-3.27-2-.52-.28-1-.58-1.57-.86-1.07-.56-2.14-1.14-3.23-1.67a30.17,30.17,0,0,0-3.5-1.42c-1.19-.41-2.36-.88-3.57-1.24-1.81-.56-3.64-1.06-5.49-1.47-2.33-.52-4.67-.94-7-1.23A64,64,0,0,0,599.26,105,60.35,60.35,0,0,0,570,122.74a57.24,57.24,0,0,0-9,13.14,47.21,47.21,0,0,0-3.44,9.23,41.74,41.74,0,0,0-1.35,9.55A40.5,40.5,0,0,0,562,176.55a50.17,50.17,0,0,0,6.57,8.7,69.31,69.31,0,0,0,8,7.32c1.71,1.35,3.47,2.64,5.31,3.83,1,.65,2,1.28,3,1.93s1.94,1.14,2.93,1.68l2.23,1.18c1.38.73,2.75,1.5,4.15,2.21,1.74.87,3.5,1.69,5.25,2.53l5.41,2.2c.78.31,1.56.6,2.36.88,1.29.45,2.59.86,3.87,1.36a53.86,53.86,0,0,0,5.23,1.67c2.21.61,4.45,1.14,6.7,1.57a70,70,0,0,0,13.54,1.32,47.53,47.53,0,0,0,13.72-2,40.22,40.22,0,0,0,17.2-10.47,43.47,43.47,0,0,0,8.1-11.63,51.12,51.12,0,0,0,2.09-4.94,56,56,0,0,0,1.78-5.83,58,58,0,0,0,1.43-8.48,59.49,59.49,0,0,0-.6-15.71A60.52,60.52,0,0,0,673.2,136.2Zm-75.34,48.88c-8.14,0-6.2-14.56-7.17-16.8-.52-.67-2.24-1.05-3.88-1.05s-3.36.38-3.59,1.05c-.45,1.49-.52,2.76-.89,4.33-1.05,4.41-1.8,12.18-7.4,12.18-5.9,0-7.54-7.7-7.24-12,0-7.09,1.64-15.16,2.68-21.73,1.72-10.31,5.23-17.93,16.06-17.93,15.61,0,17.26,16.36,18.68,30.85.15,2.54.89,6.8.89,10.46C606,179.71,604.29,185.08,597.86,185.08Zm52.29-40.63a134,134,0,0,1-6.5,12.4c-3.44,5.9-5.38,9.86-9,15.83-3.81,6.2-6.42,12.4-13.52,12.4-3.73,0-5.38-3.43-5.38-6.35V178c.3-4.26,4.86-10.61,5.76-13.82l-6.65-9.11c-3.21-4.48-6.65-9.34-7.55-14.79a18.15,18.15,0,0,1-.14-1.87c0-2.69,1.11-4.33,3.58-5a14.39,14.39,0,0,1,3.66-.45,8.41,8.41,0,0,1,6.87,2.91c3.29,4.48,5.75,11.5,8.07,15,1.42-2.24,2.76-4.7,4.33-7.32,2.84-4.78,4.41-10.45,12-10.45,3.21,0,6,.89,6,4.55A16,16,0,0,1,650.15,144.45Z"/><path class="cls-2" d="M587,145.2c-2,0-3.73,4.55-3.73,8.21,0,2.77,1,3.29,3.43,3.29h.38c2.46,0,3.51-.6,3.51-3.36S589.42,145.2,587,145.2Z"/><path class="cls-2" d="M634.91,86.75a23.55,23.55,0,0,0,5,4.39c.89.58,1.79,1.14,2.7,1.67s1.69,1,2.56,1.39c1.11.55,2.25,1,3.37,1.57a46.91,46.91,0,0,0,5.23,2.06A41.11,41.11,0,0,0,657.86,99a23.82,23.82,0,0,0,5,.64A15.94,15.94,0,0,0,673.41,96a26.42,26.42,0,0,0,3.16-3,44.86,44.86,0,0,0,4.83-6.7c1.14-1.87,2.15-3.81,3.11-5.77a60.67,60.67,0,0,0,2.89-7,39.34,39.34,0,0,0,1.73-7,25.09,25.09,0,0,0-.22-9,16.93,16.93,0,0,0-4.21-8.13,21.74,21.74,0,0,0-4.53-3.64,48.07,48.07,0,0,0-5.69-3l-2.39-1.06A68.44,68.44,0,0,0,665.24,39a27.51,27.51,0,0,0-4.55-1.13,17,17,0,0,0-10.32,1.54,22.65,22.65,0,0,0-5.31,3.69,33.48,33.48,0,0,0-6,7.62,54.15,54.15,0,0,0-2.94,5.72,78.08,78.08,0,0,0-2.9,7.68,50.14,50.14,0,0,0-1.68,6.81,27.06,27.06,0,0,0-.37,6.66A15.74,15.74,0,0,0,634.91,86.75Z"/><path class="cls-2" d="M571.52,87.68a17.75,17.75,0,0,0,8.41,5.85,23.5,23.5,0,0,0,5.18,1.07,43.4,43.4,0,0,0,17.14-1.73,30.48,30.48,0,0,0,6.71-3,21.39,21.39,0,0,0,8.4-9.05,15.73,15.73,0,0,0,.67-1.51c.29-.76.55-1.54.79-2.32.31-1,.63-2,.86-3.06.66-2.88,1.25-5.78,1.73-8.7a40.06,40.06,0,0,0,.6-7.57,26.93,26.93,0,0,0-1.72-9,15,15,0,0,0-4.19-6,16.87,16.87,0,0,0-3.87-2.53,23.71,23.71,0,0,0-4.47-1.64,31.15,31.15,0,0,0-7.33-.89,39.36,39.36,0,0,0-12.5,2,37,37,0,0,0-9.74,4.87,28.34,28.34,0,0,0-9.92,12.21,31.52,31.52,0,0,0-2,7,33.48,33.48,0,0,0,.93,15.66A24.44,24.44,0,0,0,571.52,87.68Z"/><path class="cls-2" d="M732.69,110a39.53,39.53,0,0,0-5.84-13.48A34.47,34.47,0,0,0,721,89.75a24.64,24.64,0,0,0-6.3-4.18,16.73,16.73,0,0,0-3.5-1.25,15,15,0,0,0-8.42.26,23.65,23.65,0,0,0-5.91,2.94,30.29,30.29,0,0,0-6.26,5.59,92.5,92.5,0,0,0-8.48,11.49,23.27,23.27,0,0,0-2.06,4c-.28.76-.59,1.52-.8,2.31a21.16,21.16,0,0,0-.55,8.53,29.39,29.39,0,0,0,2.52,8.41A43.32,43.32,0,0,0,690,140.33a25.48,25.48,0,0,0,6.86,5.11,18.29,18.29,0,0,0,3.35,1.26,18,18,0,0,0,6,.48,25,25,0,0,0,8.89-2.47A33.27,33.27,0,0,0,726.28,136a31.3,31.3,0,0,0,5.71-9.86,28,28,0,0,0,1.42-6.78A30.86,30.86,0,0,0,732.69,110Z"/><path class="cls-2" d="M587.11,156.7h-.38c-2.39,0-3.43-.52-3.43-3.29,0-3.66,1.71-8.21,3.73-8.21,2.39,0,3.59,5.3,3.59,8.14S589.57,156.7,587.11,156.7Z"/><path class="cls-2" d="M384,47.61a3.34,3.34,0,0,1-.45-2.83,13.33,13.33,0,0,0,1.81-6.67,6.86,6.86,0,0,0-.22-1.59c-.57-.9-1.47-1.69-2-2.6a9.56,9.56,0,0,1-.79-3.73V28.61a8.46,8.46,0,0,1,1-3.17c1.47-2.6,4.41-3.51,7.57-3.51,3.51,0,6,.68,7.92,3.85a9.93,9.93,0,0,1,1,5c0,5.31-5.2,18.88-11.31,18.88C387,49.64,384.91,49.19,384,47.61Z"/></g></g></svg>