<svg width="24" height="19" viewBox="0 0 24 19" fill="none" xmlns="http://www.w3.org/2000/svg">
<path fill-rule="evenodd" clip-rule="evenodd" d="M7.87791 18.3336C16.264 18.3336 20.85 11.4946 20.85 5.56437C20.85 5.37001 20.8459 5.17658 20.837 4.98417C21.7271 4.35074 22.5009 3.56036 23.1114 2.66042C22.2945 3.01758 21.4154 3.25839 20.4931 3.36693C21.4344 2.8114 22.1571 1.93222 22.498 0.88428C21.6168 1.39838 20.6415 1.7723 19.603 1.97364C18.7711 1.10135 17.5862 0.555786 16.275 0.555786C13.757 0.555786 11.7152 2.56566 11.7152 5.04338C11.7152 5.39561 11.7552 5.73806 11.8335 6.06665C8.04434 5.87918 4.68424 4.09317 2.43592 1.37772C2.04396 2.04076 1.81843 2.8114 1.81843 3.63334C1.81843 5.19045 2.62334 6.56493 3.84727 7.36899C3.09947 7.34637 2.39677 7.1441 1.7823 6.8076C1.78126 6.82631 1.78126 6.84521 1.78126 6.86485C1.78126 9.03864 3.35308 10.8532 5.43904 11.2648C5.05616 11.3672 4.65313 11.4226 4.23725 11.4226C3.94353 11.4226 3.65786 11.394 3.38013 11.3416C3.96056 13.1247 5.64358 14.4222 7.63933 14.4587C6.07866 15.6626 4.1129 16.3799 1.97682 16.3799C1.60888 16.3799 1.24604 16.3592 0.88916 16.3177C2.90703 17.5907 5.30278 18.3336 7.87791 18.3336Z" fill="#5A5A87"/>
</svg>
