<svg width="20" height="24" viewBox="0 0 20 24" fill="none" xmlns="http://www.w3.org/2000/svg">
<path d="M0.666505 9.18412C0.666505 8.21367 0.879544 7.25092 1.30562 6.29588C1.7317 5.34084 2.34277 4.45513 3.13884 3.63874C3.93477 2.82316 4.97984 2.16067 6.27402 1.65125C7.56821 1.14184 9.003 0.88781 10.5784 0.889166C13.1347 0.889166 15.2329 1.6441 16.8728 3.15398C18.5127 4.66386 19.3328 6.44302 19.3332 8.49146C19.3332 11.1255 18.6378 13.3012 17.2471 15.0187C15.8563 16.7362 14.0596 17.5949 11.8569 17.5946C11.1335 17.5946 10.4542 17.4329 9.81907 17.1094C9.18394 16.7859 8.73757 16.3931 8.47996 15.931L7.51511 19.5818C7.43128 19.8846 7.32655 20.1818 7.20163 20.4713C7.07379 20.7717 6.93147 21.0604 6.7796 21.3378C6.62774 21.6151 6.47326 21.8761 6.3214 22.1235C6.16953 22.3709 6.01506 22.6018 5.86319 22.8168C5.71132 23.0319 5.57856 23.2143 5.46519 23.3597C5.35182 23.5051 5.24819 23.6324 5.15171 23.7411L5.00698 23.9259C4.95874 23.9883 4.89371 24.0115 4.81401 23.9953C4.73431 23.9791 4.68617 23.9329 4.66928 23.8566C4.66928 23.8404 4.65722 23.7342 4.6331 23.5331C4.60898 23.3319 4.58486 23.1218 4.56074 22.8976C4.53662 22.6735 4.51249 22.3847 4.48837 22.0312C4.46425 21.6777 4.45702 21.3334 4.46425 21.0029C4.47149 20.6725 4.49561 20.3052 4.53662 19.9055C4.57762 19.5058 4.63792 19.1361 4.71753 18.7962C4.89364 18.073 5.48863 15.6624 6.5025 11.5641C6.37475 11.3168 6.26862 11.0211 6.18902 10.6746C6.10942 10.328 6.06841 10.046 6.06841 9.83121L6.04429 9.48456C6.04429 8.49802 6.30557 7.67779 6.82813 7.02386C7.3507 6.36993 7.98171 6.04256 8.72117 6.04176C9.31677 6.04176 9.77739 6.23117 10.1079 6.60787C10.4383 6.98457 10.6022 7.45833 10.6022 8.02888C10.6022 8.38238 10.5347 8.81907 10.3972 9.33434C10.2597 9.84961 10.0788 10.4436 9.85458 11.1135C9.63035 11.7833 9.46864 12.3265 9.37216 12.7424C9.21064 13.4356 9.35131 14.0364 9.79418 14.545C10.2356 15.0533 10.8265 15.3075 11.5668 15.3075C12.8377 15.3075 13.8868 14.6182 14.714 13.2395C15.5411 11.8609 15.9552 10.1934 15.956 8.23715C15.956 6.74219 15.4496 5.52144 14.4367 4.5749C13.4238 3.62836 12.0091 3.15472 10.1926 3.15398C8.16677 3.15398 6.52282 3.77784 5.26074 5.02555C3.99865 6.27326 3.3676 7.76727 3.3676 9.50757C3.3676 10.5405 3.67314 11.4108 4.28421 12.1186C4.49397 12.3497 4.55668 12.5969 4.47718 12.8581C4.44592 12.9344 4.39768 13.1123 4.33245 13.3896C4.26723 13.6668 4.21908 13.8447 4.18773 13.921C4.15637 14.0896 4.07436 14.2029 3.94651 14.256C3.81867 14.3092 3.67394 14.3069 3.51233 14.2445C2.56459 13.8747 1.85317 13.2393 1.37808 12.3382C0.90299 11.4372 0.665798 10.3858 0.666505 9.18412Z" fill="#5A5A87"/>
</svg>
