<svg width="19" height="22" viewBox="0 0 19 22" fill="none" xmlns="http://www.w3.org/2000/svg">
<path fill-rule="evenodd" clip-rule="evenodd" d="M14.8255 4.13704C14.9313 4.27173 15.0571 4.38619 15.1828 4.50062C15.2226 4.53681 15.2623 4.573 15.3015 4.60983C15.3605 4.64337 15.4127 4.68789 15.4553 4.74103C16.2288 5.41751 17.1292 5.80874 18.1403 5.94664C18.3343 5.96962 18.5294 5.98277 18.7247 5.98604C18.8085 5.98919 18.8359 6.01283 18.8359 6.09872C18.8335 7.15488 18.8335 8.21091 18.8359 9.26681C18.8359 9.38222 18.7801 9.38006 18.7135 9.37749C18.7049 9.37716 18.6961 9.37682 18.6871 9.37673C17.7156 9.36653 16.7533 9.1856 15.8436 8.84208C15.0927 8.56212 14.3847 8.17723 13.7404 7.69872C13.7328 7.69321 13.7257 7.6868 13.7183 7.68022C13.6921 7.6567 13.6635 7.6311 13.6073 7.63726V8.73058C13.6086 9.39627 13.6111 10.0619 13.6137 10.7275C13.6194 12.22 13.6252 13.7124 13.617 15.205C13.6073 16.9965 12.9359 18.5173 11.6715 19.7753C11.631 19.8156 11.5868 19.852 11.5426 19.8885C11.5227 19.9049 11.5028 19.9213 11.4832 19.9381H11.4832C11.4743 19.9564 11.4619 19.9728 11.4467 19.9862C11.4313 19.9998 11.4133 20.01 11.3938 20.0163L11.3937 20.0146L11.3936 20.0169C11.1696 20.2365 10.9159 20.4233 10.64 20.5716C10.6029 20.595 10.5677 20.6213 10.5347 20.6504L10.5357 20.6515C10.4915 20.6979 10.4356 20.7314 10.374 20.7484L10.3745 20.7461L10.3731 20.7473C9.6477 21.1768 8.84167 21.4501 8.00596 21.5499C6.28905 21.7646 4.72245 21.373 3.31283 20.3604C3.22228 20.2959 3.13729 20.2229 3.05224 20.1499C3.01377 20.1169 2.97528 20.0838 2.93626 20.0515L2.93566 20.0505L2.93513 20.0512C2.91731 20.0464 2.9008 20.0375 2.88684 20.0254C2.87295 20.0133 2.86195 19.9983 2.85462 19.9813L2.85444 19.9814C2.66833 19.8378 2.5001 19.6722 2.35338 19.4881L2.35319 19.4875C2.2741 19.4254 2.208 19.3482 2.15872 19.2603L2.15766 19.26C1.49372 18.4979 1.03614 17.5764 0.829065 16.5844C0.427043 14.7256 0.774653 13.0093 1.85271 11.4448C1.8655 11.4262 1.87611 11.4057 1.88676 11.3852C1.91195 11.3367 1.93731 11.2879 1.99207 11.2624L1.9929 11.2623L1.99268 11.2622C2.0216 11.2031 2.06448 11.152 2.11755 11.1135L2.11773 11.1131C2.75893 10.292 3.56963 9.68956 4.51264 9.26917C5.58365 8.79126 6.70477 8.63524 7.87169 8.74831C8.05959 8.76644 8.12653 8.8212 8.12379 9.02687C8.11308 9.89588 8.11581 10.7652 8.11854 11.6343L8.11987 12.0779C8.11987 12.1894 8.11361 12.2434 7.97543 12.2068C6.87505 11.9172 5.90308 12.1674 5.05636 12.9258C5.04204 12.9382 5.02687 12.9495 5.01095 12.9597L5.00306 12.9602L4.98369 12.986C4.92418 13.0657 4.86506 13.1447 4.7762 13.1954L4.77608 13.1961L4.72226 13.2812C4.54137 13.567 4.36229 13.8498 4.25545 14.1767C4.04859 14.7928 4.04124 15.4591 4.23445 16.0796C4.42767 16.7002 4.8115 17.243 5.33071 17.6301C5.84992 18.0172 6.47774 18.2285 7.12384 18.2337C7.76995 18.2388 8.40102 18.0376 8.92627 17.6588C9.78042 17.0414 10.2118 16.1936 10.213 15.1404C10.2192 10.4223 10.2192 5.7042 10.213 0.986288C10.213 0.805839 10.2635 0.776684 10.4279 0.777866C11.226 0.784442 12.0241 0.783302 12.8222 0.782162L13.4401 0.781412C13.4488 0.781412 13.4573 0.781239 13.4657 0.781069C13.5404 0.779561 13.6017 0.778321 13.6049 0.901579C13.6374 2.08158 14.0504 3.12251 14.7585 4.05351L14.759 4.0557C14.7761 4.06214 14.7912 4.07296 14.8028 4.08707C14.8147 4.1014 14.8225 4.11861 14.8256 4.13698L14.8254 4.13699L14.8255 4.13704Z" fill="#5A5A87"/>
</svg>
