<svg xmlns="http://www.w3.org/2000/svg" viewBox="0 0 292.44 127.17"><defs><style>.cls-1,.cls-2,.cls-5{fill:#231f20;}.cls-2,.cls-3,.cls-4{fill-rule:evenodd;}.cls-3,.cls-6{fill:#ffe512;}.cls-4{fill:#4e2f91;}.cls-5{stroke:#231f20;stroke-miterlimit:3.86;stroke-width:0.57px;}</style></defs><g id="Layer_2" data-name="Layer 2"><g id="Foreground"><path class="cls-1" d="M190.26,100.1l-.38-.06-.15,0-.65-.07-.45,0-.78,0h-.29l-.62,0-.35,0-.49,0-.14,0-.15,0-.18,0-.24,0-.33.07a10.83,10.83,0,0,0-1.85.55,7.91,7.91,0,0,0-.84.37,6.48,6.48,0,0,0-.64.34c-.2.11-.4.23-.58.35l-.31.22a2.48,2.48,0,0,0-.26.19,5.17,5.17,0,0,0-.51.42,5.49,5.49,0,0,0-.43.4l-.35.36c-.11.13-.22.25-.33.39s-.23.29-.34.44l-.24.34-.15.24a9.38,9.38,0,0,0-1.31,3.73c0,.25-.06.5-.08.75s0,.4,0,.6,0,.29,0,.44,0,.31,0,.46l0,.1c0,.18.05.36.08.53s0,.13,0,.2.06.29.1.43.1.36.16.53.15.42.24.63a8.67,8.67,0,0,0,.44.92c.09.17.19.34.29.5s.16.25.25.37.22.31.33.46.24.3.36.43.3.33.45.48l.07.07c.13.12.26.25.41.37s.2.18.32.27l.34.26.45.3a5.31,5.31,0,0,0,.53.32,10.06,10.06,0,0,0,1.23.59l.52.2.55.17q.48.13,1,.24c.28.06.58.1.89.14s.62.07.95.08l.49,0h.23c.59,0,1.13,0,1.64-.06h.1l.58-.06.83-.13.48-.09.69-.17.47-.13.52-.17.16-.06.31-.12.61-.24.44-.2.42-.2.19-.09v-3.6l-.13.08-.25.15q-.36.23-.72.42c-.26.14-.51.27-.77.39a12,12,0,0,1-1.28.53,12.39,12.39,0,0,1-2.14.58l-.22,0-.51.07c-.25,0-.48,0-.69,0H188l-.78,0a7.91,7.91,0,0,1-.95-.11,8.51,8.51,0,0,1-1.56-.4l-.23-.09-.14-.06-.25-.11a5.12,5.12,0,0,1-.52-.27l-.26-.15L183,115l-.31-.23a3.45,3.45,0,0,1-.28-.23l-.12-.11-.06-.05,0,0,0,0a6.39,6.39,0,0,1-.44-.48,3,3,0,0,1-.22-.28,2.4,2.4,0,0,1-.18-.26l-.16-.26c-.08-.12-.14-.25-.21-.38a3.09,3.09,0,0,1-.14-.32,3.93,3.93,0,0,1-.2-.54,3.31,3.31,0,0,1-.11-.39,5.41,5.41,0,0,1-.17-1c0-.11,0-.21,0-.31s0-.27,0-.37,0-.14,0-.23a6.27,6.27,0,0,1,.07-.76,4.38,4.38,0,0,1,.11-.57c0-.14.07-.28.11-.42s.09-.25.14-.39l.11-.26c0-.13.11-.25.17-.37l.15-.28a7.23,7.23,0,0,1,.41-.61l.17-.22.24-.27a.86.86,0,0,1,.13-.14,7.36,7.36,0,0,1,2.17-1.5,2.75,2.75,0,0,1,.36-.15l.37-.14.4-.12.38-.1.38-.07.41-.07.42,0a6.74,6.74,0,0,1,.77,0H188c.18,0,.37,0,.54,0l.37,0,.65.08.53.1.71.16.38.11.44.14.31.11.52.2.65.28.5.24.36.18.5.27.37.2V101.5l-.6-.24-.6-.22-.4-.14-.34-.11-.42-.14-.32-.09-.1,0-.32-.09-.39-.1-.25-.06-.43-.09ZM172.6,96.43h28v26.39h-28Z"/><path class="cls-1" d="M151.05,111v5.19h3.54l.47,0a5.93,5.93,0,0,0,1.31-.26,3,3,0,0,0,1.15-.67,2.08,2.08,0,0,0,.3-.38,2.26,2.26,0,0,0,.35-1.07.74.74,0,0,0,0-.17.45.45,0,0,0,0-.13,2,2,0,0,0-.46-1.29l-.13-.15a2.55,2.55,0,0,0-.3-.26,2.85,2.85,0,0,0-.62-.35,4.88,4.88,0,0,0-1-.3L155,111c-.12,0-.25,0-.38,0h-3.61Z"/><path class="cls-1" d="M151.05,103.1V108h2.24a7.1,7.1,0,0,0,1.27-.21l.27-.08a2.65,2.65,0,0,0,1-.59,2.12,2.12,0,0,0,.46-.67,3,3,0,0,0,.17-.75c0-.17,0-.27,0-.27a1.2,1.2,0,0,0,0-.21,2.24,2.24,0,0,0-.23-.9,1.8,1.8,0,0,0-.34-.47,2,2,0,0,0-.65-.42,4.32,4.32,0,0,0-1.42-.31,4.88,4.88,0,0,0-.52,0Z"/><path class="cls-1" d="M147.64,100.13v19h7.16s3.48.09,5.41-1.83a4.75,4.75,0,0,0,.12-6.73,6.24,6.24,0,0,0-2.82-1.57,5,5,0,0,0,1.26-.88,3.89,3.89,0,0,0,1.17-3.08,4.43,4.43,0,0,0-1.34-3.18,6.35,6.35,0,0,0-4.79-1.74Zm-7.35-3.7h28v26.39h-28Z"/><path class="cls-1" d="M174.51,28.27c.06-.91.08-1.58.08-1.58.08-1.68.16-3.44.31-4.69a68.13,68.13,0,0,1,1.39-7.33,26,26,0,0,1,2.26-6.18,16.13,16.13,0,0,1,1.32-2.15A13,13,0,0,1,191.25,0a13.54,13.54,0,0,1,13.64,13.44,13.14,13.14,0,0,1-1.76,6.91,46,46,0,0,1-3.8,6.22c-1.91,3.06-2.84,4.47-3.42,5.53a14.44,14.44,0,0,0-1.06,2.81l-.1.29.3-.06c5.24-1.09,16.49-.24,19.35,10.18a25.89,25.89,0,0,1,.69,3.35l0,.6A30.79,30.79,0,0,1,213.24,63c-.21.45-1.06,2.3-2.08,4.12a24.18,24.18,0,0,1-4,5.67,17,17,0,0,1-1.94,1.91,23.69,23.69,0,0,1-5.78,3.68C187.65,83.73,171,80,166.5,66.3a29.63,29.63,0,0,1-1.74-14.58,27.77,27.77,0,0,1,1.53-6.25,24.37,24.37,0,0,1,1.78-4c.65-1.19,1.25-2.16,1.25-2.16,1.42-2.16,2.64-3.84,3.55-5.25a8.21,8.21,0,0,0,1.22-2.45A24.53,24.53,0,0,0,174.51,28.27Z"/><path class="cls-2" d="M52,72.46c-.63,0-4.26,8.84-4.26,8.84s6,5.68,6.32,6.31,7.1-7.74,7.1-9.32S52.58,72.46,52,72.46Z"/><path class="cls-2" d="M278.35,120.79c-8.13,8.72-21.28,8.13-29.46.51-5.55-5.18-6.23-12.68-.73-18.58a10.81,10.81,0,0,1,4.19-2.82,8.54,8.54,0,0,1,1.62-.38l.19,0,0-.19C253,94,256.43,88.23,258.44,86.06c8.14-8.72,21.33-8.08,29.46-.51,5.62,5.24,6.22,12.7.73,18.58a10.81,10.81,0,0,1-4.19,2.82,7.65,7.65,0,0,1-1.6.38l-.19,0,0,.19C283.83,112.84,280.36,118.64,278.35,120.79Z"/><path class="cls-3" d="M275.19,117.85c2.66-2.85,5.08-8.93,1.69-12.09-2.22-2.08-4.39-2.79-6.53-4.78a3.76,3.76,0,0,1-.42-5.45c1.29-1.38,3.86-3,5.56-1.4,2.31,2.16,2.5,6.16,4.77,8.28,1.65,1.54,4,.12,5.22-1.22,3.78-4,3.44-8.78-.53-12.48-6.59-6.15-17-6.48-23.35.3-2.66,2.85-5,9-1.69,12.08,2.27,2.12,5.51,2.74,7,5.38,1.25,2.14,1,3.29,0,4.9s-3.91,2.94-5.6,1.36c-2.28-2.12-2.46-6.12-4.78-8.29-1.65-1.53-4-.12-5.21,1.22-3.79,4.06-3.4,8.83.52,12.49C258.48,124.34,268.88,124.62,275.19,117.85Z"/><path class="cls-2" d="M233.85,32.47a13.49,13.49,0,0,1,8,5.42c3.7,5.92-4.82,19.67-13.39,16.36-6.41-2.47-7.62-9.29-5.43-15.86C225,32.62,230.11,31.61,233.85,32.47Z"/><path class="cls-2" d="M233.46,61c-1.24,7.16-8.24,19.6-17.89,18.68-5-.48-16.16-5.57-7.49-17.7a26.5,26.5,0,0,1,3.94-4.4c1.19-1.09,2.55-2.17,4.31-3.7C223.11,48,236.13,45.61,233.46,61Z"/><path class="cls-3" d="M227.65,39.93c-1.79,5.38-.33,8.66,2.57,9.78,3.5,1.35,9.15-6.63,7.51-9.24S229.45,34.55,227.65,39.93Z"/><path class="cls-2" d="M244.64,98.63c-15.48-3-21.13-15.74-19-26.77,2.73-14,15.17-18.94,26.3-16.78,6.1,1.35,14.39,7.67,12,19.81a15.42,15.42,0,0,1-3.29,6.41,13.06,13.06,0,0,1-1.54,1.53l-1.78,1.51.32,2.32,0,.32a11.43,11.43,0,0,1-1.26,6.21,12,12,0,0,1-3.16,4.21C250.94,99.13,248,99.28,244.64,98.63Z"/><path class="cls-3" d="M251.06,59.25c-9.38-1.82-19,2.23-21.22,13.43-1.74,9,2.7,19.26,15.62,21.77,5.63,1.09,6.18-1.31,7.29-3.32s1.2-6-1-6.37-4.51.35-6.89-.12c-3.64-.7-7.47-8.49-3.44-7.71,2.26.44,6.36,2.88,11.41,3.87,3.49.67,6.56-4.46,7-6.72C261.63,64.65,255.42,60.18,251.06,59.25Z"/><path class="cls-4" d="M243.69,65.94c-1.47,2.21-1.12,6.68,1.87,7.07s8.54-2.73,6.32-6.18C249.77,63.56,245.92,62.58,243.69,65.94Z"/><path class="cls-5" d="M135.28,56.24c-.34-.54-1.43-2.79-1.43-2.79a24.92,24.92,0,0,1-2-10.82c.53-15.13,12.71-22.32,24.74-21.9,6.56.38,16.24,5.58,15.79,18.66a16.38,16.38,0,0,1-2.37,7.2,14.54,14.54,0,0,1-1.51,2l-1.64,1.84.77,2.33.15.51a11.93,11.93,0,0,1-.27,6.65c-.84,2.34-1.48,3.78-2.58,4.89-2.14,2.15-5.17,2.8-8.75,2.67-9.33-.32-16.08-4.37-20-9.9C136.1,57.61,135.62,56.78,135.28,56.24Z"/><path class="cls-5" d="M109.63,63c-.62-.15-3-1-3-1a25,25,0,0,1-9-6.36c-10.13-11.26-6.36-24.9,2.58-32.95,5-4.28,15.57-7.26,24.32,2.46a16.3,16.3,0,0,1,3.3,6.82,14.5,14.5,0,0,1,.33,2.52l.09,2.46L130.47,38l.47.26a11.92,11.92,0,0,1,4.42,5c1,2.27,1.57,3.75,1.54,5.31,0,3-1.77,5.6-4.44,8-6.93,6.25-14.6,8-21.29,6.8C111.17,63.38,110.25,63.11,109.63,63Z"/><path class="cls-3" d="M156.32,25c-10.26-.36-19.82,5.56-20.25,17.79-.34,9.81,6.09,20,20.22,20.47,6.16.21,6.33-2.43,7.17-4.74s.27-6.58-2.17-6.58-4.72,1.12-7.32,1c-4-.14-9.34-7.75-4.94-7.6,2.47.09,7.22,2,12.75,2.18,3.82.13,6.21-5.83,6.29-8.3C168.43,28.93,161.09,25.24,156.32,25Z"/><path class="cls-4" d="M150.59,36.88c-.89,2.67,2.94,5.38,5.81,5.29s6.31-1.23,6-5C161.9,30.93,152,32.73,150.59,36.88Z"/><path class="cls-2" d="M96.42,89.85C85.9,94.91,60.91,98.68,50,72.19c-10.72-26,3.54-35.77,12.89-40.53,8.87-4.52,23.81-4.82,28.91,2.09a9.58,9.58,0,0,1,1.6,7,26,26,0,0,1-1.46,5.62l-2.2,6,5.47.69c.41,0,.79.1,1.07.15a28.25,28.25,0,0,1,7.32,2,14.63,14.63,0,0,1,7,6.49C118,75.31,105.56,85.45,96.42,89.85Z"/><path class="cls-2" d="M50.13,79.41c2.72-2,6.07-1.49,8.92.16s5.9,4.76,8.77,7.81c5.16,5.47,3.09,12.58,1,17A41.81,41.81,0,0,1,60.1,116,67.84,67.84,0,0,1,54.4,121a30,30,0,0,1-10.4,5.2c-8.92,2.33-19.81-.08-31.51-12.82-24.24-26.41-7.14-48.66.94-56.54,5.2-5.07,11.39-5.38,17.26-3.36,5.51,1.9,10.92,5.88,15.6,9.65C52.62,68.18,52.73,74.67,50.13,79.41ZM28.85,84.32a23.47,23.47,0,0,0,3.94,8.94c4,4.84,7.25,5.61,10.83,4.37a4,4,0,0,0,.74-1,15.72,15.72,0,0,0,1-4c.3-1.87.5-3.81.81-5.53A18.4,18.4,0,0,1,47.34,83c-3.2,3-7.86,5.06-12.47,4.25A11.08,11.08,0,0,1,28.85,84.32Z"/><path class="cls-3" d="M35.31,83.05c7.49,1.31,17.81-9.19,8.48-16.7s-19.46-14-27.3-6.39-22.53,27.13-1,50.6,37,6.38,41.63,2.19S70.8,96.52,64.85,90.2,54.59,80,51.77,84s-.91,15.74-6.53,17.69-10.78.12-15.65-5.86-7.78-19.5-3.13-20.68S27.83,81.73,35.31,83.05Z"/><path class="cls-3" d="M103.05,25.87c-7.62,6.87-10.39,17.77-2.2,26.86,6.57,7.3,18.26,10.14,28.76.68,4.58-4.12,2.87-6.14,1.86-8.39s-4.37-4.92-6.12-3.23-2.62,4.09-4.55,5.83c-3,2.66-12.11.91-8.84-2,1.84-1.66,6.58-3.59,10.69-7.3,2.84-2.55.42-8.49-1.24-10.33C114.51,20.29,106.66,22.73,103.05,25.87Z"/><path class="cls-4" d="M104.09,38.81c1.13,2.62,6.12,1.58,8.38-.73s4.26-5.82,1.43-8.27C109.12,25.69,102.33,34.75,104.09,38.81Z"/><path class="cls-3" d="M218.75,57.25c6.55-5.69,11.13-4,9.92,2.88S221.37,75.32,216,74.81c-4-.38-9.08-2.91-4-10A35.15,35.15,0,0,1,218.75,57.25Z"/><path class="cls-6" d="M170.72,47a28,28,0,0,1,2.55-5.2c2.85-4.34,4.79-6.55,5.39-9.16a14.79,14.79,0,0,0,.53-4.17c.1-2,.17-4.37.36-5.93a58.59,58.59,0,0,1,1.28-6.76,17.45,17.45,0,0,1,2.9-6.8,8.34,8.34,0,0,1,7.52-4.32,8.84,8.84,0,0,1,8.95,8.86A8.3,8.3,0,0,1,199,18.09,43.63,43.63,0,0,1,195.4,24c-4.06,6.49-3.88,5.93-5,9.55a6.72,6.72,0,0,0-.56,3.72,3.6,3.6,0,0,0,3.37,2.84,7.74,7.74,0,0,0,1.93-.22,6.31,6.31,0,0,1,.8-.15c4.43-1,12.16.07,14,6.85a16.13,16.13,0,0,1,.54,2.5l0,.64a25,25,0,0,1-1.55,11.51c-.36.78-2.88,6.17-5,8.14l-.13.13a16.12,16.12,0,0,1-1.67,1.66,18.82,18.82,0,0,1-4.63,3c-10.11,4.59-23.27.9-26.57-9.42A24.89,24.89,0,0,1,170.72,47Z"/><path class="cls-4" d="M199.9,59.86c-2.73,2.85-8.81,5.91-12.8,2.09s-4.45-12.6-.24-13.53S208,51.39,199.9,59.86Z"/><path class="cls-3" d="M64.89,35.59C56.6,39.81,44.61,47.52,54.08,70.51S85,90.46,94.51,85.87c9.15-4.4,17.43-12.4,12.19-22.09-5-9.21-17.81-3.68-20.75-11.12-1.28-3.25,5.4-12.11,2.3-16.29S73.18,31.37,64.89,35.59Z"/><path class="cls-4" d="M73.9,56c3.5-4,2.7-12.34-1.64-13.47-6.21-1.62-10.85,7.15-9.14,10S70.41,60,73.9,56Z"/><path class="cls-4" d="M89.83,71.73c-1.26,3.47-5.3,8.42-10.17,6.67S71,69.29,74.29,66.89,93.57,61.37,89.83,71.73Z"/><path class="cls-1" d="M118.73,111v5.19h3.55l.47,0a6.16,6.16,0,0,0,1.31-.26,3,3,0,0,0,1.15-.67,2.08,2.08,0,0,0,.3-.38,2.26,2.26,0,0,0,.35-1.07v-.17a.45.45,0,0,0,0-.13,1.87,1.87,0,0,0-.07-.5,2.07,2.07,0,0,0-.39-.79l-.13-.15a2.55,2.55,0,0,0-.3-.26,3.42,3.42,0,0,0-.62-.35,5.07,5.07,0,0,0-1-.3l-.6-.08c-.12,0-.25,0-.38,0h-3.62Z"/><path class="cls-1" d="M118.73,103.1V108H121a7.1,7.1,0,0,0,1.27-.21l.27-.08a2.65,2.65,0,0,0,1-.59,1.93,1.93,0,0,0,.45-.67,2.66,2.66,0,0,0,.18-.75c0-.17,0-.27,0-.27a1.2,1.2,0,0,0,0-.21,2.24,2.24,0,0,0-.23-.9,1.8,1.8,0,0,0-.34-.47,2,2,0,0,0-.65-.42,4.32,4.32,0,0,0-1.42-.31,4.88,4.88,0,0,0-.52,0Z"/><path class="cls-1" d="M115.33,100.13v19h7.15s3.49.09,5.42-1.83a4.75,4.75,0,0,0,.12-6.73A6.24,6.24,0,0,0,125.2,109a5,5,0,0,0,1.26-.88,3.89,3.89,0,0,0,1.17-3.08,4.43,4.43,0,0,0-1.34-3.18,6.35,6.35,0,0,0-4.79-1.74ZM108,96.43H136v26.39H108Z"/></g></g></svg>