<svg xmlns="http://www.w3.org/2000/svg" viewBox="0 0 1134.07 1089.12"><defs><style>.cls-1{fill:#fff;}</style></defs><g id="Layer_2" data-name="Layer 2"><g id="Layer_1-2" data-name="Layer 1"><path class="cls-1" d="M657.79,580.5c-3-.65-5.87-1.14-8.61-1.49-40.21-5.24-53.49,18.5-58.68,27.81-.36.62-.67,1.19-1,1.67-4.78,8.23-8,18.12-9.43,29.43-2.53,19.47.35,36,8.57,49,8.11,12.9,23.51,22.12,41.17,24.7s40.27-.55,47.21-16.47l1.19-9.13,9.06-69.6C689.52,599.47,677.38,584.67,657.79,580.5Zm0,0c-3-.65-5.87-1.14-8.61-1.49-40.21-5.24-53.49,18.5-58.68,27.81-.36.62-.67,1.19-1,1.67-4.78,8.23-8,18.12-9.43,29.43-2.53,19.47.35,36,8.57,49,8.11,12.9,23.51,22.12,41.17,24.7s40.27-.55,47.21-16.47l1.19-9.13,9.06-69.6C689.52,599.47,677.38,584.67,657.79,580.5Zm0,0c-3-.65-5.87-1.14-8.61-1.49-40.21-5.24-53.49,18.5-58.68,27.81-.36.62-.67,1.19-1,1.67-4.78,8.23-8,18.12-9.43,29.43-2.53,19.47.35,36,8.57,49,8.11,12.9,23.51,22.12,41.17,24.7s40.27-.55,47.21-16.47l1.19-9.13,9.06-69.6C689.52,599.47,677.38,584.67,657.79,580.5Zm0,0c-3-.65-5.87-1.14-8.61-1.49-40.21-5.24-53.49,18.5-58.68,27.81-.36.62-.67,1.19-1,1.67-4.78,8.23-8,18.12-9.43,29.43-2.53,19.47.35,36,8.57,49,8.11,12.9,23.51,22.12,41.17,24.7s40.27-.55,47.21-16.47l1.19-9.13,9.06-69.6C689.52,599.47,677.38,584.67,657.79,580.5ZM591.7,2C173.21,37.3,51.74,201.42,8.94,496.34c-54,371.76,140.77,477.71,463.83,581,180,57.59,591.9-94.59,658.15-500.2C1158.22,410,1010.2-33.33,591.7,2Zm-56,109.77a63.4,63.4,0,0,1,16.68-2.82c1.23,0,2.56,0,3.82,0h.75c10.29.39,20.45,3,28.59,8,4.66,3.09,17,11.34,25.26,31.35l49.83,138.85V160.64l-.73,2.13L641.61,214.1l-23.72-66.86c3.59-15.42,14.45-28.3,27.29-34.44a40.12,40.12,0,0,1,14.91-3.74,47.27,47.27,0,0,1,28.9,7.83c12.78,9.21,16.43,20.63,16.89,40.15V294.29c-1.55,22.66-15.94,35-28.9,40.68a38,38,0,0,1-15.32,2.54,44.14,44.14,0,0,1-35-15.41c-4.13-4.14-12.31-24.18-12.31-24.18L567,172c-2.84-7.5-8.83-11.47-14.85-11.79s-11.89,3.22-14.42,10.66l-15,39.63-25.16-65.83C510,122.48,521.78,116.89,535.66,111.76ZM379.78,429.7a42.68,42.68,0,0,1,59.13-6.33c9.12,7.09,14.34,16.29,15.53,27.38s-2,21.18-9.4,29.95A43,43,0,0,1,385.92,487c-9.11-7-14.33-16.17-15.53-27.27S372.37,438.55,379.78,429.7ZM388.25,787c-3.14,7.63-10.08,14.72-14.6,17.63a69.78,69.78,0,0,1-14.94,6.87,46.93,46.93,0,0,1-27.49.9,46.37,46.37,0,0,1-19.32-10.31L190.27,690.39,209.63,796c2.34,12.79-.1,24-7.25,33.2s-17.07,15-29.73,17.29-24.11.45-34.06-5.59-16.34-15.66-18.68-28.45L65.37,514.83c-2.35-12.78.13-24,7.34-33.35S89.9,466.35,102.57,464c12.47-2.28,23.86-.34,33.82,5.78s16.36,15.79,18.71,28.58L174,601.76c6.42-14.24,18.08-40.16,29.45-65.44,15.68-34.84,31.89-70.87,35.11-78a45,45,0,0,1,14.31-16.73,51.06,51.06,0,0,1,20.86-8.95c6.62-1.21,14.32-.88,22.91,1l.17,0a40.71,40.71,0,0,1,19,11,34.6,34.6,0,0,1,9.59,17.84c1.18,6.51.14,13.47-3.12,20.69L254.09,632.67,381.17,748.93a31,31,0,0,1,9.92,17.49C392.3,773.07,391.18,779.92,388.25,787Zm88.19-9.85c-7.4,7.91-17.2,12.56-29.14,13.84s-22.54-1.2-31.52-7.34S401.41,768.45,400.19,757L378.42,553.51c-1.24-11.47,2-21.36,9.6-29.39s17.31-12.57,29.25-13.84,22.5,1.21,31.4,7.36,14.23,15.24,15.46,26.7l21.76,203.47C487.12,759.27,483.94,769.15,476.44,777.17ZM487.81,300c-3.09,14.92-14.44,27.76-27.27,34a41.64,41.64,0,0,1-13,3.55c-10.64,1.16-21.55-1.74-30.67-7.2-12.89-9.72-16.48-20.59-16.93-40.6V152.92c1.53-23.16,16.38-35.51,29.32-41.16,5.6-2.06,8.22-2.52,14.87-2.52,11.35,0,25.71,4.09,35,15.91,4.11,4,12.34,24.16,12.34,24.16l47.3,125.5c2.92,7.09,8.55,11,14.23,11.53,6.25.71,12.65-2.71,15.56-10.5l14.43-39.62,25.22,66.31c-12.38,22.15-24.12,27.28-38,32.43a65.56,65.56,0,0,1-16.59,2.81c-11.89.52-23.91-2.06-33.35-8-4.62-3.07-16.93-10.75-25.1-30.83l-49.38-139.4v127l1.17-3.44,17.37-50.05L487.81,300ZM740.2,794.82c-9.26,6.11-20.14,8.4-32.33,6.81a49.71,49.71,0,0,1-23.28-8.89,39.39,39.39,0,0,1-12.52-15c-24.63,10.56-44.32,13.4-69.14,10.17-25.58-3.32-47.83-12.69-66.09-27.84a126.93,126.93,0,0,1-39.4-57.66c-7.86-23-10.06-48.45-6.54-75.55,2.51-19.24,7.74-36.82,15.53-52.24s17.23-28.16,28-37.72a140.84,140.84,0,0,1,35.86-23.25,139,139,0,0,1,39.56-11.41,152.07,152.07,0,0,1,38.78,0l.31,0C677.58,506,692.79,514,700,519.1l8.91-68.44c1.53-11.72,7.1-20.79,16.59-27s20.26-8.37,32.45-6.77,22.13,6.58,29.52,14.85,10.52,18.58,9,30.29l-39.8,305.79C755.13,779.56,749.6,788.63,740.2,794.82ZM1040.87,631a37,37,0,0,1-9.63,17.18c-7.77,8.27-17.29,12.37-28.23,12.15a41.5,41.5,0,0,1-9.76-1.17,49.09,49.09,0,0,1-19.1-9.59l-.25-.23c-.17-.16-1-.92-5.29-4.25q-4.92-3.84-6.74-5.25c-1.15-.88-3.38-2.46-6.6-4.68s-5.78-3.81-7.85-4.94-4.8-2.45-8.08-4a68.54,68.54,0,0,0-9.65-3.62l-.09,0c-2-.64-3.87-1.17-5.63-1.61-7.16-1.58-13.59-1.78-19-.55-7.38,1.74-9.11,5.51-9.77,8.19l-.27,1.11c-.65,3.95.91,7.76,4.78,11.63A86.59,86.59,0,0,0,918,654.7L973,686a115.27,115.27,0,0,1,26.36,20.43c7.68,8.07,13.14,18.2,16.25,30.11s2.94,25.07-.5,39.12c-7.39,30.26-24.84,51.28-51.85,62.49-26.17,10.76-56.86,12-91.2,3.57l-2.31-.57c-34.5-8.81-64.12-25.11-88.06-48.48A41.1,41.1,0,0,1,769.58,765v-.07a47.39,47.39,0,0,1,1.29-12.53A40.91,40.91,0,0,1,779,736.19c6.85-8.7,13.85-12.43,24.51-13.84,11.37-1.37,23.58,2.85,33.81,11.83a147.08,147.08,0,0,0,53.37,29.69c2.44.78,4.77,1.44,7,2,8,2,14.75,2.35,20,1.13,6.09-1.41,9.65-4.77,11.22-10.58,1.11-4.5-.1-8.88-3.71-13.29-4-4.91-9.89-9.5-17.45-13.63l-26.34-14.37c-9.61-5.24-19.2-11.12-28.51-17.46a161.31,161.31,0,0,1-25.21-21,65.92,65.92,0,0,1-16.07-29.16c-3.09-11.53-3-24.21.29-37.67,7-28.8,22.8-48.94,46.83-59.88,23.72-10.8,54.64-11.66,91.92-2.56a160.27,160.27,0,0,1,44.82,18.81c14.33,8.69,25.9,17.32,34.4,25.65l.07.08c7.85,8.18,11.92,17.72,12.1,28.35A40.5,40.5,0,0,1,1040.87,631ZM657.79,580.5c-3-.65-5.87-1.14-8.61-1.49-40.21-5.24-53.49,18.5-58.68,27.81-.36.62-.67,1.19-1,1.67-4.78,8.23-8,18.12-9.43,29.43-2.53,19.47.35,36,8.57,49,8.11,12.9,23.51,22.12,41.17,24.7s40.27-.55,47.21-16.47l1.19-9.13,9.06-69.6C689.52,599.47,677.38,584.67,657.79,580.5Zm0,0c-3-.65-5.87-1.14-8.61-1.49-40.21-5.24-53.49,18.5-58.68,27.81-.36.62-.67,1.19-1,1.67-4.78,8.23-8,18.12-9.43,29.43-2.53,19.47.35,36,8.57,49,8.11,12.9,23.51,22.12,41.17,24.7s40.27-.55,47.21-16.47l1.19-9.13,9.06-69.6C689.52,599.47,677.38,584.67,657.79,580.5Zm0,0c-3-.65-5.87-1.14-8.61-1.49-40.21-5.24-53.49,18.5-58.68,27.81-.36.62-.67,1.19-1,1.67-4.78,8.23-8,18.12-9.43,29.43-2.53,19.47.35,36,8.57,49,8.11,12.9,23.51,22.12,41.17,24.7s40.27-.55,47.21-16.47l1.19-9.13,9.06-69.6C689.52,599.47,677.38,584.67,657.79,580.5Zm0,0c-3-.65-5.87-1.14-8.61-1.49-40.21-5.24-53.49,18.5-58.68,27.81-.36.62-.67,1.19-1,1.67-4.78,8.23-8,18.12-9.43,29.43-2.53,19.47.35,36,8.57,49,8.11,12.9,23.51,22.12,41.17,24.7s40.27-.55,47.21-16.47l1.19-9.13,9.06-69.6C689.52,599.47,677.38,584.67,657.79,580.5Zm0,0c-3-.65-5.87-1.14-8.61-1.49-40.21-5.24-53.49,18.5-58.68,27.81-.36.62-.67,1.19-1,1.67-4.78,8.23-8,18.12-9.43,29.43-2.53,19.47.35,36,8.57,49,8.11,12.9,23.51,22.12,41.17,24.7s40.27-.55,47.21-16.47l1.19-9.13,9.06-69.6C689.52,599.47,677.38,584.67,657.79,580.5Z"/></g></g></svg>