<svg xmlns="http://www.w3.org/2000/svg" viewBox="0 0 81.48 23.21"><defs><style>.cls-1{fill:#fff;}</style></defs><title>bbc-blocks-logo</title><g id="Layer_2" data-name="Layer 2"><g id="Layer_2-2" data-name="Layer 2"><path id="BBC_BLOCKS" data-name="BBC BLOCKS" class="cls-1" d="M53.07,0V23.21H28.41V0ZM47.22,15.39a4.5,4.5,0,0,0-3.65-4.33A4.28,4.28,0,0,0,45,9.91a3.64,3.64,0,0,0,.69-2.26,4.08,4.08,0,0,0-1.34-3,6.16,6.16,0,0,0-4.22-1.37H34.88V20h6.17a6.94,6.94,0,0,0,4.74-1.48A4.16,4.16,0,0,0,47.22,15.39Zm-3.9-1.93a4.65,4.65,0,0,0-2.72-.66H37.87v4.56h2.85a4,4,0,0,0,2.75-.77,2,2,0,0,0,.68-1.54A1.85,1.85,0,0,0,43.32,13.46ZM41.84,9.59a1.94,1.94,0,0,0,.79-1.73,1.76,1.76,0,0,0-.56-1.39,3.25,3.25,0,0,0-2.19-.61h-2v4.33h1.39A4.49,4.49,0,0,0,41.84,9.59ZM24.66,0V23.21H0V0ZM18.8,15.39a4.48,4.48,0,0,0-3.65-4.33,4.1,4.1,0,0,0,1.44-1.15,3.64,3.64,0,0,0,.69-2.26,4,4,0,0,0-1.34-3,6.11,6.11,0,0,0-4.21-1.37H6.47V20h6.17a7,7,0,0,0,4.74-1.48A4.11,4.11,0,0,0,18.8,15.39Zm-5.37-5.8a2,2,0,0,0,.79-1.73,1.8,1.8,0,0,0-.56-1.39,3.27,3.27,0,0,0-2.18-.61h-2v4.33h1.39A4.49,4.49,0,0,0,13.43,9.59Zm1.48,3.87a4.65,4.65,0,0,0-2.73-.66H9.46v4.56H12.3a4.08,4.08,0,0,0,2.77-.77,2,2,0,0,0,.66-1.54A1.84,1.84,0,0,0,14.91,13.46ZM81.48,0V23.21H56.82V0ZM76.59,15.5l-.4.24a11.53,11.53,0,0,1-5.87,1.79c-4,0-6.7-2.41-6.72-5.89s2.8-5.93,6.61-5.94A11.52,11.52,0,0,1,76,7.35l.39.21V4.45l-.17-.06a16.13,16.13,0,0,0-6-1.35,10.2,10.2,0,0,0-6.95,2.49,8.43,8.43,0,0,0-2.75,6.32,8.15,8.15,0,0,0,2.3,5.49,9.64,9.64,0,0,0,7.25,2.85h0a13.33,13.33,0,0,0,6.33-1.46l.16-.07Z"/></g></g></svg>