<?xml version="1.0" encoding="UTF-8"?> <svg xmlns="http://www.w3.org/2000/svg" id="Layer_1" viewBox="0 0 54.41 55"><style>.st1{fill-rule:evenodd;clip-rule:evenodd;fill:#fff}</style><g id="Symbols"><g id="footer6" transform="translate(-465 -80)"><g id="Group-10"><g id="Group-39" transform="translate(465 80)"><g id="Group-3" transform="translate(44.33)"><defs><filter id="Adobe_OpacityMaskFilter" x=".04" y="0" width="2.77" height="5.44"><feColorMatrix values="1 0 0 0 0 0 1 0 0 0 0 0 1 0 0 0 0 0 1 0"></feColorMatrix></filter></defs><mask maskUnits="userSpaceOnUse" x=".04" y="0" width="2.77" height="5.44" id="mask-2_1_"><g filter="url(#Adobe_OpacityMaskFilter)"><path id="path-1_1_" class="st1" d="M.04 0h2.77v5.44H.04z"></path></g></mask><path id="Fill-1" d="M1.03.28a3.38 3.38 0 0 0-.52 4.11c.23.4.8 1.06.92 1.06.09 0 .61-.56.83-.92.38-.59.54-1.14.54-1.82-.01-.6-.08-.95-.35-1.52C2.22.67 1.65 0 1.43 0c-.08 0-.22.11-.4.28" mask="url(#mask-2_1_)" fill-rule="evenodd" clip-rule="evenodd" fill="#fff"></path></g><path id="Fill-4" class="st1" d="M11.5 1.51c-.8.11-1.48.43-2.02.96-.37.38-.59.72-.77 1.22a4.34 4.34 0 0 0-.22 1.57l.04.26.52-.04a3.75 3.75 0 0 0 1.62-.43c1.09-.53 1.71-1.56 1.82-3.03.04-.49.04-.5-.09-.53a2.25 2.25 0 0 0-.9.02"></path><path id="Fill-6" class="st1" d="M32.67 19.92a7.4 7.4 0 0 1-4.39 2.41c-.27.04-.77.06-1.39.04a5.35 5.35 0 0 1-1.5-.17 7.3 7.3 0 0 1-3.95-2.52l-.14-.18h11.73l-.36.42zm1.79-6a10.49 10.49 0 0 1-.05 2.51c0 .01-3.26.02-7.24.02h-7.24l-.05-.38c-.06-.48-.06-1.66 0-2.14l.05-.37h14.48l.05.36zm-5.9-6.14a6.88 6.88 0 0 1 4.29 2.54l.18.24h-5.84c-5.54 0-5.83-.01-5.78-.1.18-.33.97-1.12 1.53-1.52a7.6 7.6 0 0 1 5.62-1.16zm-5.4-5.8a1.5 1.5 0 0 0-1.04.76c-.14.28-.16.85-.02 1.16.18.4.52.69.98.83.07.02.29.56.36.87a38.09 38.09 0 0 0 .41 1.41l-.38.16a8.49 8.49 0 0 0-4.06 3.93 8.67 8.67 0 0 0-.47 6.63 8.8 8.8 0 0 0 5.89 5.65c1.23.34 3.49.34 4.74-.01a9.18 9.18 0 0 0 2.78-1.39 10.4 10.4 0 0 0 1.81-1.82 9.95 9.95 0 0 0 1.57-3.59c.15-.76.13-2.52-.03-3.3a7.83 7.83 0 0 0-.7-2.04 8.07 8.07 0 0 0-1.66-2.33 8.09 8.09 0 0 0-2.32-1.67l-.54-.27.17-.5.33-1.09.17-.59.29-.12c.33-.14.6-.38.77-.69.16-.3.17-.91.02-1.21a1.38 1.38 0 0 0-1.26-.78c-.61.01-1.08.35-1.28.94-.14.41-.12.7.12 1.16l.17.34-.36 1.08-.36 1.1a9.52 9.52 0 0 0-3.82-.08c-.39.1-.43.11-.43.01 0-.04-.15-.55-.34-1.13-.26-.79-.32-1.07-.28-1.13.23-.32.31-.54.31-.92a1.3 1.3 0 0 0-1.03-1.34c-.3-.07-.32-.07-.51-.03z"></path><path id="Fill-8" class="st1" d="M40.55 2.28c-.06.08.02.83.12 1.22.12.45.33.8.71 1.17.56.53 1.19.78 1.99.78h.37v-.39c0-1.61-1.02-2.67-2.68-2.81-.34-.03-.48-.02-.51.03"></path><path id="Fill-10" class="st1" d="M50.16 2.28c-.95.14-1.74.69-2.11 1.48-.16.34-.31 1-.31 1.41v.27h.42c1.62 0 2.8-1.18 2.8-2.8 0-.45-.04-.47-.8-.36"></path><path id="Fill-12" class="st1" d="M8.47 15.04l.02 7.32-.47-.04a6.93 6.93 0 0 1-2.69-.77 7.24 7.24 0 0 1-4.04-6.51 7.25 7.25 0 0 1 7.1-7.32c.06 0 .07 1.53.08 7.32m-.75-8.65a8.69 8.69 0 0 0-7.56 6.43c.01.02 0 .06-.03.09-.1.13-.13.62-.13 2.12 0 1.69 0 1.57.13 2.15a8.79 8.79 0 0 0 3.63 5.11 7.9 7.9 0 0 0 4.81 1.39c1.48 0 2.52-.21 3.61-.73a8.76 8.76 0 0 0 4.91-9.25 8.64 8.64 0 0 0-9.37-7.31"></path><path id="Fill-14" class="st1" d="M5.7 12.11c-.4.09-.72.6-.65 1.04.08.54.64.9 1.49.95l.49.03L7 13.6a1.8 1.8 0 0 0-.19-.86c-.24-.5-.67-.73-1.11-.63"></path><path id="Fill-16" class="st1" d="M6.71 15.93c-.81.08-1.18.22-1.46.54-.61.69.16 1.76 1.01 1.4.46-.19.7-.64.74-1.39.03-.56.03-.58-.29-.55"></path><path id="Fill-18" class="st1" d="M47.65 7.96a7.3 7.3 0 0 1 2.62 1.33l.17.13-.55 1.49c-.29.82-1.1 3.02-1.79 4.88a446.92 446.92 0 0 0-1.3 3.64l-.41 1.17c-.38 1.1-.62 1.7-.63 1.56a83.5 83.5 0 0 0-.56-1.56 284.42 284.42 0 0 1-4.03-11.21c.06-.25 1.42-1.03 2.29-1.32a6.29 6.29 0 0 1 2.51-.28c1 .03 1.2.05 1.68.17m-2.59-1.57a8.62 8.62 0 0 0-6.4 3.64 8.74 8.74 0 0 0 5.28 13.5c.58.12 2.36.17 3.05.08a8.2 8.2 0 0 0 4.34-1.89 8.75 8.75 0 0 0 2.99-5.08 12.64 12.64 0 0 0-.13-3.8c-.03 0-.05-.02-.03-.05a6.17 6.17 0 0 0-.64-1.73 8.73 8.73 0 0 0-8.46-4.67"></path><path id="Fill-20" class="st1" d="M46.21 26.5a6.5 6.5 0 0 0-4 1.67 4.79 4.79 0 0 0-1.49 3.69c.01 1.03.22 1.74.76 2.53a5.22 5.22 0 0 0 1.99 1.63c.89.47 1.79.76 3.34 1.06.99.19 1.57.38 1.96.63.39.26.49.36.61.64.27.66-.16 1.26-1.11 1.55a5.5 5.5 0 0 1-2.42-.01 11 11 0 0 1-2.27-.95c-.86-.48-1.14-.57-1.76-.54-.57.03-.83.13-1.23.51a1.8 1.8 0 0 0-.57 1.59c.13.69.64 1.36 1.54 1.99a9.4 9.4 0 0 0 5.82 1.54c2.15-.1 3.76-.72 4.94-1.89a4.73 4.73 0 0 0 1.43-3.02 4.64 4.64 0 0 0-1.33-3.94c-.96-.94-2.11-1.47-4.28-1.96-2.07-.47-2.62-.66-2.92-1.01-.36-.42-.2-1.09.33-1.41.44-.26.8-.32 1.67-.29.91.03 1.29.13 2.19.54.83.38 1.36.52 1.97.52.62 0 .96-.13 1.32-.52.43-.46.61-1.24.43-1.81-.46-1.39-2.67-2.53-5.36-2.75a7.42 7.42 0 0 0-1.56.01"></path><path id="Fill-22" class="st1" d="M3.02 26.56c-.64.13-1.32.62-1.63 1.19-.08.16-.18.44-.21.64-.08.48-.08 13.22-.01 13.69a2.2 2.2 0 0 0 2.01 1.84c1 .08 1.82-.39 2.24-1.3l.18-.37.03-2.52.03-2.52 2.39 2.44 3 3.07c.33.35.72.72.86.82.87.64 2.14.53 2.89-.26.16-.16.28-.31.28-.33 0-.02.03-.08.07-.12.27-.27.37-1.26.18-1.8-.16-.47-.38-.74-1.36-1.67l-2.62-2.49-1.68-1.61.47-.45c.63-.61 1.63-1.54 3.31-3.08 1.43-1.31 1.58-1.48 1.78-1.87.23-.45.28-1.34.1-1.57-.03-.04-.06-.09-.04-.1l.01-.03-.02-.11a2.66 2.66 0 0 0-.64-.84 2.12 2.12 0 0 0-1.79-.49c-.76.16-.7.1-4.08 3.5l-3.12 3.14-.02-2.58-.03-2.59-.18-.37a2.41 2.41 0 0 0-1.67-1.26 1.3 1.3 0 0 0-.73 0"></path><path id="Fill-24" class="st1" d="M19.03 26.62c-.39.07-.81.28-1.15.61-.34.32-.56.73-.63 1.22-.08.49-.08 13.11 0 13.61.08.49.21.75.54 1.12.71.77 1.82.97 2.74.48.38-.21.78-.57.93-.87.29-.58.28-.27.28-7.53 0-7.17.01-6.98-.27-7.52a2.6 2.6 0 0 0-.97-.92 2.81 2.81 0 0 0-.66-.2c-.39-.07-.4-.07-.81 0"></path><path id="Fill-26" class="st1" d="M31.79 31.28c1.78.37 2.88 1.71 2.99 3.67a4.16 4.16 0 0 1-1.15 3.28c-.43.43-.82.67-1.39.87a8.3 8.3 0 0 1-2.67.24c-1.2 0-1.21 0-1.24-.13-.02-.07-.03-1.91-.03-4.08v-3.96h1.49c1.24 0 1.56.01 2 .11m-5.8-4.56c-.72.04-1.02.17-1.48.62-.36.36-.58.77-.66 1.25-.05.28-.06 2.19-.05 6.88l.02 6.5.13.32c.26.63.9 1.22 1.52 1.41.28.08.66.09 3.36.07 3.44-.02 3.55-.03 4.89-.49a8.08 8.08 0 0 0 5.09-5.17c.53-1.86.56-3.54.09-5.41a8.02 8.02 0 0 0-5.64-5.66c-1.07-.31-1.24-.32-4.06-.34a68.84 68.84 0 0 0-3.21.02"></path><path id="Fill-28" class="st1" d="M28.55 46.84c-1.46.2-2.51.91-3.14 2.12a3.8 3.8 0 0 0-.46 1.99c0 .99.22 1.72.73 2.47a4.43 4.43 0 0 0 1.84 1.42c.31.11.49.13 1.42.16.64.01 1.18 0 1.34-.04a4.12 4.12 0 0 0 1.92-1.19l.09-.16-.43-.48a7.46 7.46 0 0 0-.58-.58l-.15-.11-.26.23c-.35.31-.97.61-1.4.68a2.27 2.27 0 0 1-2.28-1.15 2.81 2.81 0 0 1 .11-2.7c.35-.56.98-.93 1.63-.98.66-.04 1.11.11 1.79.59.27.2.37.24.44.19.05-.03.32-.32.61-.65.59-.68.59-.62.01-1.04a4.7 4.7 0 0 0-3.23-.77"></path><path id="Fill-30" class="st1" d="M39.02 46.83c-.67.12-1.21.46-1.58.99l-.14.21.24.67.42 1.11.23.57c.03.07.08.11.12.1.07-.03.35-.76.33-.84-.01-.02.01-.06.04-.07.03-.02.07-.1.08-.18.06-.28.26-.6.41-.64.21-.06.41.03.52.23.05.09.33.81.63 1.58 1.36 3.62 1.43 3.8 1.82 4.13.3.26.6.33 1.23.31.48-.02.54-.03.78-.2.33-.23.59-.58.69-.94.12-.4.09-5.76-.03-6.09a1.5 1.5 0 0 0-.76-.79 1.84 1.84 0 0 0-1.42-.04c-.34.16-.71.53-.9.91l-.15.31.44 1.23c.43 1.21.48 1.33.53 1.28.03-.03.41-1.06.45-1.23.1-.39.14.03.14 1.52 0 .88-.02 1.61-.04 1.61-.03 0-.39-.97-.82-2.16a57.46 57.46 0 0 0-.91-2.42 2.15 2.15 0 0 0-1.58-1.15 1.55 1.55 0 0 0-.77-.01"></path><path id="Fill-32" class="st1" d="M12.24 50.34c.24.59.44 1.09.44 1.12 0 .03-.41.04-.92.04s-.92-.02-.92-.05.17-.44.37-.93l.45-1.09c.05-.11.1-.2.11-.19.01.01.23.5.47 1.1zm-1.47-3.08c-.37.79-2.91 6.78-2.94 6.93l-.05.17-.12.31c-.04.11-.06.22-.04.24.04.04 1.45.04 1.67 0 .16-.03.19-.08.48-.82.17-.43.34-.82.37-.86.04-.05.44-.07 1.66-.07h1.6l.24.59c.38.97.46 1.11.67 1.15.27.05 1.72.04 1.72-.02 0-.03-.13-.35-.28-.71a7.33 7.33 0 0 1-.37-.89c-.04-.07-.06-.12-.04-.12.02 0-.02-.11-.08-.24l-.64-1.51c-.77-1.81-1.38-3.23-1.71-3.96l-.28-.62h-1.64l-.22.43z"></path><g id="Group-36" transform="translate(33.78 46.83)"><defs><filter id="Adobe_OpacityMaskFilter_1_" x=".02" y=".03" width="7.53" height="8.14"><feColorMatrix values="1 0 0 0 0 0 1 0 0 0 0 0 1 0 0 0 0 0 1 0"></feColorMatrix></filter></defs><mask maskUnits="userSpaceOnUse" x=".02" y=".03" width="7.53" height="8.14" id="mask-4_1_"><g filter="url(#Adobe_OpacityMaskFilter_1_)"><path id="path-3_1_" class="st1" d="M.02.03h7.54v8.14H.02z"></path></g></mask><path id="Fill-34" d="M1.29.08C1.01.16.6.38.45.53.4.59.29.78.2.94l-.15.31-.02 2.72c-.02 3.02 0 3.31.32 3.74.26.36.53.46 1.27.46.51 0 .66-.02.83-.11.3-.15.69-.61.79-.93l.09-.27-.27-.78c-.52-1.47-.57-1.6-.63-1.62-.04-.01-.13.17-.22.41a29 29 0 0 0-.28.77l-.13.33V2.25l.11.28.85 2.37.83 2.26c.15.28.64.78.89.9.21.1.34.12 1.04.12.93 0 1.09-.06 1.55-.48.4-.38.53-.6.48-.86a16.4 16.4 0 0 0-.9-2.28c-.04 0-.16.25-.27.56-.35.95-.45 1.15-.62 1.19-.3.08-.65-.23-.71-.62 0-.03-.03-.08-.05-.12-.03-.04-.03-.07-.01-.07.02 0-.01-.07-.05-.16a212.3 212.3 0 0 0-1.59-4.15C3.14.69 2.82.32 2.44.16A2.05 2.05 0 0 0 1.29.08" mask="url(#mask-4_1_)" fill-rule="evenodd" clip-rule="evenodd" fill="#fff"></path></g><path id="Fill-37" class="st1" d="M21.15 51.72c.43.07.77.23.87.43a1 1 0 0 1 .07.42c0 .26-.02.3-.21.46-.29.26-.58.3-1.87.3H18.9v-1.66h.93c.52 0 1.11.02 1.32.05zm.1-3.01c.28.13.35.22.41.53.06.31-.1.59-.41.73-.22.1-.38.12-1.29.13l-1.04.02v-1.58l1.04.02c.91.02 1.06.04 1.29.15zm-4.18 2.22c0 3.59.01 4 .09 4.03.14.05 3.71.03 4.33-.02a3.09 3.09 0 0 0 1.6-.5c.57-.41.83-.94.84-1.69.01-.84-.3-1.39-1.01-1.81l-.33-.19.29-.26c.19-.17.34-.38.45-.61.14-.31.16-.41.16-.85a1.7 1.7 0 0 0-.13-.77 2.06 2.06 0 0 0-1.34-1.16c-.34-.12-.48-.12-2.65-.14l-2.29-.02v3.99z"></path></g></g></g></g></svg> 