<svg xmlns="http://www.w3.org/2000/svg" viewBox="0 0 17 17.28" enable-background="new 0 0 17 17.28"><g transform="translate(11 11)"><defs><filter id="a" filterUnits="userSpaceOnUse" x="-11" y="-11" width="17" height="17.28"><feColorMatrix values="1 0 0 0 0 0 1 0 0 0 0 0 1 0 0 0 0 0 1 0"/></filter></defs><mask maskUnits="userSpaceOnUse" x="-11" y="-11" width="17" height="17.28" id="b"><path fill-rule="evenodd" clip-rule="evenodd" fill="#fff" d="M-11-11H6V6.28h-17z" filter="url(#a)"/></mask><path d="M-1.78-9.64l-2.07 2.11c.9-.07 1.82.07 2.68.41l.94-.95a2.35 2.35 0 0 1 3.36 0c.93.94.93 2.47 0 3.41L.08-1.56c-.93.94-2.44.94-3.36 0-.22-.22-.4-.49-.52-.76L-5.39-.7A4.54 4.54 0 0 0 .59.79 4.8 4.8 0 0 0 1.62 0l3.05-3.1a4.68 4.68 0 0 0 0-6.55 4.52 4.52 0 0 0-6.45.01zm-4.84 4.92a4.49 4.49 0 0 1 7 .7L-1.2-2.4a2.38 2.38 0 0 0-3.88-.75l-3.05 3.1a2.43 2.43 0 0 0 0 3.41c.93.94 2.43.94 3.36 0l.94-.96c.85.35 1.77.48 2.68.41l-2.07 2.11a4.5 4.5 0 0 1-6.44 0 4.68 4.68 0 0 1 0-6.55l3.04-3.09z" mask="url(#b)" fill-rule="evenodd" clip-rule="evenodd" fill="#fff"/></g></svg>