<svg xmlns="http://www.w3.org/2000/svg" id="Layer_1" enable-background="new 0 0 297.85 135.29" viewBox="0 0 297.9 135.3"><style>.st1{fill-rule:evenodd;clip-rule:evenodd;fill:#fff}</style><g id="Design"><g id="logo-bluey"><g id="Group-3" transform="translate(132 .1)"><defs><filter id="Adobe_OpacityMaskFilter" width="165.7" height="135.3" x=".2" y="-.1" filterUnits="userSpaceOnUse"><feColorMatrix values="1 0 0 0 0 0 1 0 0 0 0 0 1 0 0 0 0 0 1 0"/></filter></defs><mask id="mask-2_1_" width="165.7" height="135.3" x=".2" y="-.1" maskUnits="userSpaceOnUse"><g filter="url(#Adobe_OpacityMaskFilter)"><path id="path-1_1_" d="M.2-.1h165.7v135.3H.2z" class="st1"/></g></mask><path id="Fill-1" fill="#fff" fill-rule="evenodd" d="M64 135.2H61l-1.4-.1h-3l-1.4-.2h-1.1c-.6 0-1.3 0-2-.2h-.5c-.5 0-1 0-1.5-.2h-.5c-.5 0-1 0-1.5-.2h-.5c-.4 0-.7 0-1-.2h-.5c-.8 0-1.7-.2-2.5-.4l-1.6-.2a107.4 107.4 0 0 1-10.6-2l-3.4-1-3-1a76.8 76.8 0 0 1-8.6-3.4 45.9 45.9 0 0 1-10-6.9 23.1 23.1 0 0 1-3.6-4.5 18.5 18.5 0 0 1-2.7-8.3v-.6-1.4a11.7 11.7 0 0 1 2.4-7.2 13 13 0 0 1 7.5-4.3 14.2 14.2 0 0 1 4.8-.5c1 0 2 .2 3 .4a36 36 0 0 1 11.4 4.1c2.2 1.2 4.3 2.6 6.4 4l4.3 3 2.5 1.7a97 97 0 0 0 6.7 4.2l2.2 1a42.7 42.7 0 0 0 12.6 4h1.7l.9.1H76c.6-.2 1.3-.1 1.9-.2h.3l1.2-.1c.4 0 .9 0 1.3-.2h.3l2.2-.2 3-.5 2.5-.5a35.2 35.2 0 0 0 10.7-3.8l3.3-1.8 1.6-1a44.8 44.8 0 0 0 5.8-4.4l.9-.8 1.5-1.4.9-1 2-2.5a182.8 182.8 0 0 0 9.2-15.1 62.4 62.4 0 0 0 4.2-10.2l1.6-5.5v-.3-.1l-.8-.4-2-.8-3.4-1.6a37 37 0 0 1-19.4-22.2c-.7-2-1.3-4.2-1.7-6.3l-.5-2.9-.3-2.4v-.4c-.2-.7-.1-1.4-.2-2.2v-1.3l-.1-.7v-3.2-.5c.2-.8.1-1.6.2-2.4v-1.3l.1-.3c0-.8.2-1.5.3-2.3 0-.7.2-1.4.3-2a29 29 0 0 1 1.9-6.6c.8-1.4 1.8-2.8 3.1-3.9 1-.7 1.9-1.2 3-1.5l1.6-.3h.5c.9.2 1.7.3 2.5.6a14.5 14.5 0 0 1 8.7 11.3l.5 3.2v.7l.2 1.5c0 .5 0 1 .2 1.4v.5c0 .6 0 1.2.2 1.8l.2 2.3.4 2.8.2 1.9.2 1a124 124 0 0 0 2.3 9.5c.3.9.7 1.7 1.2 2.5a5 5 0 0 0 2.4 2.2l.6.1c.2 0 .4 0 .5-.2l.7-.9 3.4-4.9 1.6-2.6 1.2-2.3a56.2 56.2 0 0 0 3.9-11.1 37.9 37.9 0 0 1 6.5-13.8c.3-.4.8-.8 1.2-1a12.1 12.1 0 0 1 5.4-2.3h1.9c1 0 2 .4 2.9 1 1 .6 1.7 1.5 2.3 2.6.6 1.2 1 2.5 1.2 3.8l.4 2.4v4l-.2 1.6-.1 1.6v.3c-.2 1.6-.6 3.6-1 5.2l-.8 3.6a180.6 180.6 0 0 1-3 9.8l-1.4 4.2-2.2 6.4-1.7 4.6-1 3-1.4 3.7-1.9 4.7-1.2 3-2 5.1-2 4.4-.8 1.9-.1.3a160 160 0 0 1-12 21.1l-3.1 4-1.9 2.3-.2.3-1.9 2c-1.4 1.8-3.1 3.3-4.7 4.9l-2.3 1.9-2.3 1.8a56.3 56.3 0 0 1-11.6 6.9l-5.3 2.3-4.3 1.6-5.1 1.7-2.9.8-4.5.9-3.1.5-2.4.2a2 2 0 0 0-.5 0c-.4.2-.8.2-1.3.2h-.5c-.6.2-1.2.2-1.8.2l-1.4.1h-2.7c-.5.1-1 0-1.6.2H64z" clip-rule="evenodd" mask="url(#mask-2_1_)"/></g><path id="Fill-4" d="M182.7 37v2.8l-.1 1.6v1.1c-.1.8 0 1.5-.2 2.2V46c0 .5 0 1-.2 1.5v1.1c0 .5 0 1-.2 1.5v.4c0 .8-.2 1.6-.4 2.4l-.8 4.5a53 53 0 0 1-2.7 9c-.6 1.7-1.2 3.3-2 4.9l-.5 1c-1 2.1-2.2 4-3.7 5.9l-1.2 1.4c-1 .8-1.9 1.6-3 2.2-1.7 1-3.6 1.7-5.6 2l-1.2.2h-.2c-1.3.3-2.7.2-4 .2l-3-.4a27.4 27.4 0 0 1-11.6-5.3l-.2-.1c-1-1-2.1-2-3-3.1l-1.8-2.1a54.4 54.4 0 0 1-5.9-9.7 72.8 72.8 0 0 1-4.9-13.4c0-.5-.2-1-.3-1.4l-.8-4-.8-4-.2-2-.3-2.1v-.5l-.2-1.5V34l-.1-1.7v-1c-.2-.8-.2-1.6 0-2.4v-1.3-1.2l.1-1v-.2l.3-1.9a28.1 28.1 0 0 1 1.6-6.5c.3-1 .7-2 1.2-2.9l1.3-1.8a19.6 19.6 0 0 1 10.3-5.3l1.8-.2c1.7.1 3.3.6 4.8 1.6.6.4 1 1 1.5 1.5.8 1 1.4 2 1.8 3.2a20.7 20.7 0 0 1 1.2 6V23c-.2.5-.2 1.1-.2 1.7l-.1 1.1v.6c0 .5 0 1-.2 1.7v.6l-.2 1a35.7 35.7 0 0 0-.2 2.4v1c0 .6 0 1.1-.2 1.7V37.4c0 .5 0 1-.2 1.6v9.6l.1.7c0 .9.2 1.7.5 2.5.2.7.5 1.3 1 1.8a6.4 6.4 0 0 0 4.7 2c1.7-.2 3.2-.7 4.3-1.9.5-.5.8-1 1-1.7l1-3.1.3-2.2v-.3c.2-.7.1-1.5.2-2.2V41v-.8c-.2-.5-.2-1-.2-1.6l-.1-1-.1-.6-.1-1v-.3l-.6-3.6c-.1-.8-.3-1.5-.3-2.3a11 11 0 0 1 3.8-8.2c1.2-1 2.7-1.7 4.3-2.2l2.1-.2h.4a15.3 15.3 0 0 1 6.6 2.3c1.1.7 2.1 1.6 2.9 2.7 1 1.3 1.5 2.7 2 4.3l.5 2.7v1.2c.3 1 .2 2 .2 3.2V37z" class="st1"/><path id="Fill-6" d="M183.3 80v-3l.1-1.6v-.7l.1-1.9.1-1.6v-.7l.1-1.6v-.5c.2-.8.2-1.6.2-2.4V65l.2-1 .1-1.8v-1c0-.4 0-.7.2-1.1v-.3l.3-2.4.2-1.8.3-1.9c0-.7.3-1.4.4-2.1a33.5 33.5 0 0 1 3.4-9.2 31.1 31.1 0 0 1 4.4-5.6l2.4-2.4a24.6 24.6 0 0 1 12.2-6.4c.6-.2 1.2-.2 1.9-.3l.5-.1 1.4-.1c.5 0 1 0 1.4-.2h3.4l.5.2c1.7 0 3.3.5 4.9 1.3a7 7 0 0 1 1.8 1.3l1.5 1.7c.8 1.3 1.3 2.7 1.5 4.2a16.8 16.8 0 0 1 0 3.7c0 .5 0 1-.2 1.6a12.6 12.6 0 0 1-1.7 3.9 14.8 14.8 0 0 1-4 3.8 21.3 21.3 0 0 1-6.7 2.7l-1.8.4c-.8 0-1.5 0-2.3.2l-2.6.1a13.4 13.4 0 0 0-7.4 2.2c-.8.6-1.3 1.4-1.5 2.3V58c.2.9.6 1.7 1.4 2.3.4.3.9.6 1.5.6l3.4-.1h.5l2.5-.1c.8 0 1.5.2 2.2.5a4 4 0 0 1 2.1 2.6c.3.8.3 1.6.2 2.4 0 .7-.4 1.4-1 2-.5.6-1 1.2-1.8 1.7l-4.3 3-1.5 1c-1.1.6-1.8 1.6-2.2 2.7-.3.9-.5 1.8-.2 2.8.1.6.3 1.1.6 1.6 0 .2.2.3.3.4.8.6 1.7 1 2.7 1h1.3c1 0 2-.3 2.8-.8l.4-.4c1-.9 2-1.7 2.7-2.8l.2-.1 2-2.3 2-2 .5-.7c1-.9 1.9-1.8 3-2.5a8.7 8.7 0 0 1 3.8-1.4l1.8-.2c.8 0 1.7.1 2.5.3 1.5.2 2.9.7 4.2 1.4a8 8 0 0 1 2.4 2c.5.5.7 1.1 1 1.8a10.6 10.6 0 0 1 .6 2.5v3.1L236 82c-.4 1.6-.9 3.2-1.6 4.6-.8 1.5-1.8 3-3 4-.5.5-.9 1-1.4 1.3l-.3.2c-1 1-2.1 1.8-3.2 2.7l-3.3 2.5L221 99a66.3 66.3 0 0 1-8.7 5.5c-1.6.7-3.2 1.3-5 1.7l-2.8.5c-.9.2-1.7.1-2.6.1a15 15 0 0 1-6.4-1.4c-1.7-.8-3.2-1.8-4.6-3l-1.4-1.2a17.2 17.2 0 0 1-3.1-4.1l-.7-1.5c-.6-1.3-1-2.6-1.3-4l-.6-3.2v-.5-.6c-.2-.6-.2-1.3-.2-1.9v-.6c-.2-.6-.2-1.1-.2-1.6V80z" class="st1"/><path id="Fill-8" d="M106 100.5H104l-1.3-.1h-.3a24.2 24.2 0 0 1-12.8-5l-.5-.4-.4-.3-1.7-2-1.5-2.3-.7-1.5c-.6-1.3-1-2.7-1.3-4.1l-.4-2.2-.1-.8-.3-2.4v-.6l-.2-1.4v-.6c-.2-.6-.1-1.2-.2-1.8l-.2-2.7-.1-1.8V70c-.2-.6-.2-1.3-.2-1.9l-.1-1.1-.1-1c0-.6 0-1.2-.2-1.8v-1c0-.7 0-1.3-.2-1.9v-.5l-.1-1.2V59l-.2-1.1v-.6l-.2-1.1v-.7l-.2-1v-.7c0-.4 0-.8-.2-1.3v-.4l-.2-1.5v-1c0-.4 0-1-.2-1.4v-1c0-.7 0-1.4-.2-2.2v-.6-6.1l.1-1.2v-.3c0-.9.2-1.7.3-2.6l.2-1a11.2 11.2 0 0 1 2.8-6.2l.4-.5.5-.5c.5-.6 1.1-1 1.7-1.5A17.3 17.3 0 0 1 95 21h1.7a15.3 15.3 0 0 1 9 3c1.1 1 2 2 2.7 3.2 1 1.5 1.6 3.2 2 4.9a24.4 24.4 0 0 1 .6 5c.3 1.2.1 2.4.2 3.7-.3 1-.2 2.2-.2 3.3v.6c-.2.5-.2 1-.2 1.6l-.1 1.6v1.3l-.2 1.3v1c0 .4 0 1-.2 1.5v1c0 .5 0 1-.2 1.5v.9c0 .5 0 1-.2 1.5v1c0 .5 0 1-.2 1.4v1c0 .4 0 .9-.2 1.3v1.1c0 .5 0 .9-.2 1.3v.6c0 .6 0 1.2-.2 1.9v.6c0 .5 0 1-.2 1.5v.8l-.1 1.4.2.2.5-.2 1.9-1a21.1 21.1 0 0 1 8.4-2 8.8 8.8 0 0 1 5.4 2l.9.9a10.3 10.3 0 0 1 3 7.4v.7c0 1-.2 1.9-.4 2.8a22.2 22.2 0 0 1-13.1 15.7c-1.7.8-3.5 1.5-5.4 1.9-.9.1-1.7.3-2.5.2H106z" class="st1"/><g id="Group-12" transform="translate(0 9.5)"><defs><filter id="Adobe_OpacityMaskFilter_1_" width="77" height="95.1" x="0" y="0" filterUnits="userSpaceOnUse"><feColorMatrix values="1 0 0 0 0 0 1 0 0 0 0 0 1 0 0 0 0 0 1 0"/></filter></defs><mask id="mask-4_1_" width="77" height="95.1" x="0" y="0" maskUnits="userSpaceOnUse"><g filter="url(#Adobe_OpacityMaskFilter_1_)"><path id="path-3_1_" d="M0 0h77v95H0z" class="st1"/></g></mask><path id="Fill-10" fill="#fff" fill-rule="evenodd" d="M47.3 63.6c-.2.8-.3 1.5-.7 2.2A9.9 9.9 0 0 1 44 69l-.9.6c-.7.5-1.4.8-2.2 1-1.2.5-2.4.7-3.7 1h-.6l-1 .1a4 4 0 0 1-.8 0h-2.7-.2l-1.4-.1-1.3-.1c-.5-.2-1-.2-1.6-.3a5 5 0 0 1-1.5-.5c-.3-.2-.6-.5-.7-.8l-.1-.9v-1.8-1.5-1l.1-1v-2.9c0-.5.2-1 .5-1.5s.6-1 1.1-1.4a7 7 0 0 1 2-1c1.3-.6 2.7-1 4.2-1.2l1.7-.2c.9-.2 1.8-.1 2.7-.1h1l.5.1c1.8.1 3.4.6 5 1.4.5.2 1 .5 1.3.9.8.6 1.3 1.4 1.7 2.3l.3 1.7v1.8M24.5 36.5c-.5-1-.9-2-1-3l-.3-1.5c-.2-1-.1-2-.1-3v-1.4l.1-.6c.1-1 .4-2 .9-2.8.4-.6.8-1.2 1.5-1.7s1.4-1 2.2-1.2c1.4-.5 2.8-.5 4.2-.1.8.2 1.4.6 2.1 1 1 1 1.6 2 1.7 3.3v.9c.1 1-.2 2-.5 3l-.7 1.9c-.5 1-1 1.9-1.6 2.7L32 35.5c-.9.8-1.8 1.5-3 2-.6.2-1.3.3-2 .3-.7-.1-1.3-.3-1.8-.7-.3-.1-.4-.4-.6-.6M77 63c-.2-.7-.2-1.5-.3-2.2a27.4 27.4 0 0 0-7.2-14.3l-1.8-1.7c-1-1-2-1.7-3-2.4a28.6 28.6 0 0 0-5-3l-.3-.2c-1.9-.9-3.8-1.5-5.8-1.8l-.8-.2c-.2 0-.3-.2-.3-.4l.1-.4c.2-.9.5-1.7.6-2.6.3-1.5.6-3 .7-4.5v-.4l.1-1c0-.5 0-1 .2-1.5v-.6-5.2-.7l-.1-1v-.7l-.8-3.5a16.2 16.2 0 0 0-6.7-9.5c-1.7-1.1-3.6-2-5.6-2.7A48 48 0 0 0 34.8.8L32.3.3 30 .1h-.3L28.4 0H27c-1 0-2.2-.1-3.3.1h-1.1l-3.5.8A25.2 25.2 0 0 0 8 7.3L6.6 8.9a23.8 23.8 0 0 0-5.1 10c-.2.7-.4 1.4-.4 2.1v.6L1 22c0 1 0 1.8-.2 2.8v1.8l-.1.8-.1 1.8v2l-.1.7-.1 1v3.5l-.1.9-.1 1.4v6.7l-.1 1-.1 1.2v9.9l.1 1.5v8.5l.1 1L.3 70v1.4c.1 1.4 0 2.8.2 4.2l.2 2 .3 1.8c.4 1.8 1 3.5 1.9 5.2a10.5 10.5 0 0 0 3.5 3.6c1.7 1 3.4 1.8 5.2 2.5l3.1 1a52 52 0 0 0 7.5 1.7l1.4.2 1.5.2 2.6.4h.4l1 .2h.6l1.5.2h.6l1.7.1c.5 0 1 0 1.5.2h7.3l1.4-.2h.6l3.3-.5a44.2 44.2 0 0 0 15.2-5.8 41.3 41.3 0 0 0 7.7-5.5l1.3-1.4a20.1 20.1 0 0 0 4.3-8.3 21.6 21.6 0 0 0 .8-5.3c.2-.5.2-.9.2-1.3v-3L77 63" clip-rule="evenodd" mask="url(#mask-4_1_)"/></g></g></g></svg>